<svg width="1024" height="1891" fill="none" xmlns="http://www.w3.org/2000/svg"><path d="M0 0h1024v1891H0V0z" fill="#E0F1FF"/><g clip-path="url(#clip0_426_2249)"><path d="M6.52 1550.84l-1.541-.34c8.08-36.53 23.925-62.32 45.846-74.47 16.372-9.11 35.994-10.41 55.235-3.67 9.95 3.72 19.703 7.95 29.221 12.66 27.217 12.9 55.383 26.25 82.283 11.39 23.461-12.97 43.737-46.25 63.295-78.46 21.52-35.3 43.778-71.83 70.341-81.38 28.862-10.4 57.218 12.65 84.625 35.01 26.352 21.47 53.61 43.7 80.996 35.85 36.542-10.54 65.067-71.11 92.642-129.61 28.63-60.76 58.252-123.57 97.052-130.02 18.988-3.14 37.66 7.99 55.783 18.75 19.537 11.58 39.728 23.58 59.624 17.1 12.659-4.21 24.853-15.65 36.605-26.8 11.752-11.16 23.904-22.67 36.774-27.02 23.567-7.99 49.792 8.31 73.844 45.87 21.33 33.37 38.395 78.16 54.855 121.5l-1.48.55c-16.47-43.26-33.501-87.97-54.747-121.2-23.566-36.89-49.116-52.96-71.944-45.22-12.533 4.22-24.559 15.63-36.184 26.66-11.625 11.03-24.157 22.84-37.154 27.05-20.57 6.69-41.078-5.48-60.91-17.23-17.891-10.54-36.395-21.61-54.729-18.55-37.977 6.32-67.514 68.75-95.933 129.13-27.723 58.81-56.396 119.63-93.634 130.45-28.187 8.19-55.763-14.29-82.452-36.04-27.048-22.04-55.066-44.9-83.084-34.75-26.036 9.38-48.146 45.66-69.519 80.73-19.706 32.37-40.086 65.84-63.927 79.02-27.576 15.25-56.122 1.73-83.697-11.35a316.731 316.731 0 00-29.073-12.65c-18.82-6.6-37.977-5.34-53.948 3.56-21.5 12.02-37.09 37.41-45.066 73.48z" fill="#C2E4FF"/><path d="M1.498 1491.56L0 1491.05c17.237-51.16 65.151-59.68 100.955-51.37 9.726 2.23 19.642 5.31 29.221 8.3 27.28 8.44 55.488 17.28 82.473 7.47 23.461-8.44 43.736-30.37 63.294-51.48 21.52-23.2 43.779-47.2 70.32-53.46 28.736-6.81 56.965 8.33 84.393 22.99 26.394 14.11 53.674 28.7 81.186 23.47 36.584-6.98 65.088-46.67 92.663-85.07 28.651-39.9 58.273-81.16 97.052-85.39 18.819-2.11 37.533 5.25 55.636 12.29 19.558 7.64 39.791 15.5 59.813 11.24 12.659-2.72 24.875-10.29 36.648-17.61 11.772-7.32 23.883-14.89 36.71-17.73 23.504-5.21 49.644 5.48 73.633 30.13 21.33 21.94 38.423 51.35 54.853 79.83l-1.37.8c-16.46-28.39-33.482-57.75-54.686-79.53-23.587-24.23-49.222-34.78-72.134-29.69-12.659 2.8-24.601 10.29-36.247 17.52s-24.157 15.06-37.154 17.82c-20.465 4.37-40.93-3.61-60.699-11.3-17.934-6.98-36.458-14.2-54.856-12.19-38.103 4.22-67.514 45.11-95.954 84.73-27.744 38.64-56.438 78.6-93.655 85.69-28.039 5.36-55.594-9.39-82.283-23.62-27.09-14.51-55.129-29.53-83.295-22.84-26.078 6.16-48.168 29.97-69.519 53-19.727 21.26-40.087 43.23-63.949 51.88-27.427 9.99-55.952 1.14-83.485-7.45-9.558-2.97-19.431-6.03-29.094-8.26-35.066-8.17-82.072.18-98.972 50.34z" fill="#C2E4FF"/><path d="M91.967 1265.52h-1.055v377.2h1.055v-377.2zm888.93-281.329h-1.055v647.949h1.055V984.191zm-25.402 57.999h-1.055v460.86h1.055v-460.86zm-25.381 121.05h-1.055v176.43h1.055v-176.43zm-25.402-43.09h-1.055v246.41h1.055v-246.41zm-25.403-44.87h-1.055v345.27h1.055v-345.27zm-25.402 96.98h-1.055v219.04h1.055v-219.04zm-25.402-89.67h-1.055v383.3h1.055v-383.3zm-25.381 129.36h-1.055v114.08h1.055v-114.08zm-25.402-38.31h-1.055v157.43h1.055v-157.43zm-25.403-85.96h-1.055v314.84h1.055v-314.84zm-25.402-5.55h-1.055v292.04h1.055v-292.04zm-25.402-9.83h-1.055v337.66h1.055V1072.3zm-25.402-59.93h-1.055v419.8h1.055v-419.8zm-25.381 48.56h-1.055v347.93h1.055v-347.93zm-25.403 108.68h-1.054v191.63h1.054v-191.63zm-25.402-59.05h-1.055v280.63h1.055v-280.63zm-25.402-87.75h-1.055v492.81h1.055v-492.81zm-25.402-95.096h-1.055v748.326h1.055V927.714zm-25.381-74.318h-1.055V1902.9h1.055V853.396zM498.34 1211.41h-1.055v419.8h1.055v-419.8zm-25.403-58.29h-1.055v492.81h1.055v-492.81zM447.535 1142h-1.055v451.75h1.055V1142zm-25.402-11.51h-1.055v492.81h1.055v-492.81zm-25.381 93.44h-1.055v215.98h1.055v-215.98zm-25.403-103.25h-1.054v460.86h1.054v-460.86zm-25.402 160.02h-1.055v205.35h1.055V1280.7zm-25.402-74.88h-1.055v392.42h1.055v-392.42zm-25.402-75.71h-1.055v584.06h1.055v-584.06zm-25.381 135.41h-1.055v377.2h1.055v-377.2zm-25.402 129.53h-1.055v139.93h1.055v-139.93zm-25.403-356.26h-1.055v839.6h1.055v-839.6zm-25.402 259.23H192.5v285.95h1.055v-285.95zm-25.402-120.91h-1.055v571.9h1.055v-571.9zm-25.402 14.56h-1.055v577.99h1.055v-577.99zm-25.381 64.91h-1.055v377.22h1.055v-377.22z" fill="#F0F8FF"/><path d="M91.967 1373.22h-1.055v114.31h1.055v-114.31zm888.93-186.97h-1.055v196.34h1.055v-196.34zm-25.4-7.19h-1.055v139.65h1.055v-139.65zm-25.382 21.93h-1.055v53.46h1.055v-53.46zm-25.403-18.71h-1.055v74.68h1.055v-74.68zm-25.403-10.44h-1.055v104.63h1.055v-104.63zm-25.4 53h-1.055v66.37h1.055v-66.37zm-25.403-32.44h-1.055v116.16h1.055V1192.4zm-25.382 35.56h-1.054v34.57h1.054v-34.57zm-25.402-23.22h-1.055v47.71h1.055v-47.71zm-25.403-31.08h-1.055v95.4h1.055v-95.4zm-25.4-13.52h-1.055v88.49h1.055v-88.49zm-25.403 6.07h-1.055v102.33h1.055v-102.33zm-25.403-31.29h-1.055v127.21h1.055v-127.21zm-25.382 23.51h-1.055v105.43h1.055v-105.43zm-25.4 54.22h-1.055v58.08h1.055v-58.08zm-25.402-28.05h-1.055v85.03h1.055v-85.03zm-25.403-13.81h-1.055v149.33h1.055v-149.33zm-25.403-6.03h-1.055v226.77h1.055v-226.77zm-25.382 30.62h-1.055v318.02h1.055v-318.02zm-25.4 138.58h-1.055v127.21h1.055v-127.21zm-25.403-32.86h-1.055v149.33h1.055V1301.1zm-25.403-25.41h-1.054v136.89h1.054v-136.89zm-25.402 2.78h-1.055v149.33h1.055v-149.33zm-25.38-3.02h-1.054v65.44h1.054v-65.44zm-25.402-17.9h-1.055v139.65h1.055v-139.65zm-25.403 70.99h-1.055v62.21h1.055v-62.21zm-25.403-9.71h-1.055v118.93h1.055v-118.93zm-25.403-8.94h-1.054v176.98h1.054v-176.98zm-25.379 63.33h-1.055v114.31h1.055v-114.31zm-25.403 46.86h-1.054v42.41h1.054v-42.41zm-25.402-112.44h-1.055v254.42h1.055v-254.42zm-25.403 66.28H192.5v86.66h1.055v-86.66zm-25.403-21.26h-1.055v173.31h1.055v-173.31zm-25.4 16.68h-1.055v175.15h1.055v-175.15zm-25.382-5.06h-1.055v114.31h1.055v-114.31z" fill="#D6EDFF"/><path d="M96.712 1396.97H86.163v114.3h10.549v-114.3zm888.929-186.98h-10.549v196.34h10.549v-196.34zm-25.402-7.19H949.69v139.65h10.549V1202.8zm-25.38 21.93H924.31v53.46h10.549v-53.46zm-25.402-18.7h-10.549v74.68h10.549v-74.68zm-25.403-10.44h-10.549v104.62h10.549v-104.62zm-25.403 53h-10.549v66.36h10.549v-66.36zm-25.403-32.44h-10.549v116.16h10.549v-116.16zm-25.379 35.56H797.32v34.56h10.549v-34.56zm-25.403-23.22h-10.549v47.7h10.549v-47.7zm-25.402-31.09h-10.55v95.41h10.55v-95.41zm-25.403-13.52h-10.549v88.5h10.549v-88.5zm-25.4 6.08h-10.549v102.32h10.549v-102.32zm-25.403-31.3h-10.549v127.21h10.549v-127.21zm-25.382 23.52h-10.549v105.42h10.549v-105.42zm-25.403 54.22h-10.549v58.08h10.549v-58.08zm-25.4-28.05h-10.549v85.03h10.549v-85.03zm-25.403-13.82h-10.549v149.34h10.549v-149.34zm-25.402-6.03h-10.549v226.78h10.549V1188.5zm-25.382 30.62h-10.549v318.03h10.549v-318.03zm-25.403 138.58h-10.549v127.21h10.549V1357.7zm-25.4-32.86h-10.549v149.34h10.549v-149.34zm-25.403-25.41h-10.549v136.89h10.549v-136.89zm-25.403 2.79h-10.549v149.33h10.549v-149.33zm-25.381-3.02h-10.55v65.44h10.55v-65.44zm-25.401-17.9h-10.549v139.65h10.549V1281.3zm-25.402 70.98h-10.549v62.21h10.549v-62.21zm-25.403-9.7h-10.549v118.92h10.549v-118.92zm-25.403-8.94h-10.549v176.98h10.549v-176.98zm-25.382 63.33h-10.549v114.3h10.549v-114.3zm-25.4 46.84h-10.549v42.41h10.549v-42.41zm-25.403-112.43h-10.549v254.42h10.549v-254.42zm-25.402 66.29h-10.55v86.65h10.55v-86.65zm-25.403-21.26h-10.549v173.31h10.549v-173.31zm-25.403 16.68h-10.549v175.15h10.549v-175.15zm-25.379-5.06h-10.549v114.3h10.549v-114.3z" fill="#F0F8FF"/><path d="M96.715 1413.06h-10.55v34.63h10.55v-34.63zm888.929-158.38h-10.549v59.49h10.549v-59.49zm-25.403-26.95h-10.549v42.32h10.549v-42.32zm-25.379-8.12h-10.549v16.2h10.549v-16.2zm-25.403-11.3H898.91v22.63h10.549v-22.63zm-25.402 0h-10.55V1240h10.55v-31.69zm-25.403 39.67h-10.549v20.11h10.549v-20.11zm-25.403-15.08h-10.549v35.19h10.549v-35.19zm-25.379 7.1h-10.549v10.48h10.549V1240zm-25.403-18.64H771.92v14.45h10.549v-14.45zm-25.403-14.45h-10.549v28.92h10.549v-28.92zm-25.402-15.92h-10.55v26.83h10.55v-26.83zm-25.401 10.88h-10.549v31.01h10.549v-31.01zm-25.402-22.62h-10.549v38.55h10.549v-38.55zm-25.382 15.92H644.93v31.95h10.549v-31.95zm-25.403 37.73h-10.549v17.58h10.549v-17.58zm-25.4-18.67h-10.549V1240h10.549v-25.77zm-25.403 8.61h-10.549v45.25h10.549v-45.25zm-25.403 20.94h-10.549v68.71h10.549v-68.71zm-25.382 62.44h-10.549v96.38h10.549v-96.38zm-25.402 72.06h-10.549v38.56h10.549v-38.56zm-25.4-25.13h-10.55v45.25h10.55v-45.25zm-25.403-29.76h-10.549v41.48h10.549v-41.48zm-25.403 7.13h-10.549v45.26h10.549v-45.26zm-25.382-32.27h-10.549v19.83h10.549v-19.83zm-25.4 7.97h-10.549v42.33h10.549v-42.33zm-25.403 44h-10.549v18.85h10.549v-18.85zm-25.402 10.06h-10.55v36.04h10.55v-36.04zm-25.403 11.3h-10.549v53.63h10.549v-53.63zm-25.382 41.48h-10.549v34.63h10.549v-34.63zm-25.4 21.79h-10.549v12.84h10.549v-12.84zm-25.403-38.56h-10.549v77.11h10.549v-77.11zm-25.403 7.83h-10.549v26.26h10.549v-26.26zm-25.402 8.94h-10.55v52.51h10.55v-52.51zm-25.403 17.32h-10.549v53.08h10.549v-53.08zm-25.38-26.26h-10.549v34.63h10.549v-34.63z" fill="#D6EDFF"/></g><defs><clipPath id="clip0_426_2249"><path fill="#fff" transform="translate(0 960)" d="M0 0h1024v686H0z"/></clipPath></defs></svg>