<svg width="768" height="1955" fill="none" xmlns="http://www.w3.org/2000/svg"><path d="M0 0h768v1955H0V0z" fill="#E0F1FF"/><g clip-path="url(#clip0_426_3118)"><path d="M4.89 1403.56l-1.156-.25c6.06-27.43 17.944-46.79 34.385-55.91 12.279-6.84 26.995-7.82 41.426-2.75a233.007 233.007 0 0121.916 9.5c20.412 9.69 41.537 19.71 61.712 8.55 17.596-9.74 32.802-34.72 47.471-58.9 16.14-26.5 32.834-53.93 52.756-61.1 21.647-7.8 42.914 9.5 63.469 26.28 19.763 16.12 40.208 32.81 60.747 26.92 27.406-7.92 48.8-53.39 69.481-97.31 21.473-45.61 43.689-92.76 72.789-97.6 14.241-2.36 28.245 6 41.838 14.07 14.652 8.69 29.796 17.7 44.717 12.84 9.494-3.16 18.64-11.74 27.454-20.12s17.928-17.02 27.581-20.28c17.675-6 37.344 6.24 55.383 34.43 15.997 25.05 28.799 58.68 41.141 91.21l-1.108.42c-12.358-32.48-25.128-66.04-41.062-90.99-17.675-27.69-36.837-39.76-53.959-33.95-9.399 3.17-18.418 11.73-27.137 20.01-8.719 8.29-18.118 17.15-27.866 20.32-15.428 5.02-30.808-4.12-45.682-12.94-13.419-7.91-27.296-16.23-41.047-13.93-28.482 4.75-50.636 51.61-71.95 96.94-20.792 44.16-42.297 89.82-70.225 97.94-21.141 6.14-41.822-10.73-61.839-27.06-20.286-16.54-41.3-33.7-62.314-26.09-19.526 7.05-36.109 34.28-52.138 60.61-14.78 24.3-30.065 49.43-47.946 59.32-20.682 11.45-42.091 1.3-62.772-8.52a237.06 237.06 0 00-21.805-9.5c-14.115-4.95-28.483-4-40.462 2.68-16.124 9.02-27.817 28.09-33.799 55.16z" fill="#C2E4FF"/><path d="M1.123 1359.05L0 1358.67c12.928-38.41 48.863-44.8 75.716-38.56 7.295 1.67 14.732 3.99 21.916 6.23 20.46 6.34 41.616 12.97 61.854 5.61 17.596-6.33 32.803-22.8 47.471-38.65 16.14-17.41 32.834-35.43 52.741-40.13 21.551-5.12 42.723 6.25 63.294 17.25 19.795 10.6 40.255 21.55 60.889 17.63 27.439-5.24 48.816-35.04 69.498-63.87 21.488-29.96 43.705-60.92 72.789-64.11 14.114-1.58 28.15 3.95 41.727 9.23 14.668 5.74 29.843 11.64 44.86 8.44 9.494-2.04 18.656-7.72 27.485-13.22 8.83-5.49 17.913-11.18 27.533-13.31 17.628-3.91 37.233 4.11 55.225 22.62 15.997 16.47 28.815 38.55 41.141 59.93l-1.028.6c-12.343-21.31-25.112-43.35-41.015-59.7-17.691-18.2-36.917-26.11-54.101-22.3-9.494 2.11-18.451 7.73-27.185 13.16-8.735 5.43-18.118 11.3-27.866 13.38-15.349 3.28-30.697-2.71-45.524-8.49-13.45-5.24-27.343-10.65-41.142-9.15-28.577 3.17-50.635 33.87-71.966 63.62-20.808 29-42.328 59-70.241 64.32-21.029 4.02-41.695-7.04-61.712-17.73-20.317-10.89-41.347-22.17-62.472-17.15-19.558 4.63-36.125 22.5-52.138 39.79-14.796 15.96-30.065 32.46-47.962 38.95-20.571 7.5-41.964.85-62.614-5.59-7.168-2.23-14.574-4.53-21.82-6.21-26.3-6.12-61.555.14-74.23 37.79z" fill="#C2E4FF"/><path d="M68.975 1189.36h-.79v283.18h.79v-283.18zm666.698-211.199h-.791v486.429h.791V978.161zm-19.052 43.539h-.791v345.98h.791V1021.7zm-19.036 90.88h-.791v132.45h.791v-132.45zm-19.051-32.35h-.792v184.99h.792v-184.99zm-19.052-33.69h-.791v259.21h.791v-259.21zm-19.052 72.81h-.791v164.44h.791v-164.44zm-19.051-67.32h-.792v287.76h.792v-287.76zm-19.036 97.12h-.791v85.64h.791v-85.64zm-19.052-28.77h-.791v118.19h.791v-118.19zm-19.051-64.53h-.792v236.36h.792v-236.36zm-19.052-4.16h-.791v219.24h.791v-219.24zm-19.052-7.38h-.791v253.49h.791v-253.49zm-19.051-44.997h-.792v315.157h.792V999.313zm-19.036 36.457h-.791v261.21h.791v-261.21zm-19.052 81.59h-.791v143.87h.791v-143.87zm-19.052-44.33h-.791v210.68h.791v-210.68zm-19.051-65.88h-.791v369.97h.791v-369.97zm-19.052-71.388h-.791v561.788h.791V935.762zm-19.036-55.793h-.791v787.891h.791V879.969zm-19.051 268.771h-.792v315.15h.792v-315.15zm-19.052-43.76h-.791v369.97h.791v-369.97zm-19.052-8.35h-.791v339.15h.791v-339.15zm-19.051-8.64h-.792v369.97h.792v-369.97zm-19.036 70.15h-.791v162.14h.791v-162.14zm-19.052-77.51h-.791v345.98h.791v-345.98zm-19.052 120.13h-.791v154.16h.791v-154.16zm-19.051-56.22h-.791v294.61h.791v-294.61zm-19.052-56.84h-.791v438.48h.791V1087.7zm-19.036 101.66h-.791v283.18h.791v-283.18zm-19.051 97.25h-.792v105.04h.792v-105.04zm-19.052-267.46h-.791v630.31h.791v-630.31zm-19.052 194.61h-.791v214.67h.791v-214.67zm-19.051-90.77h-.792v429.34h.792v-429.34zm-19.052 10.93h-.791v433.91h.791v-433.91zm-19.036 48.73h-.791v283.19h.791v-283.19z" fill="#F0F8FF"/><path d="M68.975 1270.22h-.79v85.81h.79v-85.81zm666.697-140.37h-.791v147.4h.791v-147.4zm-19.05-5.4h-.791v104.84h.791v-104.84zm-19.036 16.47h-.791v40.13h.791v-40.13zm-19.052-14.05h-.791v56.07h.791v-56.07zm-19.052-7.83h-.791v78.54h.791v-78.54zm-19.05 39.78h-.791v49.83h.791v-49.83zm-19.052-24.35h-.791v87.21h.791v-87.21zm-19.037 26.7h-.791v25.95h.791v-25.95zm-19.052-17.43h-.791v35.81h.791v-35.81zm-19.052-23.34h-.791v71.62h.791v-71.62zm-19.05-10.15h-.791v66.43h.791v-66.43zm-19.052 4.56h-.791v76.82h.791v-76.82zm-19.052-23.5h-.791v95.5h.791v-95.5zm-19.037 17.66h-.791v79.14h.791v-79.14zm-19.05 40.7h-.791v43.6h.791v-43.6zm-19.052-21.05h-.791v63.83h.791v-63.83zm-19.052-10.37h-.791v112.1h.791v-112.1zm-19.052-4.53h-.791v170.24h.791v-170.24zm-19.036 22.99h-.791v238.75h.791v-238.75zm-19.05 104.03h-.791v95.5h.791v-95.5zm-19.052-24.67h-.792v112.11h.792v-112.11zM335.652 1197h-.792v102.76h.792V1197zm-19.053 2.09h-.791v112.1h.791v-112.1zm-19.034-2.27h-.791v49.13h.791v-49.13zm-19.052-13.44h-.791v104.84h.791v-104.84zm-19.052 53.29h-.791v46.71h.791v-46.71zm-19.052-7.28h-.791v89.28h.791v-89.28zm-19.052-6.71h-.791v132.86h.791v-132.86zm-19.035 47.54h-.791v85.81h.791v-85.81zm-19.052 35.18h-.791v31.84h.791v-31.84zm-19.052-84.42h-.791v191h.791v-191zm-19.052 49.76h-.791v65.06h.791v-65.06zm-19.052-15.96h-.791v130.11h.791v-130.11zm-19.05 12.53h-.791v131.48h.791v-131.48zm-19.036-3.8h-.792v85.81h.792v-85.81z" fill="#D6EDFF"/><path d="M72.534 1288.05h-7.912v85.81h7.912v-85.81zm666.697-140.37h-7.912v147.4h7.912v-147.4zm-19.052-5.4h-7.912v104.84h7.912v-104.84zm-19.034 16.46h-7.912v40.14h7.912v-40.14zm-19.052-14.04h-7.912v56.06h7.912v-56.06zm-19.053-7.84h-7.911v78.55h7.911v-78.55zm-19.052 39.79h-7.911v49.82h7.911v-49.82zm-19.052-24.35h-7.911v87.2h7.911v-87.2zm-19.034 26.69h-7.912v25.95h7.912v-25.95zm-19.052-17.43h-7.912v35.81h7.912v-35.81zm-19.052-23.33h-7.912v71.62h7.912v-71.62zm-19.052-10.15h-7.912v66.43h7.912v-66.43zm-19.05 4.56h-7.912v76.81h7.912v-76.81zm-19.053-23.5h-7.911v95.5h7.911v-95.5zm-19.036 17.65h-7.912v79.15h7.912v-79.15zm-19.052 40.71h-7.912v43.6h7.912v-43.6zm-19.05-21.06h-7.912v63.84h7.912v-63.84zm-19.052-10.37h-7.912v112.11h7.912v-112.11zm-19.052-4.53h-7.912v170.25h7.912v-170.25zm-19.037 22.99h-7.911v238.75h7.911v-238.75zm-19.052 104.04h-7.911v95.5h7.911v-95.5zm-19.05-24.67h-7.912v112.11h7.912V1233.9zm-19.052-19.08h-7.912v102.77h7.912v-102.77zm-19.052 2.09h-7.912v112.11h7.912v-112.11zm-19.036-2.26h-7.912v49.12h7.912v-49.12zm-19.05-13.44h-7.912v104.84h7.912v-104.84zm-19.052 53.29h-7.912v46.7h7.912v-46.7zm-19.053-7.29h-7.911v89.28h7.911v-89.28zm-19.052-6.71h-7.911v132.87h7.911V1240.5zm-19.036 47.55h-7.912v85.81h7.912v-85.81zm-19.05 35.16h-7.912v31.84h7.912v-31.84zm-19.052-84.4h-7.912v191h7.912v-191zm-19.052 49.76h-7.912v65.05h7.912v-65.05zm-19.052-15.96h-7.912v130.11h7.912v-130.11zm-19.052 12.52h-7.912v131.49h7.912v-131.49zm-19.035-3.8h-7.912v85.81h7.912v-85.81z" fill="#F0F8FF"/><path d="M72.536 1300.13h-7.912v25.99h7.912v-25.99zm666.697-118.9h-7.912v44.66h7.912v-44.66zm-19.052-20.24h-7.912v31.78h7.912v-31.78zm-19.034-6.09h-7.912v12.16h7.912v-12.16zm-19.052-8.49h-7.912v16.99h7.912v-16.99zm-19.053 0h-7.911v23.8h7.911v-23.8zm-19.052 29.78h-7.911v15.11h7.911v-15.11zm-19.052-11.32h-7.912v26.43h7.912v-26.43zm-19.034 5.34h-7.912v7.86h7.912v-7.86zm-19.052-14h-7.912v10.85h7.912v-10.85zm-19.052-10.84h-7.912v21.7h7.912v-21.7zm-19.052-11.96h-7.912v20.14h7.912v-20.14zm-19.05 8.17h-7.912v23.28h7.912v-23.28zm-19.053-16.99h-7.911v28.95h7.911v-28.95zm-19.036 11.96h-7.912v23.98h7.912v-23.98zm-19.052 28.32h-7.912v13.21h7.912v-13.21zm-19.05-14.01h-7.912v19.35h7.912v-19.35zm-19.052 6.46h-7.912v33.97h7.912v-33.97zm-19.052 15.72h-7.912v51.58h7.912v-51.58zm-19.037 46.88h-7.911v72.35h7.911v-72.35zm-19.052 54.1h-7.912v28.94h7.912v-28.94zm-19.05-18.87h-7.912v33.97h7.912v-33.97zm-19.052-22.34H331.3v31.14h7.912v-31.14zm-19.052 5.35h-7.912v33.97h7.912v-33.97zm-19.036-24.22h-7.912v14.88h7.912v-14.88zm-19.05 5.98h-7.912v31.77h7.912v-31.77zm-19.053 33.03h-7.911v14.15h7.911v-14.15zm-19.052 7.55h-7.911v27.06h7.911v-27.06zm-19.052 8.48h-7.911v40.27h7.911v-40.27zm-19.036 31.15h-7.912v25.99h7.912v-25.99zm-19.05 16.35h-7.912v9.64h7.912v-9.64zm-19.052-28.94h-7.912v57.88h7.912v-57.88zm-19.052 5.87h-7.912v19.71h7.912v-19.71zm-19.052 6.72h-7.912v39.42h7.912v-39.42zm-19.052 12.99h-7.912v39.85h7.912v-39.85zm-19.035-19.71h-7.912v26h7.912v-26z" fill="#D6EDFF"/></g><defs><clipPath id="clip0_426_3118"><path fill="#fff" transform="translate(0 960)" d="M0 0h768v515H0z"/></clipPath></defs></svg>