<svg width="360" height="241" fill="none" xmlns="http://www.w3.org/2000/svg"><g clip-path="url(#clip0_434_3819)"><path d="M2.292 207.568l-.542-.118c2.841-12.833 8.412-21.894 16.118-26.161 5.756-3.201 12.654-3.66 19.419-1.289a109.568 109.568 0 0110.273 4.445c9.568 4.534 19.47 9.224 28.927 4.001 8.249-4.557 15.377-16.248 22.253-27.561 7.565-12.403 15.39-25.235 24.729-28.591 10.147-3.653 20.116 4.445 29.751 12.299 9.264 7.542 18.847 15.351 28.475 12.595 12.847-3.705 22.875-24.983 32.569-45.535 10.066-21.345 20.48-43.409 34.12-45.676 6.676-1.104 13.24 2.808 19.612 6.586 6.868 4.068 13.966 8.284 20.961 6.009 4.45-1.482 8.738-5.497 12.869-9.417 4.131-3.919 8.404-7.964 12.928-9.49 8.286-2.809 17.505 2.919 25.961 16.114 7.499 11.72 13.5 27.457 19.285 42.682l-.519.193c-5.793-15.196-11.779-30.902-19.248-42.579-8.285-12.958-17.268-18.604-25.293-15.885-4.406 1.482-8.634 5.49-12.721 9.365s-8.493 8.024-13.062 9.506c-7.232 2.349-14.441-1.926-21.414-6.053-6.29-3.705-12.795-7.594-19.24-6.52-13.351 2.223-23.736 24.153-33.727 45.365-9.746 20.663-19.826 42.03-32.918 45.831-9.909 2.875-19.604-5.023-28.987-12.662-9.509-7.742-19.359-15.773-29.209-12.21-9.153 3.297-16.927 16.041-24.44 28.362-6.928 11.372-14.093 23.13-22.475 27.761-9.694 5.356-19.73.607-29.424-3.986a111.093 111.093 0 00-10.221-4.446c-6.617-2.319-13.352-1.874-18.967 1.253-7.558 4.223-13.04 13.143-15.843 25.812z" fill="#C2E4FF"/><path d="M.527 186.742L0 186.564c6.06-17.974 22.905-20.967 35.492-18.048 3.42.785 6.906 1.867 10.273 2.919 9.59 2.963 19.507 6.068 28.994 2.623 8.248-2.964 15.376-10.669 22.252-18.085 7.566-8.15 15.391-16.582 24.722-18.782 10.103-2.393 20.027 2.927 29.67 8.076 9.279 4.956 18.869 10.083 28.541 8.246 12.862-2.453 22.883-16.396 32.577-29.888 10.073-14.017 20.487-28.51 34.12-29.998 6.616-.741 13.195 1.845 19.56 4.32 6.875 2.681 13.989 5.445 21.028 3.948 4.45-.956 8.745-3.615 12.884-6.186 4.138-2.571 8.396-5.231 12.906-6.231 8.263-1.83 17.453 1.926 25.886 10.587 7.499 7.705 13.507 18.041 19.285 28.043l-.482.281c-5.785-9.972-11.771-20.285-19.226-27.939-8.292-8.513-17.304-12.217-25.359-10.431-4.451.985-8.649 3.615-12.743 6.156-4.095 2.542-8.493 5.29-13.062 6.261-7.195 1.534-14.39-1.267-21.34-3.971-6.305-2.453-12.817-4.987-19.285-4.283-13.396 1.482-23.735 15.848-33.734 29.769-9.754 13.573-19.841 27.613-32.926 30.103-9.857 1.882-19.544-3.297-28.927-8.298-9.524-5.098-19.382-10.373-29.284-8.024-9.168 2.163-16.934 10.528-24.44 18.618-6.935 7.469-14.093 15.189-22.482 18.226-9.642 3.512-19.67.4-29.35-2.615-3.36-1.045-6.831-2.119-10.229-2.904-12.327-2.868-28.853.066-34.794 17.685z" fill="#C2E4FF"/><path d="M32.332 107.333h-.37v132.515h.37V107.333zM344.847 8.498h-.371V236.13h.371V8.499zm-8.931 20.375h-.371v161.906h.371V28.873zM326.993 71.4h-.371v61.983h.371V71.4zm-8.93-15.136h-.371v86.565h.371V56.264zm-8.931-15.766h-.371v121.298h.371V40.498zm-8.93 34.073h-.371v76.949h.371V74.571zm-8.931-31.503h-.371v134.657h.371V43.068zm-8.923 45.446h-.371v40.075h.371V88.514zm-8.93-13.462h-.371v55.308h.371V75.052zm-8.931-30.198h-.371V155.46h.371V44.854zm-8.93-1.949h-.371v102.599h.371V42.905zm-8.931-3.452h-.37v118.624h.37V39.453zm-8.93-21.056h-.371v147.481h.371V18.397zm-8.923 17.063h-.371v122.23h.371V35.459zm-8.931 38.178h-.37v67.324h.37V73.638zm-8.93-20.745h-.371v98.59h.371v-98.59zm-8.931-30.829h-.37v173.131h.37V22.065zm-8.93-33.406h-.371v262.897h.371V-11.343zm-8.923-26.109h-.371v368.703h.371V-37.451zm-8.93 125.773h-.371v147.481h.371V88.322zm-8.931-20.478h-.371v173.131h.371V67.844zm-8.93-3.904h-.371v158.705h.371V63.939zm-8.931-4.046h-.371v173.131h.371V59.894zm-8.923 32.829h-.371v75.874h.371V92.723zm-8.93-36.274h-.371v161.906h.371V56.449zm-8.931 56.218h-.371v72.141h.371v-72.141zm-8.93-26.308h-.371v137.864h.371V86.358zm-8.931-26.599h-.371v205.19h.371V59.76zm-8.923 47.573h-.37v132.515h.37V107.333zm-8.93 45.505h-.371v49.158h.37v-49.158zM76.977 27.68h-.37v294.963h.37V27.68zm-8.93 91.07h-.371v100.457h.37V118.75zm-8.931-42.475h-.37v200.914h.37V76.275zm-8.93 5.112h-.371v203.056h.37V81.387zm-8.923 22.805h-.371v132.522h.37V104.192z" fill="#F0F8FF"/><path d="M32.332 145.17h-.37v40.157h.37V145.17zm312.514-65.686h-.37v68.976h.37V79.483zm-8.929-2.527h-.371v49.062h.371V76.957zm-8.924 7.705h-.37v18.782h.37V84.662zm-8.93-6.572h-.371v26.235h.371V78.09zm-8.931-3.667h-.371v36.755h.371V74.423zm-8.93 18.619h-.37v23.315h.37V93.042zm-8.93-11.395h-.371v40.808h.371V81.647zm-8.924 12.491h-.37v12.144h.37V94.138zm-8.93-8.157h-.371v16.759h.371V85.981zm-8.931-10.921h-.371v33.518h.371V75.06zm-8.93-4.749h-.37V101.4h.37V70.311zm-8.93 2.134h-.371v35.948h.371V72.445zm-8.931-10.995h-.371v44.691h.371v-44.69zm-8.923 8.261h-.371v37.037h.371V69.711zm-8.93 19.049h-.371v20.403h.371V88.759zm-8.931-9.855h-.37v29.873h.37V78.905zm-8.93-4.852h-.371v52.462h.371V74.053zm-8.931-2.119h-.371V151.6h.371V71.934zm-8.923 10.758h-.371v111.726h.371V82.691zm-8.93 48.683h-.371v44.691h.371v-44.691zm-8.931-11.543h-.371v52.463h.371v-52.463zm-8.93-8.927h-.371v48.091h.371v-48.091zm-8.931.978h-.371v52.462h.371v-52.462zm-8.922-1.06h-.371v22.99h.371v-22.99zm-8.931-6.29h-.371v49.062h.371v-49.062zm-8.931 24.938h-.371v21.856h.371v-21.856zm-8.93-3.408h-.371v41.779h.371v-41.779zm-8.931-3.141h-.371v62.175h.371v-62.175zm-8.922 22.248h-.371v40.157h.37V145.17zm-8.931 16.463h-.37v14.899h.37v-14.899zm-8.931-39.504h-.37v89.381h.37v-89.381zm-8.93 23.286h-.371v30.443h.37v-30.443zm-8.931-7.468h-.37v60.886h.37v-60.886zm-8.93 5.86h-.37v61.531h.37v-61.531zm-8.923-1.778h-.37v40.157h.37v-40.157z" fill="#D6EDFF"/><path d="M34 153.513h-3.708v40.156H34v-40.156zm312.515-65.688h-3.709v68.977h3.709V87.825zm-8.931-2.526h-3.709v49.062h3.709V85.299zm-8.922 7.705h-3.709v18.782h3.709V93.004zm-8.931-6.571h-3.709v26.235h3.709V86.433zm-8.931-3.668h-3.708v36.756h3.708V82.765zm-8.93 18.619h-3.709v23.315h3.709v-23.315zm-8.931-11.395h-3.709v40.808h3.709V89.989zm-8.922 12.491h-3.709v12.143h3.709V102.48zm-8.931-8.157h-3.709v16.759h3.709V94.323zm-8.931-10.92h-3.708v33.517h3.708V83.403zm-8.93-4.75h-3.709v31.088h3.709V78.653zm-8.93 2.134h-3.709v35.948h3.709V80.787zm-8.931-10.995h-3.708v44.69h3.708v-44.69zm-8.923 8.261h-3.709v37.037h3.709V78.053zm-8.931 19.048h-3.708v20.404h3.708V97.101zm-8.93-9.853h-3.708v29.872h3.708V87.248zm-8.93-4.853h-3.709v52.462h3.709V82.395zm-8.931-2.119h-3.708v79.668h3.708V80.276zm-8.923 10.757h-3.709V202.76h3.709V91.033zm-8.931 48.684h-3.708v44.691h3.708v-44.691zm-8.93-11.543h-3.708v52.463h3.708v-52.463zm-8.93-8.928h-3.709v48.092h3.709v-48.092zm-8.931.979h-3.709v52.462h3.709v-52.462zm-8.923-1.06h-3.709v22.99h3.709v-22.99zm-8.93-6.29h-3.709v49.062h3.709v-49.062zm-8.931 24.938h-3.708v21.856h3.708v-21.856zm-8.93-3.408h-3.709v41.779h3.709v-41.779zm-8.931-3.141h-3.709v62.175h3.709v-62.175zm-8.923 22.249h-3.709v40.156h3.709v-40.156zm-8.93 16.455h-3.709v14.899h3.71v-14.899zm-8.931-39.497h-3.708v89.381h3.708v-89.381zm-8.93 23.286h-3.709V184.2h3.709v-30.443zm-8.931-7.468h-3.709v60.886h3.71v-60.886zm-8.931 5.861h-3.708v61.53h3.708v-61.53zm-8.922-1.779h-3.709v40.156h3.71v-40.156z" fill="#F0F8FF"/><path d="M34.001 159.166h-3.708v12.165H34v-12.165zm312.515-55.641h-3.709v20.901h3.709v-20.901zm-8.931-9.469h-3.709v14.87h3.709v-14.87zm-8.922-2.852h-3.709v5.69h3.709v-5.69zm-8.931-3.971h-3.709v7.95h3.709v-7.95zm-8.931 0h-3.708v11.136h3.708V87.233zm-8.93 13.936h-3.709v7.068h3.709v-7.068zm-8.931-5.297h-3.709v12.365h3.709V95.872zm-8.922 2.496h-3.709v3.683h3.709v-3.683zm-8.931-6.549h-3.709v5.075h3.709V91.82zm-8.931-5.075h-3.708V96.9h3.708V86.744zm-8.93-5.594h-3.709v9.424h3.709V81.15zm-8.93 3.823h-3.709v10.891h3.709v-10.89zm-8.931-7.95h-3.708v13.544h3.708V77.024zm-8.923 5.594h-3.709v11.225h3.709V82.617zm-8.931 13.255h-3.708v6.179h3.708v-6.18zm-8.93-6.557h-3.708v9.053h3.708v-9.053zm-8.93 3.023h-3.709v15.899h3.709v-15.9zm-8.931 7.357h-3.709v24.138h3.709V99.695zm-8.923 21.937h-3.709v33.859h3.709v-33.859zm-8.931 25.316h-3.708v13.544h3.708v-13.544zm-8.93-8.831h-3.708v15.9h3.708v-15.9zm-8.93-10.454h-3.709v14.573h3.709v-14.573zm-8.931 2.504h-3.709v15.9h3.709v-15.9zm-8.923-11.335h-3.709v6.964h3.709v-6.964zm-8.93 2.8h-3.709v14.87h3.709v-14.87zm-8.931 15.455h-3.708v6.624h3.708v-6.624zm-8.93 3.535h-3.709v12.661h3.709v-12.661zm-8.931 3.97h-3.709v18.841h3.709v-18.841zm-8.923 14.574h-3.709v12.165h3.709v-12.165zm-8.93 7.653h-3.709v4.512h3.71v-4.512zm-8.931-13.543h-3.708v27.086h3.708v-27.086zm-8.93 2.749h-3.709v9.224h3.709v-9.224zm-8.931 3.141h-3.709v18.448h3.71v-18.448zm-8.931 6.083h-3.708v18.648h3.708v-18.648zm-8.922-9.224h-3.709v12.165h3.709v-12.165z" fill="#D6EDFF"/></g><defs><clipPath id="clip0_434_3819"><path fill="#fff" d="M0 0h360v241H0z"/></clipPath></defs></svg>