<svg width="1920" height="1287" fill="none" xmlns="http://www.w3.org/2000/svg"><path d="M0 0h1920v1287H0V0z" fill="#E0F1FF"/><g clip-path="url(#clip0_424_1323)"><path d="M12.223 1108.47l-2.888-.64c15.152-68.52 44.86-116.913 85.962-139.703 30.698-17.092 67.488-19.545 103.566-6.884a584.35 584.35 0 0154.789 23.739c51.032 24.218 103.843 49.258 154.281 21.368 43.99-24.335 82.006-86.769 118.677-147.186 40.35-66.232 82.085-134.759 131.89-152.682 54.117-19.506 107.284 23.739 158.672 65.678 49.409 40.278 100.519 81.98 151.867 67.261 68.521-19.782 122.001-133.414 173.701-243.168 53.68-113.988 109.23-231.813 181.97-243.92 35.61-5.895 70.62 14.995 104.6 35.173 36.63 21.722 74.49 44.234 111.79 32.088 23.74-7.913 46.6-29.358 68.64-50.288 22.03-20.93 44.82-42.532 68.95-50.683 44.19-14.995 93.36 15.589 138.46 86.055 39.99 62.592 71.99 146.629 102.85 227.936l-2.77 1.028c-30.89-81.148-62.82-165.027-102.65-227.382-44.19-69.199-92.1-99.348-134.9-84.828-23.5 7.913-46.05 29.318-67.85 50.011-21.79 20.693-45.29 42.849-69.66 50.762-38.57 12.542-77.02-10.287-114.21-32.325-33.54-19.782-68.24-40.554-102.61-34.817-71.21 11.869-126.59 128.983-179.88 242.258-51.98 110.348-105.74 224.454-175.561 244.751-52.851 15.352-104.554-26.825-154.597-67.617-50.714-41.346-103.249-84.234-155.783-65.203-48.816 17.606-90.274 85.658-130.347 151.455-36.949 60.733-75.163 123.523-119.865 148.253-51.703 28.6-105.227 3.24-156.93-21.287a592.471 592.471 0 00-54.513-23.74c-35.287-12.384-71.206-10.01-101.152 6.687-40.311 22.552-69.545 70.19-84.499 137.85z" fill="#C2E4FF"/><path d="M2.809 997.247L0 996.297c32.32-95.985 122.158-111.969 189.29-96.381 18.237 4.194 36.83 9.971 54.79 15.589 51.15 15.826 104.04 32.404 154.636 14.006 43.99-15.826 82.006-56.974 118.677-96.579 40.351-43.522 82.085-88.547 131.851-100.298 53.879-12.78 106.809 15.628 158.236 43.126 49.489 26.469 100.639 53.849 152.224 44.036C1028.3 806.7 1081.74 732.238 1133.45 660.19c53.72-74.858 109.26-152.247 181.97-160.2 35.29-3.957 70.37 9.852 104.32 23.067 36.67 14.322 74.6 29.08 112.15 21.088 23.73-5.104 46.64-19.308 68.71-33.037 22.07-13.729 44.78-27.933 68.83-33.275 44.07-9.772 93.09 10.287 138.06 56.539 40 41.148 72.04 96.342 102.86 149.755l-2.57 1.503c-30.86-53.254-62.78-108.329-102.54-149.2-44.23-45.461-92.29-65.244-135.25-55.708-23.74 5.262-46.13 19.308-67.97 32.878-21.83 13.571-45.29 28.25-69.66 33.433-38.37 8.19-76.74-6.765-113.81-21.207-33.63-13.096-68.36-26.627-102.85-22.869-71.45 7.913-126.59 84.631-179.92 158.974-52.02 72.484-105.82 147.46-175.602 160.754-52.574 10.049-104.238-17.607-154.28-44.313-50.794-27.221-103.368-55.392-156.179-42.85-48.895 11.553-90.314 56.223-130.348 99.428-36.987 39.882-75.162 81.109-119.903 97.331-51.427 18.754-104.911 2.136-156.536-13.967-17.92-5.579-36.434-11.316-54.552-15.509-65.747-15.312-153.885.356-185.571 94.442z" fill="#C2E4FF"/><path d="M172.439 573.185h-1.978v707.665h1.978V573.185zM1839.18 45.384h-1.98V1260.99h1.98V45.384zm-47.63 108.805h-1.98v864.621h1.98V154.189zm-47.59 227.104h-1.97v331.004h1.97V381.293zm-47.63-80.831h-1.97v462.281h1.97V300.462zm-47.63-84.195h-1.97V864.03h1.97V216.267zm-47.62 181.96h-1.98v410.926h1.98V398.227zm-47.63-168.231h-1.98v719.099h1.98V229.996zm-47.59 242.693h-1.98v214.009h1.98V472.689zm-47.63-71.89h-1.98v295.355h1.98V400.799zm-47.63-161.268h-1.98v590.671h1.98V239.531zm-47.63-10.406h-1.98v547.901h1.98V229.125zm-47.63-18.437h-1.98v633.48h1.98v-633.48zm-47.63-112.445h-1.98V885.83h1.98V98.243zm-47.59 91.119h-1.98v652.749h1.98V189.362zm-47.63 203.88h-1.98v359.53h1.98v-359.53zm-47.63-110.783h-1.97v526.496h1.97V282.459zm-47.63-164.631h-1.97v924.562h1.97V117.828zm-47.62-178.4h-1.98V1343.36h1.98V-60.572zM982.016-200h-1.978v1968.97h1.978V-200zm-47.629 671.661h-1.978v787.589h1.978V471.661zm-47.63-109.359h-1.978v924.558h1.978V362.302zm-47.629-20.851h-1.978v847.529h1.978V341.451zm-47.629-21.602h-1.978v924.561h1.978V319.849zM743.91 495.162h-1.978v405.189h1.978V495.162zm-47.63-193.711h-1.978v864.619h1.978V301.451zm-47.629 300.221h-1.978V986.92h1.978V601.672zm-47.629-140.496h-1.978v736.234h1.978V461.176zm-47.629-142.04h-1.978V1414.9h1.978V319.136zm-47.59 254.049h-1.978v707.665h1.978V573.185zm-47.629 243.01h-1.978v262.515h1.978V816.195zm-47.629-668.376h-1.978V1722.99h1.978V147.819zm-47.629 486.336h-1.978v536.465h1.978V634.155zm-47.629-226.827h-1.978V1480.26h1.978V407.328zm-47.629 27.3h-1.978V1518.99h1.978V434.628zm-47.59 121.782h-1.978v707.7h1.978v-707.7z" fill="#F0F8FF"/><path d="M172.439 775.247h-1.978v214.444h1.978V775.247zM1839.18 424.462h-1.98v368.352h1.98V424.462zm-47.62-13.492h-1.98v262.001h1.98V410.97zm-47.59 41.147h-1.98v100.298h1.98V452.117zm-47.64-35.095h-1.97v140.101h1.97V417.022zm-47.63-19.585h-1.97V593.72h1.97V397.437zm-47.62 99.429h-1.98v124.512h1.98V496.866zm-47.63-60.853h-1.98v217.926h1.98V436.013zm-47.59 66.709h-1.98v64.848h1.98v-64.848zm-47.63-43.562h-1.98v89.497h1.98V459.16zm-47.63-58.32h-1.98v178.993h1.98V400.84zm-47.63-25.361h-1.98v166.016h1.98V375.479zm-47.63 11.395h-1.98v191.97h1.98v-191.97zm-47.63-58.715h-1.98v238.658h1.98V328.159zm-47.59 44.115h-1.98v197.787h1.98V372.274zm-47.62 101.723h-1.98V582.96h1.98V473.997zm-47.63-52.623h-1.98v159.528h1.98V421.374zm-47.63-25.914h-1.98v280.162h1.98V395.46zm-47.63-11.316h-1.98V809.59h1.98V384.144zm-47.595 57.449h-1.978v596.647h1.978V441.593zm-47.626 259.985h-1.978v238.658h1.978V701.578zm-47.63-61.643h-1.978v280.162h1.978V639.935zm-47.63-47.677h-1.978v256.819h1.978V592.258zm-47.63 5.223h-1.978v280.162h1.978V597.481zm-47.586-5.658h-1.978v122.771h1.978V591.823zm-47.63-33.591h-1.978v262.001h1.978V558.232zm-47.631 133.176h-1.978v116.718h1.978V691.408zm-47.63-18.201h-1.978v223.109h1.978V673.207zm-47.63-16.774h-1.978v332.032h1.978V656.433zm-47.586 118.814h-1.978v214.444h1.978V775.247zm-47.63 87.914h-1.978v79.565h1.978v-79.565zm-47.63-210.963h-1.978v477.312h1.978V652.198zm-47.63 124.355h-1.978v162.574h1.978V776.553zm-47.631-39.883h-1.978v325.15h1.978V736.67zm-47.625 31.296h-1.978v328.594h1.978V767.966zm-47.591-9.494h-1.978v214.444h1.978V758.472z" fill="#D6EDFF"/><path d="M181.335 819.797h-19.779v214.443h19.779V819.797zM1848.08 469.009h-19.78v368.353h19.78V469.009zm-47.63-13.491h-19.78v262.001h19.78V455.518zm-47.59 41.147h-19.78v100.298h19.78V496.665zm-47.63-35.093h-19.78v140.101h19.78V461.572zm-47.63-19.585h-19.78v196.284h19.78V441.987zm-47.63 99.426h-19.78v124.512h19.78V541.413zm-47.63-60.85h-19.78v217.926h19.78V480.563zm-47.59 66.707h-19.77v64.848h19.77V547.27zm-47.63-43.562h-19.78v89.497h19.78v-89.497zm-47.63-58.318h-19.78v178.993h19.78V445.39zm-47.63-25.361h-19.78v166.016h19.78V420.029zm-47.62 11.395h-19.78v191.971h19.78V431.424zm-47.63-58.717h-19.78v238.658h19.78V372.707zm-47.59 44.117h-19.78v197.787h19.78V416.824zm-47.63 101.721h-19.78v108.963h19.78V518.545zm-47.63-52.621h-19.78v159.528h19.78V465.924zm-47.63-25.916h-19.78V720.17h19.78V440.008zm-47.63-11.314h-19.78v425.445h19.78V428.694zm-47.589 57.447h-19.78v596.649h19.78V486.141zm-47.63 259.984h-19.78v238.658h19.78V746.125zm-47.625-61.642h-19.78v280.161h19.78V684.483zm-47.631-47.677h-19.779v256.818h19.779V636.806zm-47.63 5.223h-19.779v280.162h19.779V642.029zm-47.591-5.659h-19.779v122.772h19.779V636.37zm-47.625-33.59h-19.78v262.001h19.78V602.78zm-47.63 133.176h-19.78v116.718h19.78V735.956zm-47.63-18.198h-19.78v223.108h19.78V717.758zm-47.631-16.777h-19.779v332.029h19.779V700.981zm-47.591 118.816h-19.779v214.443h19.779V819.797zm-47.625 87.875h-19.779v79.565h19.779v-79.565zm-47.63-210.924h-19.78v477.312h19.78V696.748zm-47.63 124.353h-19.78v162.574h19.78V821.101zm-47.63-39.881h-19.78v325.15h19.78V781.22zm-47.631 31.296h-19.779v328.594h19.779V812.516zm-47.586-9.496h-19.779v214.44h19.779V803.02z" fill="#F0F8FF"/><path d="M181.34 849.984h-19.779v64.967h19.779v-64.967zM1848.08 552.85h-19.78v111.614h19.78V552.85zm-47.63-50.566h-19.78v79.408h19.78v-79.408zm-47.58-15.231h-19.78v30.387h19.78v-30.387zm-47.63-21.207h-19.78V508.3h19.78v-42.454zm-47.63 0h-19.78v59.467h19.78v-59.467zm-47.63 74.423h-19.78v37.745h19.78v-37.745zm-47.63-28.29h-19.78v66.035h19.78v-66.035zm-47.59 13.333h-19.78v19.664h19.78v-19.664zm-47.63-34.976h-19.78v27.103h19.78v-27.103zm-47.63-27.103h-19.78v54.245h19.78v-54.245zm-47.63-29.872h-19.78v50.327h19.78v-50.327zm-47.63 20.417h-19.78v58.161h19.78v-58.161zm-47.63-42.453h-19.78v72.325h19.78v-72.325zm-47.59 29.872h-19.78v59.941h19.78v-59.941zm-47.63 70.782h-19.78v32.998h19.78v-32.998zm-47.62-35.017h-19.78v48.349h19.78v-48.349zm-47.63 16.144h-19.78v84.907h19.78v-84.907zm-47.63 39.288h-19.78v128.904h19.78V532.394zm-47.594 117.152h-19.78V830.36h19.78V649.546zm-47.63 135.195h-19.78v72.325h19.78v-72.325zM895.66 737.58h-19.779v84.907h19.779V737.58zm-47.63-55.828h-19.779v77.825h19.779v-77.825zm-47.63 13.374h-19.779v84.908H800.4v-84.908zm-47.591-60.534H733.03v37.191h19.779v-37.191zm-47.625 14.954h-19.78v79.408h19.78v-79.408zm-47.63 82.535h-19.78v35.371h19.78v-35.371zm-47.631 18.873h-19.779v67.617h19.779v-67.617zm-47.63 21.205h-19.779v100.615h19.779V772.159zm-47.591 77.825h-19.779v64.967h19.779v-64.967zm-47.625 40.871h-19.78v24.096h19.78v-24.096zm-47.63-72.326h-19.78V963.18h19.78V818.529zm-47.63 14.681h-19.78v49.259h19.78V833.21zm-47.63 16.774h-19.78v98.518h19.78v-98.518zm-47.631 32.485h-19.779v99.586h19.779v-99.586zM228.97 833.21h-19.779v64.966h19.779V833.21z" fill="#D6EDFF"/></g><defs><clipPath id="clip0_424_1323"><path fill="#fff" d="M0 0h1920v1287H0z"/></clipPath></defs></svg>