<svg width="537" height="158" fill="none" xmlns="http://www.w3.org/2000/svg"><path d="M531.8 6.312l-56.202 45.277a40 40 0 01-40.676 5.691l-33.659-14.236a39.999 39.999 0 00-36.765 2.91l-43.721 27.298a40.001 40.001 0 01-29.082 5.282l-47.509-9.568a40 40 0 00-22.843 2.11l-45.201 18.206a40 40 0 01-35.631-2.867l-33.768-20.403a40 40 0 00-45.78 3.087L7.935 111.82v45.971H531.8V6.311z" fill="url(#paint0_linear_426_3155)"/><circle cx="6.36" cy="112.036" r="5" fill="#3AD2A0" stroke="#243E6A" stroke-width="2"/><circle cx="82.1" cy="60.542" r="5" fill="#3D81F5" stroke="#243E6A" stroke-width="2"/><circle cx="160.365" cy="91.576" r="5" fill="#3D81F5" stroke="#243E6A" stroke-width="2"/><circle cx="233.317" cy="66.329" r="5" fill="#3D81F5" stroke="#243E6A" stroke-width="2"/><circle cx="304.745" cy="78.953" r="5" fill="#3D81F5" stroke="#243E6A" stroke-width="2"/><circle cx="383.796" cy="38.821" r="5" fill="#3D81F5" stroke="#243E6A" stroke-width="2"/><circle cx="452.7" cy="60.493" r="5" fill="#3D81F5" stroke="#243E6A" stroke-width="2"/><circle cx="530.226" cy="6" r="5" fill="#F88" stroke="#243E6A" stroke-width="2"/><defs><linearGradient id="paint0_linear_426_3155" x1="269.867" y1="6.312" x2="269.867" y2="157.037" gradientUnits="userSpaceOnUse"><stop stop-color="#3D81F5"/><stop offset="0" stop-color="#3D81F5"/><stop offset="1" stop-color="#3D81F5" stop-opacity="0"/></linearGradient></defs></svg>