<?xml version="1.0" encoding="utf-8"?>
<svg xmlns="http://www.w3.org/2000/svg" xmlns:xlink="http://www.w3.org/1999/xlink">
    <symbol fill="none" viewBox="0 0 16 15" id="arr-down" xmlns="http://www.w3.org/2000/svg">
        <path fill-rule="evenodd" clip-rule="evenodd"
              d="M15.071 8.343l-6.364 6.364a1 1 0 01-1.414 0L.93 8.343A1 1 0 112.343 6.93L7 11.586V1a1 1 0 112 0v10.586l4.657-4.657a1 1 0 111.414 1.414z"
              fill="#fff"/>
    </symbol>
    <symbol fill="none" viewBox="0 0 16 16" id="arr-down-select" xmlns="http://www.w3.org/2000/svg">
        <path d="M3 6l5 5 5-5" stroke="#306BCF" stroke-width="1.5" stroke-linecap="round"/>
    </symbol>
    <symbol fill="none" viewBox="0 0 10 7" id="arr-down-select-blue" xmlns="http://www.w3.org/2000/svg">
        <path fill-rule="evenodd" clip-rule="evenodd"
              d="M.22.814a.75.75 0 011.06 0l3.47 3.47L8.22.814a.75.75 0 111.06 1.061l-4.53 4.53-4.53-4.53a.75.75 0 010-1.06z"
              fill="#306BCF"/>
    </symbol>
    <symbol fill="none" viewBox="0 0 10 7" id="arr-up" xmlns="http://www.w3.org/2000/svg">
        <path fill-rule="evenodd" clip-rule="evenodd"
              d="M.22 6.186a.75.75 0 001.06 0l3.47-3.47 3.47 3.47a.75.75 0 101.06-1.061L4.75.595.22 5.125a.75.75 0 000 1.06z"
              fill="#fff"/>
    </symbol>
    <symbol fill="none" viewBox="0 0 60 60" id="avax-icon" xmlns="http://www.w3.org/2000/svg">
        <rect width="60" height="60" rx="8" fill="#DD5148"/>
        <path fill-rule="evenodd" clip-rule="evenodd"
              d="M20.045 45.955h-6.737a5.55 5.55 0 01-2.53-.263 1.674 1.674 0 01-.568-.596 1.642 1.642 0 01-.21-.79c0-.477.325-1.094 1.015-2.307l16.622-28.735.05-.086c.671-1.157 1.02-1.759 1.494-1.992a1.693 1.693 0 011.545 0c.452.22.802.846 1.52 2.06l3.4 5.867a10.688 10.688 0 011.307 2.704 4.935 4.935 0 010 2.322c-.312.979-.762 1.91-1.336 2.766l-8.743 15.218c-.433.91-.996 1.754-1.67 2.508a5.158 5.158 0 01-2.065 1.19 13.173 13.173 0 01-3.094.134zm26.623 0a5.812 5.812 0 002.56-.263 1.7 1.7 0 00.56-.599 1.67 1.67 0 00.212-.787c0-.477-.31-1.065-.971-2.197v-.11L44.2 33.876v-.08c-.67-1.133-1.025-1.702-1.403-1.912a1.693 1.693 0 00-1.545 0c-.437.22-.806.812-1.506 2.016l-4.935 8.123-.054.092c-.668 1.142-1.004 1.717-.99 2.187.008.276.084.546.221.787s.331.446.566.598a5.6 5.6 0 002.477.268h9.637z"
              fill="#fff"/>
        <path d="M20.045 45.955h-6.737a5.55 5.55 0 01-2.53-.263 1.674 1.674 0 01-.568-.596 1.642 1.642 0 01-.21-.79c0-.477.325-1.094 1.015-2.307l16.622-28.735.05-.086c.671-1.157 1.02-1.759 1.494-1.992a1.693 1.693 0 011.545 0c.452.22.802.846 1.52 2.06l3.4 5.867a10.688 10.688 0 011.307 2.704 4.935 4.935 0 010 2.322c-.312.979-.762 1.91-1.336 2.766l-8.743 15.218c-.433.91-.996 1.754-1.67 2.508a5.158 5.158 0 01-2.065 1.19 13.173 13.173 0 01-3.094.134zm26.623 0a5.812 5.812 0 002.56-.263 1.7 1.7 0 00.56-.599 1.67 1.67 0 00.212-.787c0-.477-.31-1.065-.971-2.197v-.11L44.2 33.876v-.08c-.67-1.133-1.025-1.702-1.403-1.912a1.693 1.693 0 00-1.545 0c-.437.22-.806.812-1.506 2.016l-4.935 8.123-.054.092c-.668 1.142-1.004 1.717-.99 2.187.008.276.084.546.221.787s.331.446.566.598a5.6 5.6 0 002.477.268h9.637z"
              fill="#fff"/>
    </symbol>
    <symbol fill="none" viewBox="0 0 60 60" id="bch-icon" xmlns="http://www.w3.org/2000/svg">
        <rect width="60" height="60" rx="8" fill="#96C060"/>
        <path d="M38.317 18.652c-1.78-3.699-5.561-3.767-9.875-2.596l-1.956-5.318-3.237 1.191 1.905 5.178c-.85.313-1.715.65-2.573.985l-1.916-5.212-3.235 1.19 1.954 5.317c-.695.272-1.379.538-2.05.785l-.006-.016-4.466 1.64 1.273 3.457s2.374-.924 2.35-.866c1.311-.482 2.018.122 2.384.734l2.229 6.058c.09-.033.21-.072.35-.103-.108.04-.223.081-.342.126l3.121 8.488c.095.434.094 1.181-.821 1.52.055.02-2.354.864-2.354.864l.78 4.103 4.212-1.55c.784-.287 1.56-.557 2.32-.831l1.98 5.378 3.233-1.19-1.958-5.32a127.4 127.4 0 002.596-.927l1.947 5.297 3.237-1.19-1.974-5.37c5.327-2.314 8.632-5.086 7.225-10.371-1.132-4.256-3.743-5.38-7.105-4.986 1.525-1.646 2.08-3.761.773-6.466h-.001zm-.299 13.166c1.48 4.02-5.57 6.094-7.764 6.903l-2.62-7.127c2.195-.806 8.842-3.968 10.384.224zm-5.204-9.5c1.344 3.657-4.553 5.341-6.38 6.014l-2.377-6.464c1.827-.672 7.354-3.364 8.757.45z"
              fill="#fff"/>
    </symbol>
    <symbol fill="none" viewBox="0 0 42 40" id="bitgo" xmlns="http://www.w3.org/2000/svg">
        <path fill-rule="evenodd" clip-rule="evenodd"
              d="M37 13.172C37 33.472 20.5 39 20.5 39S4 33.473 4 13.172V5.865c0-.801.633-1.444 1.426-1.503C8.42 4.224 15.53 3.63 20.5 1c4.981 2.63 12.081 3.224 15.074 3.372.793.05 1.426.692 1.426 1.493v7.307zm-14.411-.534c2.45.228 4.378.99 4.58 3.204.15 1.622-.543 2.59-1.648 3.144 1.818.436 2.943 1.503 2.702 3.886-.302 2.947-2.551 3.728-5.745 3.887l.01 3.095H20.57l.01-3.066-1.516-.03-.02 3.096-1.888-.01-.01-3.115c-.442 0-3.455.01-3.455.01l.02-2.255 2.13-.01.01-9.888H13.42v-1.968s3.425 0 3.836-.01l-.01-3.075 1.918-.01v3.036c.512-.01 1.045-.01 1.547-.01l-.01-2.996 1.898-.01-.01 3.095zM19.514 24.5c1.55.033 4.934.105 4.953-2.033.018-2.178-3.252-2.126-4.854-2.1-.18.002-.338.005-.469.004l.01 4.123.36.006zm-.011-6.002c1.281.031 4.102.1 4.12-1.845.01-1.997-2.756-1.934-4.07-1.904-.137.003-.258.005-.358.005l.01 3.738c.085 0 .186.003.298.006z"
              fill="#62AAF4"/>
    </symbol>
    <symbol fill="none" viewBox="0 0 12 5" id="bonus-btn-corner" xmlns="http://www.w3.org/2000/svg">
        <path d="M12 5H0l3.879-3.879a3 3 0 014.242 0L12 5z" fill="#FB7C20"/>
    </symbol>
    <symbol fill="none" viewBox="0 0 24 24" id="bonus-icon" xmlns="http://www.w3.org/2000/svg">
        <path d="M20 12v10H4V12m18-5H2v5h20V7zM12 22V7m0 0H7.5a2.5 2.5 0 110-5C11 2 12 7 12 7zm0 0h4.5a2.5 2.5 0 000-5C13 2 12 7 12 7z"
              stroke="#D9D9D9" stroke-width="2" stroke-linecap="round" stroke-linejoin="round"/>
    </symbol>
    <symbol fill="none" viewBox="0 0 24 24" id="bonus-icon-active" xmlns="http://www.w3.org/2000/svg">
        <path d="M20 12v10H4V12m18-5H2v5h20V7zM12 22V7m0 0H7.5a2.5 2.5 0 110-5C11 2 12 7 12 7zm0 0h4.5a2.5 2.5 0 000-5C13 2 12 7 12 7z"
              stroke="#fff" stroke-width="2" stroke-linecap="round" stroke-linejoin="round"/>
    </symbol>
    <symbol fill="none" viewBox="0 0 60 60" id="btc-icon" xmlns="http://www.w3.org/2000/svg">
        <path d="M0 16C0 7.163 7.163 0 16 0h28c8.837 0 16 7.163 16 16v28c0 8.837-7.163 16-16 16H16C7.163 60 0 52.837 0 44V16z"
              fill="#F09730"/>
        <path d="M42.953 25.155c.607-4.06-2.483-6.241-6.709-7.696l1.37-5.499-3.346-.834-1.334 5.354c-.88-.22-1.784-.426-2.682-.631l1.344-5.39-3.345-.833-1.371 5.496a110.29 110.29 0 01-2.137-.502l.004-.017-4.616-1.153-.89 3.575s2.483.57 2.43.604c1.356.338 1.601 1.235 1.56 1.947l-1.561 6.263c.093.024.214.058.348.112l-.354-.088-2.189 8.775c-.165.412-.586 1.03-1.533.795.033.049-2.433-.607-2.433-.607l-1.661 3.831 4.355 1.086c.81.203 1.604.415 2.386.615l-1.385 5.562 3.343.834 1.372-5.502c.913.247 1.8.476 2.667.692l-1.367 5.476 3.347.834 1.385-5.55c5.707 1.08 9.998.644 11.805-4.518 1.455-4.157-.073-6.554-3.075-8.117 2.187-.504 3.834-1.943 4.273-4.914h-.001zm-7.647 10.722c-1.034 4.157-8.032 1.91-10.3 1.347l1.837-7.368c2.269.566 9.544 1.687 8.463 6.021zm1.035-10.783c-.944 3.78-6.768 1.86-8.657 1.39L29.35 19.8c1.89.471 7.974 1.35 6.991 5.294z"
              fill="#fff"/>
    </symbol>
    <symbol fill="none" viewBox="0 0 60 60" id="busd-icon" xmlns="http://www.w3.org/2000/svg">
        <path d="M0 18C0 8.059 8.059 0 18 0h24c9.941 0 18 8.059 18 18v24c0 9.941-8.059 18-18 18H18C8.059 60 0 51.941 0 42V18z"
              fill="#F0B90B"/>
        <path d="M30 11l4.708 4.806-11.854 11.819-4.708-4.694L30 11zm7.146 7.125l4.708 4.806-19 18.944-4.708-4.694 19-19.056zM15.707 25.25l4.708 4.806-4.707 4.694L11 30.056l4.707-4.806zm28.585 0L49 30.056 30 49l-4.707-4.694 19-19.056z"
              fill="#fff"/>
    </symbol>
    <symbol fill="none" viewBox="0 0 18 18" id="calendar" xmlns="http://www.w3.org/2000/svg">
        <path d="M1.439 12.4h11.485a.444.444 0 00.281-.1c.11-.091 2.627-2.226 2.78-6.833H3.651c-.153 4.182-2.47 6.148-2.495 6.167a.43.43 0 00-.13.481c.064.17.228.285.413.285zM15.56 2.867h-2.197v-.434a.432.432 0 00-.44-.433.432.432 0 00-.439.433v.434h-2.226v-.434A.432.432 0 009.818 2c-.246 0-.44.19-.44.433v.434H7.182v-.434A.432.432 0 006.741 2a.432.432 0 00-.439.433v.434H4.105c-.246 0-.44.19-.44.433v1.3H16V3.3a.432.432 0 00-.44-.433z"
              fill="#999"/>
        <path d="M13.77 12.964a1.334 1.334 0 01-.846.303H3.665v1.3c0 .24.197.433.44.433H15.56c.243 0 .44-.194.44-.433V9.709c-.847 2.05-2.03 3.09-2.23 3.255z"
              fill="#999"/>
    </symbol>
    <symbol fill="none" viewBox="0 0 16 16" id="calendar-select" xmlns="http://www.w3.org/2000/svg">
        <path d="M5.6 7.2H4v1.6h1.6V7.2zm3.2 0H7.2v1.6h1.6V7.2zm3.2 0h-1.6v1.6H12V7.2zm-6.4 3.2H4V12h1.6v-1.6zm3.2 0H7.2V12h1.6v-1.6zm3.2 0h-1.6V12H12v-1.6z"
              fill="#4785EF"/>
        <path d="M15.2 1.6h-1.6V.8c0-.48-.32-.8-.8-.8-.48 0-.8.32-.8.8v.8H4V.8c0-.48-.32-.8-.8-.8-.48 0-.8.32-.8.8v.8H.8c-.48 0-.8.32-.8.8v12.8c0 .48.32.8.8.8h14.4c.4 0 .8-.32.8-.8V2.4c0-.48-.4-.8-.8-.8zm-.8 12.8H1.6V4.8h12.8v9.6z"
              fill="#4785EF"/>
    </symbol>
    <symbol fill="none" viewBox="0 0 64 64" id="card" xmlns="http://www.w3.org/2000/svg">
        <path d="M53.333 13.333H10.666a5.333 5.333 0 00-5.333 5.334v26.666a5.333 5.333 0 005.333 5.334h42.667a5.333 5.333 0 005.333-5.334V18.667a5.333 5.333 0 00-5.333-5.334zm-48 24h53.333"
              stroke="#FB7C20" stroke-width="2" stroke-linecap="square"/>
    </symbol>
    <symbol fill="none" viewBox="0 0 13 10" id="check" xmlns="http://www.w3.org/2000/svg">
        <path d="M12.124.293a1 1 0 010 1.414L4.79 9.04a1 1 0 01-1.415 0l-2.5-2.5A1 1 0 112.29 5.126L4.083 6.92 10.71.293a1 1 0 011.414 0z"
              fill="#fff"/>
    </symbol>
    <symbol fill="none" viewBox="0 0 60 60" id="chf-icon" xmlns="http://www.w3.org/2000/svg">
        <rect width="60" height="60" rx="8" fill="#F44848"/>
        <path d="M35.1 13H24.9v11.9H13v10.2h11.9V47h10.2V35.1H47V24.9H35.1V13z" fill="#fff"/>
    </symbol>
    <symbol fill="none" viewBox="0 0 40 40" id="choice-advisor" xmlns="http://www.w3.org/2000/svg">
        <path d="M33.333 35v-3.333A6.667 6.667 0 0026.666 25H13.333a6.667 6.667 0 00-6.667 6.667V35M20 18.333A6.667 6.667 0 1020 5a6.667 6.667 0 000 13.333z"
              stroke="#FBC920" stroke-width="2" stroke-linecap="round" stroke-linejoin="round"/>
    </symbol>
    <symbol fill="none" viewBox="0 0 40 40" id="choice-calendar" xmlns="http://www.w3.org/2000/svg">
        <path d="M31.667 6.667H8.333A3.333 3.333 0 005 10v23.333a3.333 3.333 0 003.333 3.334h23.334A3.333 3.333 0 0035 33.333V10a3.333 3.333 0 00-3.333-3.333zm-5.001-3.334V10M13.334 3.333V10M5 16.667h30"
              stroke="#FBC920" stroke-width="2" stroke-linecap="round" stroke-linejoin="round"/>
    </symbol>
    <symbol fill="none" viewBox="0 0 40 40" id="choice-clock" xmlns="http://www.w3.org/2000/svg">
        <path d="M20 36.667c9.205 0 16.667-7.462 16.667-16.667 0-9.205-7.462-16.667-16.666-16.667-9.205 0-16.667 7.462-16.667 16.667 0 9.205 7.462 16.667 16.667 16.667z"
              stroke="#FBC920" stroke-width="2" stroke-linecap="round" stroke-linejoin="round"/>
        <path d="M20 10v10l6.667 3.333" stroke="#FBC920" stroke-width="2" stroke-linecap="round"
              stroke-linejoin="round"/>
    </symbol>
    <symbol fill="none" viewBox="0 0 40 40" id="choice-copy" xmlns="http://www.w3.org/2000/svg">
        <path d="M33.333 15h-15A3.333 3.333 0 0015 18.333v15a3.333 3.333 0 003.333 3.334h15a3.333 3.333 0 003.334-3.334v-15A3.333 3.333 0 0033.333 15z"
              stroke="#FBC920" stroke-width="2" stroke-linecap="round" stroke-linejoin="round"/>
        <path d="M8.334 25H6.667a3.333 3.333 0 01-3.333-3.333v-15a3.333 3.333 0 013.333-3.334h15a3.333 3.333 0 013.334 3.334v1.666"
              stroke="#FBC920" stroke-width="2" stroke-linecap="round" stroke-linejoin="round"/>
    </symbol>
    <symbol fill="none" viewBox="0 0 24 25" id="choice-exchange" xmlns="http://www.w3.org/2000/svg">
        <path d="M21 6.5v3.85h-4.331c-.622 0-1.125-.448-1.125-1s.503-1 1.125-1h.86C16.285 6.767 14.25 5.8 12 5.8c-2.8 0-5.268 1.497-6.288 3.814-.227.515-.88.768-1.458.567-.579-.201-.864-.781-.638-1.296.653-1.482 1.778-2.747 3.253-3.658C8.379 4.293 10.154 3.8 12 3.8s3.62.493 5.131 1.427c.6.37 1.143.8 1.619 1.28V6.5c0-.552.504-1 1.125-1S21 5.948 21 6.5zm-1.254 8.919c-.579-.202-1.231.052-1.458.566C17.268 18.303 14.8 19.8 12 19.8c-2.202 0-4.2-.927-5.448-2.45h.78c.62 0 1.124-.448 1.124-1 0-.553-.503-1-1.125-1H3v3.85c0 .552.504 1 1.125 1s1.125-.448 1.125-1v-.107a8.803 8.803 0 001.619 1.28c1.51.933 3.285 1.427 5.131 1.427s3.62-.494 5.131-1.427c1.476-.912 2.6-2.177 3.253-3.659.226-.514-.06-1.094-.638-1.295z"
              fill="#4785EF"/>
        <circle cx="12" cy="12.8" r="2" fill="#4785EF"/>
    </symbol>
    <symbol fill="none" viewBox="0 0 24 24" id="choice-exchange-xs" xmlns="http://www.w3.org/2000/svg">
        <path d="M21 5.7v3.85h-4.331c-.622 0-1.125-.448-1.125-1s.503-1 1.125-1h.86C16.285 5.967 14.25 5 12 5 9.2 5 6.732 6.497 5.712 8.814c-.227.515-.88.768-1.458.567-.579-.201-.864-.781-.638-1.295.653-1.482 1.778-2.747 3.253-3.659C8.379 3.493 10.154 3 12 3s3.62.493 5.131 1.427c.6.371 1.143.8 1.619 1.28V5.7c0-.552.504-1 1.125-1S21 5.148 21 5.7zm-1.254 8.919c-.579-.201-1.231.052-1.458.567C17.268 17.503 14.8 19 12 19c-2.202 0-4.2-.927-5.448-2.45h.78c.62 0 1.124-.448 1.124-1s-.503-1-1.125-1H3v3.85c0 .552.504 1 1.125 1s1.125-.448 1.125-1v-.106a8.803 8.803 0 001.619 1.279C8.379 20.506 10.154 21 12 21s3.62-.494 5.131-1.427c1.476-.912 2.6-2.177 3.253-3.659.226-.514-.06-1.094-.638-1.295z"
              fill="#FBC920"/>
        <circle cx="12" cy="12" r="2" fill="#FBC920"/>
    </symbol>
    <symbol fill="none" viewBox="0 0 24 25" id="choice-interest" xmlns="http://www.w3.org/2000/svg">
        <path d="M12 2.6a10 10 0 1010 10 10.012 10.012 0 00-10-10zm0 18.181a8.181 8.181 0 118.182-8.181A8.191 8.191 0 0112 20.78z"
              fill="#4785EF"/>
        <path d="M16.28 8.32a.91.91 0 00-1.286 0L7.72 15.594a.91.91 0 101.285 1.286l7.273-7.273a.91.91 0 000-1.285zm-7.462 2.916a1.818 1.818 0 100-3.637 1.818 1.818 0 000 3.637zm6.364 6.364a1.818 1.818 0 100-3.637 1.818 1.818 0 000 3.637z"
              fill="#4785EF"/>
    </symbol>
    <symbol fill="none" viewBox="0 0 24 24" id="choice-interest-xs" xmlns="http://www.w3.org/2000/svg">
        <path d="M12 2a10 10 0 1010 10A10.012 10.012 0 0012 2zm0 18.182A8.181 8.181 0 1120.182 12 8.191 8.191 0 0112 20.182z"
              fill="#FBC920"/>
        <path d="M16.28 7.72a.91.91 0 00-1.286 0L7.72 14.995a.91.91 0 101.285 1.285l7.273-7.273a.91.91 0 000-1.285zm-7.462 2.916a1.818 1.818 0 100-3.636 1.818 1.818 0 000 3.636zM15.182 17a1.818 1.818 0 100-3.636 1.818 1.818 0 000 3.636z"
              fill="#FBC920"/>
    </symbol>
    <symbol fill="none" viewBox="0 0 24 25" id="choice-loans" xmlns="http://www.w3.org/2000/svg">
        <path d="M12 2.4a10 10 0 1010 10 10.012 10.012 0 00-10-10zm0 18.182a8.182 8.182 0 118.182-8.182A8.191 8.191 0 0112 20.582z"
              fill="#4785EF"/>
        <path d="M14.313 12.89c-.55-.575-1.1-.797-2.3-1.332-.5-.222-.925-.431-1.126-.77a1.12 1.12 0 01-.162-.601c0-.3.1-.588.3-.784.225-.26.575-.418.938-.418.45 0 .8.262 1.037.588.162.274.238.535.238.81h1.587a2.955 2.955 0 00-.575-1.724 2.722 2.722 0 00-1.5-1.058V6.4h-1.5v1.175a2.74 2.74 0 00-1.3.68c-.5.47-.813 1.227-.813 1.945 0 .548.188 1.11.45 1.475.376.536.876.862 1.338 1.097.637.366 1.412.549 2.012.993.376.26.476.509.476.835 0 .392-.138.666-.413.875-.287.235-.7.314-1.025.314-.487 0-.912-.275-1.188-.706-.175-.235-.262-.6-.262-.848H9c0 .626.175 1.188.5 1.697.375.653 1.012 1.084 1.75 1.267V18.4h1.5v-1.188a2.943 2.943 0 001.012-.366C14.55 16.39 15 15.488 15 14.652c0-.705-.225-1.28-.688-1.762z"
              fill="#4785EF"/>
    </symbol>
    <symbol fill="none" viewBox="0 0 24 24" id="choice-loans-xs" xmlns="http://www.w3.org/2000/svg">
        <path d="M12 2a10 10 0 1010 10A10.012 10.012 0 0012 2zm0 18.182A8.181 8.181 0 1120.182 12 8.191 8.191 0 0112 20.182z"
              fill="#FBC920"/>
        <path d="M14.313 12.49c-.55-.575-1.1-.797-2.3-1.332-.5-.222-.925-.431-1.126-.77a1.12 1.12 0 01-.162-.601c0-.3.1-.588.3-.784.225-.26.575-.418.938-.418.45 0 .8.262 1.037.588.162.274.238.535.238.81h1.587a2.955 2.955 0 00-.575-1.724 2.722 2.722 0 00-1.5-1.058V6h-1.5v1.175a2.74 2.74 0 00-1.3.68c-.5.47-.813 1.227-.813 1.945 0 .548.188 1.11.45 1.475.376.536.876.862 1.338 1.097.637.366 1.412.549 2.012.992.376.262.476.51.476.836 0 .392-.138.666-.413.875-.287.235-.7.314-1.025.314-.487 0-.912-.275-1.188-.706-.175-.235-.262-.6-.262-.848H9c0 .626.175 1.188.5 1.697.375.653 1.012 1.084 1.75 1.267V18h1.5v-1.188a2.94 2.94 0 001.012-.366C14.55 15.99 15 15.088 15 14.252c0-.705-.225-1.28-.688-1.762z"
              fill="#FBC920"/>
    </symbol>
    <symbol fill="none" viewBox="0 0 40 40" id="choice-no-comission" xmlns="http://www.w3.org/2000/svg">
        <path d="M28.975 22.05a1.025 1.025 0 110-2.05 1.025 1.025 0 010 2.05zM19 2c2.206 0 4 1.794 4 4s-1.794 4-4 4-4-1.794-4-4 1.794-4 4-4zm0 6c1.103 0 2-.897 2-2s-.897-2-2-2-2 .897-2 2 .897 2 2 2z"
              fill="#FBC920"/>
        <path d="M2.025 16c.567 0 .975.434.975 1v1.203c0 .685.391 1.323.962 1.705.287.193.84.453 1.579.302C6.898 15.503 11.243 12 16.38 12h8.851c.285 0 .553-.068.736-.275A5.107 5.107 0 0129.797 10h3.076a1.025 1.025 0 01.997 1.267l-1.039 4.277a11.207 11.207 0 011.888 2.66h.205A3.08 3.08 0 0138 21.278v4.04a3.08 3.08 0 01-1.302 2.512l-1.808 1.277c-.635 1.358-1.369 2.899-2.486 3.913-.151.137-.404.425-.404.813v2.417A1.75 1.75 0 0130.251 38h-3.553C25.734 38 25 37.216 25 36.251V36h-9v.284c0 .964-.734 1.716-1.698 1.716h-3.648C9.69 38 9 37.121 9 36.157v-1.552c0-.795-.416-1.469-1-2.069-1.136-1.167-1.724-2.933-2.262-4.462-.422-1.201-.636-2.46-.636-4.744 0-.346.016-.688.047-1.025h-.053A4.098 4.098 0 011 18.203v-1.202c0-.566.46-1 1.025-1zm5.648 11.393c.44 1.251.866 2.757 1.797 3.713.958.985 1.53 2.261 1.53 3.594V36h3v-3.094c0-.567.46-1.026 1.025-1.026.567 0 .975.46.975 1.026V34h9v-1.127c0-.566.408-1.025.975-1.025.566 0 1.025.459 1.025 1.025V36h3v-2.166c0-.873.331-1.7 1.025-2.33.96-.873 1.589-2.3 2.106-3.483.075-.171.195-.319.348-.427l2.036-1.438c.272-.192.485-.505.485-.837v-4.04c0-.565-.51-1.025-1.076-1.025-.821 0-1.07.028-1.307-.106-.15-.06-.371-.248-.485-.507l-.001-.002-.001-.002a9.195 9.195 0 00-2.124-3.016l-.01-.01-.03-.03a1.025 1.025 0 01-.26-.979L31.57 12h-1.772c-.878 0-1.713.427-2.291 1.082-.572.648-1.4.918-2.274.918h-8.851c-5.089 0-9.229 4.241-9.229 9.33 0 2.051.175 3.082.52 4.063z"
              fill="#FBC920"/>
        <path d="M15.898 17h6.204c.496 0 .898.448.898 1s-.402 1-.898 1h-6.204c-.496 0-.898-.448-.898-1s.402-1 .898-1z"
              fill="#FBC920"/>
    </symbol>
    <symbol fill="none" viewBox="0 0 40 40" id="choice-secured" xmlns="http://www.w3.org/2000/svg">
        <path d="M20 36.667S33.332 30 33.332 20V8.333l-13.334-5-13.333 5V20c0 10 13.333 16.667 13.333 16.667z"
              stroke="#FBC920" stroke-width="2" stroke-linecap="round" stroke-linejoin="round"/>
    </symbol>
    <symbol fill="none" viewBox="0 0 40 40" id="choice-support" xmlns="http://www.w3.org/2000/svg">
        <path d="M5 30V20a15 15 0 1130 0v10" stroke="#FBC920" stroke-width="2" stroke-linecap="round"
              stroke-linejoin="round"/>
        <path d="M35 31.667A3.333 3.333 0 0131.667 35H30a3.333 3.333 0 01-3.333-3.333v-5A3.333 3.333 0 0130 23.333h5v8.334zm-30 0A3.333 3.333 0 008.333 35H10a3.333 3.333 0 003.333-3.333v-5A3.333 3.333 0 0010 23.333H5v8.334z"
              stroke="#FBC920" stroke-width="2" stroke-linecap="round" stroke-linejoin="round"/>
    </symbol>
    <symbol fill="none" viewBox="0 0 40 40" id="choice-traders" xmlns="http://www.w3.org/2000/svg">
        <path d="M28.333 35v-3.333A6.667 6.667 0 0021.666 25H8.333a6.667 6.667 0 00-6.667 6.667V35M15 18.333A6.667 6.667 0 1015 5a6.667 6.667 0 000 13.333zM38.334 35v-3.333a6.667 6.667 0 00-5-6.45m-6.668-20a6.666 6.666 0 010 12.916"
              stroke="#FBC920" stroke-width="2" stroke-linecap="round" stroke-linejoin="round"/>
    </symbol>
    <symbol fill="none" viewBox="0 0 24 25" id="choice-trading" xmlns="http://www.w3.org/2000/svg">
        <path fill-rule="evenodd" clip-rule="evenodd"
              d="M3.176 6.2A2.825 2.825 0 016 3.375h12A2.825 2.825 0 0120.826 6.2v10h-1.65v-10c0-.649-.526-1.175-1.175-1.175H6c-.65 0-1.175.526-1.175 1.175v10h-1.65v-10z"
              fill="#4785EF"/>
        <path fill-rule="evenodd" clip-rule="evenodd"
              d="M13.604 6.345l2.155 5.03a.825.825 0 11-1.516.65l-.845-1.97-2.737 4.831-2.381-4.285a.825.825 0 111.442-.802l.953 1.715 2.929-5.169zM20 19.55H4a1.35 1.35 0 01-1.35-1.35v-.35h18.7v.35A1.35 1.35 0 0120 19.55zM4 21.2a3 3 0 01-3-3v-2h22v2a3 3 0 01-3 3H4z"
              fill="#4785EF"/>
    </symbol>
    <symbol fill="none" viewBox="0 0 24 24" id="choice-trading-xs" xmlns="http://www.w3.org/2000/svg">
        <path fill-rule="evenodd" clip-rule="evenodd"
              d="M3.176 6A2.825 2.825 0 016 3.175h12A2.825 2.825 0 0120.826 6v10h-1.65V6c0-.649-.526-1.175-1.175-1.175H6c-.65 0-1.175.526-1.175 1.175v10h-1.65V6z"
              fill="#FBC920"/>
        <path fill-rule="evenodd" clip-rule="evenodd"
              d="M13.604 6.145l2.155 5.03a.825.825 0 11-1.516.65l-.845-1.97-2.737 4.831-2.381-4.285a.825.825 0 011.442-.802l.953 1.715 2.929-5.169zM20 19.35H4A1.35 1.35 0 012.65 18v-.35h18.7V18A1.35 1.35 0 0120 19.35zM4 21a3 3 0 01-3-3v-2h22v2a3 3 0 01-3 3H4z"
              fill="#FBC920"/>
    </symbol>
    <symbol fill="none" viewBox="0 0 24 24" id="choice-wallets" xmlns="http://www.w3.org/2000/svg">
        <path d="M21.181 11.266V7.5a.895.895 0 00-.266-.636.914.914 0 00-.643-.264H5.727a.914.914 0 01-.643-.264.896.896 0 010-1.272.914.914 0 01.643-.264h14.545a.914.914 0 00.643-.264.895.895 0 000-1.272.914.914 0 00-.643-.264H5.727a2.74 2.74 0 00-1.928.79A2.686 2.686 0 003 5.7v12.6c0 .716.287 1.403.799 1.91.511.505 1.205.79 1.928.79h14.545a.914.914 0 00.643-.264.895.895 0 00.266-.636v-3.766a2.709 2.709 0 001.318-.98 2.666 2.666 0 000-3.108 2.709 2.709 0 00-1.318-.98zM19.363 19.2H5.727a.914.914 0 01-.643-.264.896.896 0 01-.266-.636V8.234c.291.107.599.163.91.166h13.635v2.7h-2.727c-.723 0-1.417.284-1.929.79a2.686 2.686 0 00-.798 1.91c0 .716.287 1.403.798 1.91.512.505 1.205.79 1.929.79h2.727v2.7zm.909-4.5h-3.636a.914.914 0 01-.643-.264.895.895 0 010-1.272.914.914 0 01.643-.264h3.636c.241 0 .472.095.643.264a.895.895 0 010 1.272.914.914 0 01-.643.264z"
              fill="#4785EF"/>
    </symbol>
    <symbol fill="none" viewBox="0 0 24 24" id="choice-wallets-xs" xmlns="http://www.w3.org/2000/svg">
        <path d="M21.181 11.266V7.5a.895.895 0 00-.266-.636.914.914 0 00-.643-.264H5.727a.914.914 0 01-.643-.264.896.896 0 010-1.272.914.914 0 01.643-.264h14.545a.914.914 0 00.643-.264.895.895 0 000-1.272.914.914 0 00-.643-.264H5.727a2.74 2.74 0 00-1.928.79A2.686 2.686 0 003 5.7v12.6c0 .716.287 1.403.799 1.91.511.505 1.205.79 1.928.79h14.545a.914.914 0 00.643-.264.895.895 0 00.266-.636v-3.766a2.709 2.709 0 001.318-.98 2.666 2.666 0 000-3.108 2.709 2.709 0 00-1.318-.98zM19.363 19.2H5.727a.914.914 0 01-.643-.264.896.896 0 01-.266-.636V8.234c.291.107.599.163.91.166h13.635v2.7h-2.727c-.723 0-1.417.284-1.929.79a2.686 2.686 0 00-.798 1.91c0 .716.287 1.403.798 1.91.512.505 1.205.79 1.929.79h2.727v2.7zm.909-4.5h-3.636a.914.914 0 01-.643-.264.895.895 0 010-1.272.914.914 0 01.643-.264h3.636c.241 0 .472.095.643.264a.895.895 0 010 1.272.914.914 0 01-.643.264z"
              fill="#FBC920"/>
    </symbol>
    <symbol fill="none" viewBox="0 0 40 40" id="choice-wide-range" xmlns="http://www.w3.org/2000/svg">
        <path d="M20 1.667v36.666m8.333-30h-12.5a5.833 5.833 0 000 11.667h8.334a5.833 5.833 0 010 11.667H10"
              stroke="#FBC920" stroke-width="2" stroke-linecap="round" stroke-linejoin="round"/>
    </symbol>
    <symbol fill="none" viewBox="0 0 30 30" id="clock" xmlns="http://www.w3.org/2000/svg">
        <path d="M15 2C7.833 2 2 7.832 2 15s5.832 13 13 13c7.169 0 13-5.832 13-13S22.17 2 15 2zm0 23.262C9.343 25.262 4.739 20.658 4.739 15c0-5.659 4.604-10.262 10.263-10.262 5.658 0 10.262 4.603 10.262 10.262 0 5.658-4.604 10.262-10.262 10.262z"
              fill="#6691FF"/>
        <path d="M20.421 15.144h-5.33v-4.616a1.369 1.369 0 10-2.737 0v5.985c0 .756.613 1.37 1.369 1.37h6.698a1.369 1.369 0 100-2.739z"
              fill="#6691FF"/>
    </symbol>
    <symbol fill="none" viewBox="0 0 12 5" id="corner" xmlns="http://www.w3.org/2000/svg">
        <path d="M0 0h12L8.121 3.879a3 3 0 01-4.242 0L0 0z" fill="#fff"/>
    </symbol>
    <symbol fill="none" viewBox="0 0 60 60" id="dai-icon" xmlns="http://www.w3.org/2000/svg">
        <path d="M0 18C0 8.059 8.059 0 18 0h24c9.941 0 18 8.059 18 18v24c0 9.941-8.059 18-18 18H18C8.059 60 0 51.941 0 42V18z"
              fill="#F5AC37"/>
        <path d="M31.358 31.655h8.72c.185 0 .273 0 .286-.249.071-.903.071-1.813 0-2.717 0-.176-.085-.249-.272-.249H22.74c-.215 0-.273.073-.273.278v2.601c0 .336 0 .336.344.336h8.547zm8.033-6.254a.29.29 0 000-.204 5.808 5.808 0 00-.519-.921 7.442 7.442 0 00-1.061-1.36 3.548 3.548 0 00-.66-.657 10.239 10.239 0 00-4.303-2.221c-.8-.183-1.618-.27-2.438-.263h-7.7c-.215 0-.244.087-.244.277v5.188c0 .219 0 .277.272.277h16.55s.143-.03.172-.116h-.07zm0 9.293a3.28 3.28 0 00-.734 0H22.754c-.215 0-.287 0-.287.293v5.072c0 .233 0 .292.287.292h7.342c.352.027.703.002 1.046-.073a10.76 10.76 0 003.114-.701 5.656 5.656 0 001.046-.497h.1a9.41 9.41 0 004-4.105s.101-.22-.011-.278v-.003zM19.585 42.98V34.9c0-.19 0-.22-.23-.22h-3.111c-.173 0-.244 0-.244-.233V31.67h3.327c.186 0 .258 0 .258-.248v-2.747c0-.176 0-.219-.23-.219h-3.111c-.173 0-.244 0-.244-.233V25.65c0-.161 0-.204.23-.204h3.082c.215 0 .273 0 .273-.278v-7.877c0-.233 0-.292.287-.292h10.755c.78.032 1.556.119 2.323.263 1.581.298 3.1.873 4.489 1.695.921.553 1.769 1.22 2.523 1.988.568.6 1.08 1.25 1.535 1.943.451.702.826 1.452 1.12 2.236a.374.374 0 00.429.307h2.567c.33 0 .33 0 .343.322v2.397c0 .234-.085.293-.315.293h-1.98c-.2 0-.258 0-.244.262.079.89.079 1.784 0 2.674 0 .248 0 .278.274.278h2.264c.1.131 0 .263 0 .395.015.17.015.341 0 .51v1.77c0 .248-.07.322-.287.322h-2.71a.359.359 0 00-.416.277 11.694 11.694 0 01-3.012 4.472c-.488.447-1 .868-1.535 1.256-.574.337-1.132.687-1.72.965a15.296 15.296 0 01-3.386 1.096 17.298 17.298 0 01-3.355.277H19.58v-.014l.004-.004z"
              fill="#fff"/>
    </symbol>
    <symbol fill="none" viewBox="0 0 40 40" id="deposit-info" xmlns="http://www.w3.org/2000/svg">
        <circle cx="20" cy="20" r="20" fill="#D1EAFF"/>
        <path d="M20 8a2 2 0 00-2 2v14.75a2 2 0 104 0V10a2 2 0 00-2-2zm-.073 21.146a1.927 1.927 0 000 3.854h.146a1.927 1.927 0 000-3.854h-.146z"
              fill="#4785EF"/>
    </symbol>
    <symbol fill="none" viewBox="0 0 60 60" id="dot-icon" xmlns="http://www.w3.org/2000/svg">
        <rect width="60" height="60" rx="8" fill="#E6007A"/>
        <path d="M36.74 14.912c0 2.157-3.026 3.911-6.75 3.911s-6.75-1.754-6.75-3.911S26.278 11 29.99 11c3.713 0 6.75 1.755 6.75 3.912zm0 30.176c0 2.157-3.026 3.912-6.75 3.912s-6.75-1.755-6.75-3.912 3.038-3.912 6.75-3.912c3.713 0 6.75 1.755 6.75 3.912zM20.26 24.58c1.912-3.274 1.924-6.817.045-7.89-1.89-1.084-4.95.704-6.863 3.979-1.912 3.274-1.912 6.817-.045 7.89 1.89 1.073 4.95-.704 6.863-3.979zm26.302 6.852c1.89 1.061 1.88 4.537-.022 7.756-1.913 3.219-4.984 4.962-6.863 3.9-1.9-1.061-1.89-4.537.012-7.756 1.912-3.219 4.983-4.962 6.873-3.9zM20.315 43.11c1.89-1.062 1.879-4.538-.034-7.757-1.9-3.218-4.972-4.962-6.862-3.9-1.901 1.073-1.89 4.538.022 7.756 1.902 3.22 4.973 4.974 6.863 3.912l.011-.011zm26.246-22.431c1.913 3.274 1.913 6.806.034 7.88-1.879 1.083-4.95-.694-6.862-3.98-1.89-3.274-1.913-6.806-.034-7.879 1.89-1.084 4.95.693 6.862 3.979z"
              fill="#fff"/>
    </symbol>
    <symbol fill="none" viewBox="0 0 52 52" id="download" xmlns="http://www.w3.org/2000/svg">
        <path d="M45.5 32.5v8.667a4.333 4.333 0 01-4.333 4.333H10.833A4.333 4.333 0 016.5 41.167V32.5m8.668-10.833L26.001 32.5l10.834-10.833M26 32.5v-26"
              stroke="#E9BB1E" stroke-width="3" stroke-linecap="round" stroke-linejoin="round"/>
    </symbol>
    <symbol fill="none" viewBox="0 0 60 60" id="eth-icon" xmlns="http://www.w3.org/2000/svg">
        <path d="M0 18C0 8.059 8.059 0 18 0h24c9.941 0 18 8.059 18 18v24c0 9.941-8.059 18-18 18H18C8.059 60 0 51.941 0 42V18z"
              fill="#BDBDBD"/>
        <path d="M30.494 8l-.289.98v28.432l.289.288 13.197-7.801L30.494 8z" fill="#E0E0E0"/>
        <path d="M30.491 8L17.293 29.899 30.491 37.7V8z" fill="#fff"/>
        <path d="M30.494 40.2l-.163.198v10.128l.163.474 13.205-18.598L30.494 40.2z" fill="#E0E0E0"/>
        <path d="M30.491 51V40.2l-13.198-7.798 13.198 18.599zm-.001-13.3l13.197-7.802L30.489 23.9v13.8z" fill="#fff"/>
        <path d="M17.293 29.898L30.491 37.7V23.9l-13.198 5.998z" fill="#E0E0E0"/>
    </symbol>
    <symbol fill="none" viewBox="0 0 60 60" id="eur-icon" xmlns="http://www.w3.org/2000/svg">
        <path d="M0 18C0 8.059 8.059 0 18 0h24c9.941 0 18 8.059 18 18v24c0 9.941-8.059 18-18 18H18C8.059 60 0 51.941 0 42V18z"
              fill="#2454FF"/>
        <path d="M37.459 18.072l-1.037 4.87c-.996-.997-2.45-1.495-4.36-1.495-1.91 0-3.456.686-4.64 2.057-.668.773-1.143 1.74-1.424 2.9h9.668l-.563 2.725h-9.457a26.261 26.261 0 00.018 2.32h8.947l-.562 2.725h-8.016c.293 1.254.744 2.238 1.354 2.953 1.172 1.383 2.695 2.074 4.57 2.074 2.25 0 4.043-.691 5.379-2.074v5.379c-1.523.762-3.299 1.142-5.326 1.142-3.422 0-6.235-1.171-8.438-3.515-1.5-1.594-2.49-3.58-2.97-5.96H18l.563-2.724h1.722a25.34 25.34 0 01.018-2.32H18l.563-2.725h2.091c.492-2.332 1.471-4.283 2.936-5.853C25.805 18.184 28.717 17 32.326 17c1.969 0 3.68.357 5.133 1.072z"
              fill="#fff"/>
    </symbol>
    <symbol fill="none" viewBox="0 0 24 25" id="exchange" xmlns="http://www.w3.org/2000/svg">
        <path d="M21 6.5v3.85h-4.331c-.622 0-1.125-.448-1.125-1s.503-1 1.125-1h.86C16.285 6.767 14.25 5.8 12 5.8c-2.8 0-5.268 1.497-6.288 3.815-.227.514-.88.768-1.458.566-.579-.201-.864-.781-.638-1.295.653-1.482 1.778-2.747 3.253-3.659C8.379 4.294 10.154 3.8 12 3.8s3.62.494 5.131 1.427c.6.371 1.143.8 1.619 1.28V6.5c0-.552.504-1 1.125-1S21 5.948 21 6.5zm-1.254 8.919c-.579-.202-1.231.052-1.458.567C17.268 18.303 14.8 19.8 12 19.8c-2.202 0-4.2-.927-5.448-2.45h.78c.62 0 1.124-.448 1.124-1s-.503-1-1.125-1H3v3.85c0 .552.504 1 1.125 1s1.125-.448 1.125-1v-.106a8.802 8.802 0 001.619 1.279c1.51.934 3.285 1.427 5.131 1.427s3.62-.493 5.131-1.427c1.476-.912 2.6-2.177 3.253-3.659.226-.514-.06-1.094-.638-1.295z"
              fill="#BFBFBF"/>
        <circle cx="12" cy="12.8" r="2" fill="#BFBFBF"/>
    </symbol>
    <symbol fill="none" viewBox="0 0 24 24" id="exchange-xs" xmlns="http://www.w3.org/2000/svg">
        <path d="M21 5.7v3.85h-4.331c-.622 0-1.125-.448-1.125-1s.503-1 1.125-1h.86C16.285 5.967 14.25 5 12 5 9.2 5 6.732 6.497 5.712 8.814c-.227.515-.88.768-1.458.567-.579-.201-.864-.781-.638-1.295.653-1.482 1.778-2.747 3.253-3.659C8.379 3.493 10.154 3 12 3s3.62.493 5.131 1.427c.6.371 1.143.8 1.619 1.28V5.7c0-.552.504-1 1.125-1S21 5.148 21 5.7zm-1.254 8.919c-.579-.201-1.231.052-1.458.567C17.268 17.503 14.8 19 12 19c-2.202 0-4.2-.927-5.448-2.45h.78c.62 0 1.124-.448 1.124-1s-.503-1-1.125-1H3v3.85c0 .552.504 1 1.125 1s1.125-.448 1.125-1v-.106a8.803 8.803 0 001.619 1.279C8.379 20.506 10.154 21 12 21s3.62-.494 5.131-1.427c1.476-.912 2.6-2.177 3.253-3.659.226-.514-.06-1.094-.638-1.295z"
              fill="#7DADFF"/>
        <circle cx="12" cy="12" r="2" fill="#7DADFF"/>
    </symbol>
    <symbol fill="none" viewBox="0 0 24 25" id="fb" xmlns="http://www.w3.org/2000/svg">
        <circle cx="12" cy="12.428" r="12" fill="#5D94F1"/>
        <path d="M13.886 7.619H15.2v-2.29a16.972 16.972 0 00-1.915-.101c-1.895 0-3.194 1.192-3.194 3.383v2.016H8v2.56h2.091v6.44h2.565v-6.44h2.006l.319-2.559h-2.326V8.865c0-.74.2-1.246 1.23-1.246z"
              fill="#fff"/>
    </symbol>
    <symbol fill="none" viewBox="0 0 18 18" id="filter-icon" xmlns="http://www.w3.org/2000/svg">
        <path stroke="#4785EF" d="M3 5.5h12"/>
        <path stroke="#4785EF" stroke-width="3" d="M5 5.5h3m2 4h3m-8 4h3"/>
        <path stroke="#4785EF" d="M3 9.5h12m-12 4h12"/>
    </symbol>
    <symbol fill="none" viewBox="0 0 88 20" id="finteria" xmlns="http://www.w3.org/2000/svg">
        <path d="M68.467 0h4.102v1.88c-1.51.565-2.999 1.35-4.102 2.588V0zM5.04.279C5.809.052 6.624.057 7.41.172a9.702 9.702 0 012.474.746l-.741 3.186c-.584-.249-1.208-.418-1.842-.424-.384-.002-.792.11-1.059.412-.316.351-.412.848-.436 1.313-.014.51-.002 1.021-.006 1.531 1.037.003 2.074 0 3.111.001v3.217H5.8v9.578H1.71v-9.577H0V6.937h1.71c.008-.779-.032-1.563.078-2.337.143-1.046.498-2.085 1.151-2.907A4.157 4.157 0 015.04.279zm6.756.08h4.09V4.21h-4.09V.359zM34.633 1.37h4.089v4.428h2.732v3.213h-2.732v5.816c.002.332.058.697.291.945.25.264.618.365.966.344.598-.019 1.167-.245 1.704-.502l.792 3.373c-.79.34-1.605.622-2.439.822-1.098.235-2.27.295-3.344-.088a2.932 2.932 0 01-1.698-1.564c-.279-.592-.361-1.261-.361-1.914V9.01h-1.705c-.004-1.07 0-2.141-.002-3.212h1.707V1.37zm35.946 2.694c.602-.446 1.267-.82 1.99-1.002 0 5.588.002 11.176-.002 16.764h-4.09v-9.792c-.005-1.305.011-2.61-.01-3.914.627-.764 1.324-1.472 2.112-2.056zm8.926 1.394a10.737 10.737 0 013.091.089c.923.172 1.831.515 2.588 1.102a4.606 4.606 0 011.379 1.733c.4.87.545 1.844.55 2.802.003 1.232 0 2.464 0 3.696.009.282.027.592.199.824.166.214.443.258.688.307v3.566a6.846 6.846 0 01-1.78.22c-.474-.001-.96-.052-1.398-.254a1.856 1.856 0 01-.897-.918c-.187-.382-.212-.816-.261-1.233-.38.494-.814.946-1.31 1.312-1.383 1.037-3.213 1.413-4.864.957-.808-.227-1.57-.672-2.132-1.323a4.353 4.353 0 01-1.073-2.527c-.08-.928.12-1.892.626-2.67.559-.886 1.441-1.505 2.383-1.88 1.003-.405 2.094-.528 3.164-.478.876.047 1.763.187 2.567.568-.001-.59.037-1.207-.199-1.76a1.856 1.856 0 00-.866-.95c-.414-.217-.88-.3-1.34-.324a5.782 5.782 0 00-2.343.37c-.752.288-1.453.701-2.118 1.163-.4-.887-.805-1.772-1.2-2.66 1.362-.926 2.922-1.553 4.546-1.732zm-.481 8.099c-.36.216-.678.538-.813.954-.16.5-.093 1.086.217 1.508.306.42.79.678 1.288.747a3.5 3.5 0 002.47-.633c.359-.293.786-.625.833-1.136.015-.47.002-.94.005-1.41a6.975 6.975 0 00-1.828-.425c-.737-.069-1.521-.003-2.172.395zm-53.67-7.674c.799-.264 1.641-.364 2.477-.348.561.013 1.131.095 1.65.33a3.476 3.476 0 011.643 1.67c.457.92.546 1.976.587 2.995.005 3.068 0 6.135.002 9.202h-4.085V12.54c0-.698.03-1.418-.202-2.085a1.75 1.75 0 00-.783-.974c-.488-.271-1.084-.252-1.593-.057-.948.377-1.726 1.183-2.109 2.159-.083.18-.052.384-.056.577v7.571c-1.363.002-2.727.003-4.09 0V5.798h3.68v2.325c.643-1.094 1.713-1.862 2.88-2.24zm22.33.084c1.068-.39 2.226-.48 3.345-.333a6.345 6.345 0 013.053 1.281c.672.528 1.284 1.155 1.726 1.906.406.694.72 1.44 1.02 2.189-2.824 1.503-5.648 3.007-8.472 4.508.354.32.73.626 1.163.826.603.28 1.317.272 1.921-.002.628-.28 1.125-.798 1.53-1.357l2.813 1.78c-.359.411-.706.833-1.07 1.24-.664.652-1.484 1.112-2.343 1.424-1.922.697-4.153.531-5.907-.566-1.315-.836-2.385-2.124-2.892-3.647-.358-1.065-.443-2.216-.334-3.334a7.08 7.08 0 011.087-3.154c.813-1.245 1.985-2.261 3.36-2.761zm.85 3.216c-.786.539-1.444 1.367-1.599 2.353-.081.44-.016.887.096 1.314 1.852-.986 3.704-1.97 5.556-2.958-.298-.464-.729-.838-1.237-1.022-.92-.33-1.996-.251-2.817.313zM11.796 5.799h4.09v13.933h-4.09V5.8zM63.33 7.032c.71-.654 1.614-1.112 2.57-1.166.273-.01.55-.024.821.013.03 1.274.004 2.553.014 3.828-1.036.025-2.086.205-3.03.663-.561.284-1.092.708-1.381 1.293-.013 2.778-.003 5.558-.006 8.337h-4.085V6.07h3.753c.001.93-.001 1.858.001 2.787.353-.676.782-1.318 1.343-1.825z"
              fill="#306BCF"/>
    </symbol>
    <symbol viewBox="0 0 400 140" id="fireblocks" xmlns="http://www.w3.org/2000/svg">
        <path d="M0 70.5V101h64V40H0v30.5zm40.3-1.7c4.2 7 7.7 13.1 7.7 13.5 0 .4-7.2.7-16 .7s-16-.3-16-.8c0-1 15.3-26.2 16-26.2.3 0 4 5.7 8.3 12.8zM128 49.5c-1.9 2.3-.4 6.4 2.7 7.1 1.4.4 3.3.2 4.2-.3 2-1.3 2.6-5 1.1-6.9-1.6-1.8-6.4-1.8-8 .1zM247 70v20h9V50h-9v20zm92-.1V90h4c4 0 4 0 4-3.8 0-3.4 2.2-7.2 4.2-7.2.2 0 2.2 2.5 4.4 5.5 3.8 5.3 4 5.5 8.7 5.5 5.5 0 5.7.6-2.2-9.8l-5.4-7.3 5.9-6 5.8-5.9h-4.5c-4.1 0-5.1.5-10.7 5.6l-6.1 5.5-.3-10.8-.3-10.8-3.7-.3-3.8-.3v20zM92 71v19h7.9l.3-6.8.3-6.7 8.8-.3 8.8-.3-.3-3.2-.3-3.2-8.7-.3-8.8-.3V60h20.1l-.3-3.8-.3-3.7-13.7-.3-13.8-.3V71zm117.4-17.7c-.2.7-.3 9.1-.2 18.7l.3 17.5 4.3.3c3.4.3 4.2 0 4.2-1.4 0-1.6.1-1.6 1.8-.1 2.6 2.4 7.5 3.1 11.6 1.7 9.9-3.2 12.8-17 5.2-24.6-4.4-4.4-9.3-5.3-14.6-2.6l-4 1.9V52h-4c-2.4 0-4.3.5-4.6 1.3zm21 16.9c2.5 3.5 2 9.4-.9 12.3-3 3-5.4 3.1-8.9.4-2.1-1.6-2.6-2.9-2.6-6.3 0-5.9 2.2-8.6 7-8.6 2.9 0 4.3.6 5.4 2.2zm44.3-8.8c-5.1 1.9-7.3 4-9.2 9.1-3.8 9.8 3.8 19.5 15.3 19.5 16.3 0 20.8-20.4 6.2-27.8-5.1-2.5-7-2.7-12.3-.8zm11.2 9.2c2.8 3.5 2.6 6.9-.4 9.9-4.9 5-12.5 2-12.5-5 0-7.2 8.6-10.4 12.9-4.9zm26.7-9.6c-8.9 2.8-13.3 14-8.6 21.8 5.2 8.5 18.6 9.9 25.3 2.5 1.7-1.9 1.6-2-1.7-3.8-3.3-1.8-3.6-1.8-5.4-.2-2.9 2.6-7.7 2.2-10.1-.9-1.2-1.5-2.1-3.7-2.1-4.9 0-1.2.9-3.4 2.1-4.9 2.4-3 7.1-3.5 10.7-1.1 1.9 1.4 2.4 1.4 5.1 0 3.6-1.8 3.2-3.6-1.3-6.4-3.9-2.4-10.1-3.3-14-2.1zM128 75.4V90h9.1l-.3-14.3-.3-14.2-4.2-.3-4.3-.3v14.5zm19 .1V90h8v-7.9c0-8.9 1.9-12.7 6.8-13.3 2.3-.3 2.7-.8 3-4.1.3-3.4.1-3.7-2.3-3.7-1.4 0-3.7.7-5 1.6-2.3 1.5-2.5 1.5-2.5 0 0-1.2-1-1.6-4-1.6h-4v14.5zM177.6 63c-8.9 5.8-8.6 20.3.5 25.2 4.2 2.3 12.9 2.4 17.5.2 4-1.9 4.1-2.4 1.2-5.2-2.1-1.8-2.6-1.9-4.8-.7-1.4.8-3.7 1.4-5.1 1.5-2.7 0-7.9-3.4-7.9-5.1 0-.5 5-.9 11.1-.9h11.2l-.7-4.1c-.9-5.8-3.1-9.6-6.6-11.4-4.2-2.2-12.8-1.9-16.4.5zm13.4 6c3.3 3.3 2.4 4-5 4-3.8 0-7-.3-7-.7 0-.4 1-1.7 2.2-3 2.7-2.9 7.1-3 9.8-.3zm189.4-7c-2.8 1.1-6.4 5.8-6.4 8.2 0 3.3 5.1 7.5 10.1 8.3 6.6 1 7.9 1.5 7.9 3 0 2.7-6.3 3.1-13.6 1-1.5-.5-2.3 0-3.2 2-1.6 3.4-1.7 3.1 1.9 4.4 4.6 1.6 14.5 1.4 17.9-.4 9-4.7 5.3-14.4-6-16-5.3-.7-7.5-2.9-4.9-4.6 1.4-1 7-.7 10.1.6 1.2.5 2.1-.1 3.2-2.3 1.4-2.8 1.4-3-1-4.1-2.9-1.3-12.9-1.4-16-.1z"/>
    </symbol>
    <symbol fill="none" viewBox="0 0 64 64" id="flag" xmlns="http://www.w3.org/2000/svg">
        <path d="M13.333 53.333V40c3.555-3.555 8-5.333 13.333-5.333 8 0 10.667 5.333 16 5.333 2.667 0 5.334-.888 8-2.667v-24C48 15.112 45.333 16 42.666 16c-5.333 0-8-5.333-16-5.333-5.333 0-9.778 1.778-13.333 5.333v24"
              stroke="#FB7C20" stroke-width="2" stroke-linecap="square"/>
    </symbol>
    <symbol fill="none" viewBox="0 0 60 60" id="gbp-icon" xmlns="http://www.w3.org/2000/svg">
        <path d="M16 0h4.87v15.312L7.843 2.284A15.855 15.855 0 0116 0zM0 16v4.87h12.314L1.257 9.812A15.736 15.736 0 000 16zm39.13 2.216V0h4.976c3.608.025 7.03 1.31 9.768 3.47L39.13 18.216zm20.353-6.24l-8.894 8.893H60v-4.978a15.801 15.801 0 00-.516-3.915zM60 44.02v-4.89H47.686l11.057 11.057A15.734 15.734 0 0060 44.019zm-7.843 13.696A15.86 15.86 0 0144.083 60H39.13V44.688l13.027 13.028zM20.87 41.784V60h-5.005c-3.597-.031-7.009-1.315-9.74-3.47L20.87 41.784zM0 44v-4.87h9.41L.517 48.024A15.812 15.812 0 010 44z"
              fill="#0052B4"/>
        <path d="M2.144 8.046l12.824 12.823h5.901L4.72 4.72a16.195 16.195 0 00-2.575 3.327zm55.711 0L45.032 20.869H39.13L55.282 4.718a16.19 16.19 0 012.573 3.328zm-2.573 47.236a16.195 16.195 0 002.574-3.328L45.032 39.13H39.13l16.152 16.152zm-50.564 0L20.869 39.13h-5.901L2.144 51.954a16.195 16.195 0 002.574 3.328z"
              fill="#D80027"/>
        <path d="M35.625 0h-11.25v24.375H0v11.25h24.375V60h11.25V35.625H60v-11.25H35.625V0z" fill="#D80027"/>
        <path d="M7.843 2.284a16.409 16.409 0 00-3.125 2.434L20.87 20.87h-5.901L2.144 8.046c-.33.567-.627 1.157-.887 1.767l11.057 11.056H0v3.506h24.375V0H20.87v15.312L7.843 2.284zM35.625 0h8.481-4.976v18.216L53.874 3.47c.493.389.963.805 1.408 1.248L39.13 20.869h5.902L57.855 8.046a15.76 15.76 0 011.628 3.93l-8.894 8.893H60v-4.978 8.483H35.626V0zM60 39.13v-3.505H35.625V60h3.505V44.688l13.027 13.028a16.407 16.407 0 003.125-2.434L39.13 39.13h5.902l12.824 12.824c.33-.567.627-1.157.887-1.767L47.686 39.13H60zM4.718 55.282L20.869 39.13h-5.901L2.144 51.954a15.76 15.76 0 01-1.627-3.93L9.41 39.13H0v-3.505h24.375V60h-8.51 5.004V41.783L6.125 56.53a16.42 16.42 0 01-1.407-1.247z"
              fill="#fff"/>
    </symbol>
    <symbol fill="none" viewBox="0 0 26 26" id="globus" xmlns="http://www.w3.org/2000/svg">
        <path d="M13 26c7.168 0 13-5.832 13-13S20.168 0 13 0 0 5.832 0 13s5.832 13 13 13zm-8.476-6.582c1.03-.405 2.327-.728 3.785-.949.198 1.188.46 2.29.784 3.261.17.51.349.958.533 1.357a10.68 10.68 0 01-5.102-3.669zM2.364 13c0-1.556.335-3.034.938-4.367 1.278.547 2.893.97 4.712 1.243A35.831 35.831 0 007.879 13c0 1.067.046 2.114.135 3.123-1.82.274-3.434.697-4.712 1.244A10.574 10.574 0 012.364 13zM13 2.364c.255 0 .996.648 1.665 2.653.274.824.5 1.759.674 2.77a33.625 33.625 0 01-4.678 0c.174-1.011.4-1.946.675-2.77.668-2.005 1.41-2.653 1.664-2.653zm0 7.869c.9 0 1.783-.034 2.637-.097.08.923.12 1.883.12 2.864 0 .981-.04 1.941-.12 2.864a35.887 35.887 0 00-5.274 0 33.641 33.641 0 01-.12-2.864c0-.981.04-1.941.12-2.864a35.91 35.91 0 002.637.097zM23.636 13c0 1.556-.335 3.034-.938 4.367-1.278-.547-2.893-.97-4.712-1.244A35.81 35.81 0 0018.121 13c0-1.067-.046-2.114-.135-3.124 1.82-.273 3.434-.696 4.712-1.244.603 1.334.938 2.812.938 4.368zM13 23.636c-.255 0-.996-.648-1.664-2.653-.275-.824-.5-1.759-.675-2.77a33.558 33.558 0 014.678 0 19.096 19.096 0 01-.675 2.77c-.668 2.005-1.41 2.653-1.664 2.653zm3.374-.549c.184-.399.363-.848.533-1.357a21.66 21.66 0 00.784-3.261c1.458.221 2.755.544 3.785.95a10.68 10.68 0 01-5.102 3.668zm5.102-16.505c-1.03.405-2.327.728-3.785.949a21.66 21.66 0 00-.784-3.261c-.17-.51-.349-.959-.533-1.358a10.681 10.681 0 015.102 3.67zm-11.85-3.67a13.11 13.11 0 00-.533 1.358 21.676 21.676 0 00-.783 3.26c-1.458-.221-2.755-.544-3.785-.95a10.68 10.68 0 015.102-3.669z"
              fill="#6691FF"/>
    </symbol>
    <symbol fill="none" viewBox="0 0 10 9" id="goback" xmlns="http://www.w3.org/2000/svg">
        <path d="M6.777 8.5h-2.4V6.714h2.4c.808 0 1.465-.668 1.465-1.49 0-.82-.657-1.488-1.465-1.488h-3.32v1.45L0 2.843 3.457.5v1.45h3.32C8.554 1.95 10 3.419 10 5.225 10 7.03 8.554 8.5 6.777 8.5z"
              fill="#4785EF"/>
    </symbol>
    <symbol fill="none" viewBox="0 0 50 50" id="icon-cup" xmlns="http://www.w3.org/2000/svg">
        <path fill-rule="evenodd" clip-rule="evenodd"
              d="M44.893 9.962c.56 0 1.018.43 1.035.97.125 3.894.243 7.573-1.078 10.301-1.336 2.763-3.991 4.437-8.574 5.392-1.71 3.182-4.548 5.74-8.056 7.132v.497c0 3.61 2.804 6.615 6.522 6.992.145.014.29.028.436.04.536.044.947.477.947.996V45c0 .552-.464 1-1.036 1H14.911c-.573 0-1.036-.448-1.036-1v-2.718c0-.519.411-.952.947-.996.146-.012.291-.026.435-.04 3.72-.377 6.523-3.383 6.523-6.992v-.497c-3.508-1.393-6.347-3.95-8.056-7.132-4.583-.955-7.238-2.63-8.575-5.392-1.32-2.728-1.202-6.406-1.077-10.3v-.002c.017-.54.476-.969 1.035-.969h6.843V5c0-.552.464-1 1.036-1h24.028c.572 0 1.036.448 1.036 1v4.962h6.843zm-32.943 2H6.113c-.198 7.23.23 10.64 6.616 12.369a14.753 14.753 0 01-.779-4.731v-7.638zM34.054 44v-.825c-4.483-.672-7.822-4.346-7.904-8.755-.314.078-.632.148-.954.208a1.076 1.076 0 01-.392 0c-.322-.06-.64-.13-.954-.208-.083 4.409-3.421 8.082-7.904 8.755V44h18.108zM14.02 19.6c0 6.3 4.605 11.748 10.979 13.026 6.373-1.278 10.978-6.725 10.978-13.026V6H14.021v13.6zm24.029 0c0 1.642-.273 3.234-.779 4.73 6.387-1.728 6.814-5.138 6.616-12.368H38.05V19.6z"
              fill="#5D94F1"/>
        <path d="M29.32 20.325c0 1.672-1.401 3.078-3.284 3.462v.64c0 .552-.464 1-1.036 1-.572 0-1.036-.448-1.036-1v-.638c-1.345-.269-2.462-1.056-2.984-2.154a.986.986 0 01.51-1.326c.52-.23 1.134-.01 1.372.492.305.642 1.184 1.09 2.138 1.09 1.218 0 2.248-.717 2.248-1.565 0-.849-1.03-1.566-2.248-1.566-2.382 0-4.32-1.599-4.32-3.565 0-1.67 1.401-3.077 3.284-3.461v-.64c0-.553.464-1 1.036-1 .572 0 1.036.447 1.036 1v.64c1.498.306 2.72 1.259 3.133 2.524a.994.994 0 01-.676 1.255c-.546.166-1.127-.126-1.3-.653-.232-.712-1.155-1.23-2.193-1.23-1.218 0-2.248.717-2.248 1.565 0 .849 1.03 1.565 2.248 1.565 2.381 0 4.32 1.6 4.32 3.565z"
              fill="#FBC920"/>
    </symbol>
    <symbol fill="none" viewBox="0 0 20 20" id="icon-login" xmlns="http://www.w3.org/2000/svg">
        <path d="M16.667 17.5v-1.667a3.333 3.333 0 00-3.333-3.333H6.667a3.333 3.333 0 00-3.333 3.333V17.5M10 9.167A3.333 3.333 0 1010 2.5a3.333 3.333 0 000 6.667z"
              stroke="#FB7C20" stroke-width="1.667" stroke-linecap="round" stroke-linejoin="round"/>
    </symbol>
    <symbol fill="none" viewBox="0 0 241 153" id="img-404" xmlns="http://www.w3.org/2000/svg">
        <path d="M46.413 20.242L0 51.29l45.716 68.341 46.412-31.047-45.716-68.34z" fill="#EFF8FF"/>
        <path d="M68.15 85.35l-.529 3.259-23.073-3.326.53-3.26L68.15 85.35z" fill="#E0E0E0"/>
        <path d="M56.532 73.719l3.309.48-3.673 22.717-3.31-.48 3.674-22.717z" fill="#E0E0E0"/>
        <path d="M35.278 44.844c.033.05-4.62 3.218-10.387 7.078-5.766 3.86-10.478 6.95-10.51 6.9-.034-.05 4.615-3.219 10.39-7.078 5.774-3.86 10.474-6.95 10.507-6.9zm17.067-4.301c.033.05-7.702 5.282-17.274 11.686-9.572 6.403-17.373 11.553-17.394 11.503-.02-.05 7.698-5.278 17.274-11.681 9.576-6.404 17.36-11.537 17.394-11.508zm3.421 5.133c.033.05-7.703 5.282-17.274 11.686-9.572 6.403-17.374 11.553-17.374 11.503 0-.05 7.702-5.278 17.274-11.685 9.572-6.408 17.34-11.553 17.374-11.504zm3.421 5.117c.033.05-7.699 5.279-17.275 11.682-9.576 6.403-17.373 11.557-17.373 11.508 0-.05 7.682-5.283 17.241-11.686 9.56-6.403 17.373-11.553 17.407-11.504zm3.425 5.114c.033.05-7.703 5.282-17.274 11.685-9.572 6.404-17.374 11.554-17.399 11.504-.024-.05 7.703-5.278 17.279-11.665s17.36-11.582 17.394-11.524z"
              fill="#9ED3FF"/>
        <path d="M201.611 66.04l-38.978 26.073 38.392 57.394 38.979-26.074-38.393-57.394z" fill="#EFF8FF"/>
        <path d="M219.866 120.726l-.439 2.738-19.379-2.792.442-2.738 19.376 2.792z" fill="#D1EAFF"/>
        <path d="M210.107 110.957l2.784.401-3.086 19.078-2.78-.401 3.082-19.078z" fill="#D1EAFF"/>
        <path d="M192.262 86.712c.033.05-3.871 2.717-8.715 5.956-4.844 3.24-8.803 5.828-8.836 5.791-.033-.037 3.868-2.717 8.716-5.956 4.848-3.24 8.802-5.841 8.835-5.791zm14.334-3.602c.033.05-6.458 4.447-14.499 9.824s-14.585 9.7-14.618 9.655c-.033-.046 6.457-4.451 14.498-9.829 8.041-5.377 14.585-9.7 14.619-9.65zm2.875 4.297c.033.05-6.462 4.45-14.499 9.828-8.037 5.377-14.585 9.696-14.618 9.646-.033-.049 6.457-4.446 14.498-9.828s14.585-9.696 14.619-9.646zm2.87 4.297c.033.05-6.457 4.446-14.478 9.824-8.02 5.377-14.614 9.7-14.614 9.65 0-.049 6.436-4.451 14.478-9.828 8.041-5.378 14.581-9.696 14.614-9.646zm2.875 4.292c.033.05-6.457 4.451-14.478 9.829-8.021 5.377-14.594 9.696-14.639 9.646-.046-.049 6.457-4.447 14.498-9.824 8.042-5.377 14.586-9.7 14.619-9.65z"
              fill="#9ED3FF"/>
        <path d="M139.947 22.755L97.416.008 63.921 62.633l42.531 22.747 33.495-62.625z" fill="#EFF8FF"/>
        <path d="M99.174 65.788l-2.701.923-6.846-18.933 2.697-.926 6.85 18.937z" fill="#D1EAFF"/>
        <path d="M103.311 52.203l.985 2.718-18.805 6.436-.984-2.713 18.804-6.44z" fill="#D1EAFF"/>
        <path d="M116.672 24.267c-.034.062-4.348-2.18-9.634-5.005-5.287-2.826-9.547-5.171-9.514-5.237.033-.066 4.347 2.18 9.634 5.01 5.286 2.828 9.547 5.17 9.514 5.232zm10.205 11.262c-.033.066-7.173-3.69-15.942-8.38-8.77-4.692-15.86-8.53-15.826-8.609.033-.078 7.172 3.69 15.946 8.385 8.773 4.695 15.855 8.542 15.822 8.604zm-2.507 4.691c-.033.062-7.173-3.694-15.942-8.385-8.77-4.69-15.86-8.546-15.826-8.608.033-.062 7.172 3.69 15.946 8.385 8.773 4.695 15.855 8.546 15.822 8.608zm-2.507 4.688c-.033.062-7.172-3.69-15.942-8.385s-15.86-8.546-15.826-8.608c.033-.062 7.172 3.69 15.946 8.385 8.774 4.695 15.855 8.546 15.822 8.608zm-2.507 4.687c-.033.05-7.172-3.673-15.942-8.38-8.77-4.708-15.86-8.53-15.826-8.608.033-.079 7.173 3.69 15.946 8.38 8.774 4.691 15.855 8.546 15.822 8.608z"
              fill="#9ED3FF"/>
        <path d="M4.391 125.699a5.22 5.22 0 013.636 1.862 9.211 9.211 0 011.85 3.723c.698 2.614.268 5.704-.477 8.306-2.833-1.014-4.579-4.033-5.377-5.622-1.241-2.506-1.977-7.801.36-8.273m9.092 17.068a4.45 4.45 0 01-.211-4.459 5.895 5.895 0 013.557-2.863c.695-.211 1.493-.302 2.097.104a1.892 1.892 0 01.732 1.795 3.876 3.876 0 01-.827 1.828c-1.377 1.866-3.053 3.417-5.377 3.607"
              fill="#FBC920"/>
        <path d="M13.785 151.502a3.117 3.117 0 01-.128-.542c-.075-.389-.17-.89-.29-1.494a15.582 15.582 0 01-.31-5.005 9.55 9.55 0 011.857-4.641 6.604 6.604 0 011.076-1.084c.136-.116.26-.186.335-.244a.573.573 0 01.128-.07c-.524.446-1.003.943-1.427 1.485a9.863 9.863 0 00-1.787 4.579c-.265 1.932.062 3.698.252 4.964.104.633.182 1.146.232 1.501.037.181.058.366.062.551z"
              fill="#7D6102"/>
        <path d="M5.305 129.68c.043.069.082.141.116.215l.29.633c.251.546.603 1.344 1.03 2.337a284.121 284.121 0 013.188 7.785 184.192 184.192 0 012.896 7.913c.352 1.017.633 1.845.827 2.42l.211.662c.027.076.048.155.062.235a1.012 1.012 0 01-.1-.223c-.061-.17-.144-.385-.243-.649l-.877-2.4a392.184 392.184 0 00-6.085-15.689c-.414-.981-.732-1.783-.972-2.362-.103-.265-.19-.48-.256-.646a.952.952 0 01-.087-.231z"
              fill="#7D6102"/>
        <path d="M10.422 145.721a10.404 10.404 0 00-8.075-5.018c-.827-.058-1.84.083-2.217.827-.376.745.128 1.655.7 2.263a8.897 8.897 0 009.625 2.151"
              fill="#FBC920"/>
        <path d="M3.621 142.945a2.88 2.88 0 01.525.021c.206.008.41.032.613.07.235.041.508.07.802.149.294.079.616.145.956.265.36.119.716.258 1.063.413.794.36 1.544.808 2.238 1.336a11.335 11.335 0 011.853 1.833 9.9 9.9 0 01.653.935c.184.272.351.555.5.848.15.264.237.525.336.744.082.189.15.382.207.579.06.164.106.333.136.505-.041 0-.244-.707-.798-1.766-.149-.261-.298-.55-.5-.828a9.894 9.894 0 00-.658-.905 11.77 11.77 0 00-1.829-1.792 12.271 12.271 0 00-2.196-1.319c-.34-.156-.688-.294-1.043-.414a8.706 8.706 0 00-.934-.285c-1.18-.306-1.928-.348-1.924-.389z"
              fill="#7D6102"/>
        <path d="M79.125 66.689L64.498 141.89l-1.915 9.844 97.651-.479c4.38-.025 8.273-3.914 9.675-9.696l17.315-71c1.072-4.388-1.278-8.95-4.604-8.947l-98.833.104c-2.18 0-4.091 2.039-4.662 4.972z"
              fill="#E8505B"/>
        <path d="M79.125 66.689L64.498 141.89l-1.915 9.844 97.651-.479c4.38-.025 8.273-3.914 9.675-9.696l17.315-71c1.072-4.388-1.278-8.95-4.604-8.947l-98.833.104c-2.18 0-4.091 2.039-4.662 4.972z"
              fill="#306BCF"/>
        <path d="M150.864 136.793l-10.341-83.31c-.414-3.416-3.144-5.96-6.354-5.952l-22.672.075a6.211 6.211 0 00-4.475 1.985L96.267 61.037l-63.049.327c-3.847.02-6.825 3.665-6.329 7.764l9.618 77.001c.413 3.409 3.135 5.953 6.345 5.944l109.882-.215c12.24.252 13.407-3.363 13.407-3.363-14.023 3.111-15.272-11.69-15.277-11.702z"
              fill="#4785EF"/>
        <g opacity=".5" fill="#fff">
            <path d="M103.485 120.121l-3.707 3.979-28.542-25.68 3.707-3.979 28.542 25.68z"/>
            <path d="M98.223 93.563l4.099 3.681-25.828 27.739-4.096-3.685 25.825-27.736z"/>
        </g>
    </symbol>
    <symbol fill="none" viewBox="0 0 24 25" id="in" xmlns="http://www.w3.org/2000/svg">
        <circle cx="12" cy="12.428" r="12" fill="#5D94F1"/>
        <path d="M18 17.428v-4.395c0-2.16-.465-3.81-2.985-3.81-1.215 0-2.025.66-2.355 1.29h-.03V9.418h-2.385v8.01h2.49v-3.975c0-1.05.195-2.055 1.485-2.055 1.275 0 1.29 1.185 1.29 2.115v3.9H18v.015zM6.195 9.418h2.49v8.01h-2.49v-8.01zm1.245-3.99A1.44 1.44 0 006 6.868c0 .795.645 1.455 1.44 1.455.795 0 1.44-.66 1.44-1.455a1.44 1.44 0 00-1.44-1.44z"
              fill="#fff"/>
    </symbol>
    <symbol fill="none" viewBox="0 0 24 24" id="input-close" xmlns="http://www.w3.org/2000/svg">
        <circle cx="12" cy="12" r="9" fill="#D9D9D9"/>
        <path d="M13.322 12l2.486-2.487A.653.653 0 0016 9.049a.651.651 0 00-.192-.464l-.393-.393A.65.65 0 0014.951 8a.65.65 0 00-.464.192L12 10.678 9.513 8.192A.65.65 0 009.05 8a.65.65 0 00-.464.192l-.393.393a.657.657 0 000 .928L10.679 12l-2.487 2.487A.652.652 0 008 14.95c0 .176.068.34.192.464l.393.393A.65.65 0 009.05 16a.65.65 0 00.464-.192L12 13.322l2.487 2.486a.651.651 0 00.464.192c.175 0 .34-.068.464-.192l.393-.393a.652.652 0 00.192-.464.652.652 0 00-.192-.464L13.322 12z"
              fill="#fff"/>
    </symbol>
    <symbol fill="none" viewBox="0 0 24 25" id="inst" xmlns="http://www.w3.org/2000/svg">
        <circle cx="12" cy="12.428" r="12" fill="#5D94F1"/>
        <path d="M14.935 6.028h-5.87A3.469 3.469 0 005.6 9.493v5.87a3.469 3.469 0 003.464 3.465h5.87a3.469 3.469 0 003.466-3.465v-5.87a3.469 3.469 0 00-3.465-3.465zM12 15.928c-1.93 0-3.5-1.57-3.5-3.5s1.57-3.5 3.5-3.5 3.5 1.57 3.5 3.5-1.57 3.5-3.5 3.5zm3.583-6.175a1.035 1.035 0 010-2.068 1.035 1.035 0 010 2.068z"
              fill="#fff"/>
    </symbol>
    <symbol fill="none" viewBox="0 0 20 21" id="interest" xmlns="http://www.w3.org/2000/svg">
        <path d="M10 .6a10 10 0 1010 10 10.012 10.012 0 00-10-10zm0 18.182a8.182 8.182 0 118.182-8.182A8.19 8.19 0 0110 18.782z"
              fill="#BFBFBF"/>
        <path d="M14.28 6.32a.91.91 0 00-1.286 0L5.72 13.595a.91.91 0 101.285 1.285l7.273-7.273a.91.91 0 000-1.285zM6.818 9.236a1.818 1.818 0 100-3.636 1.818 1.818 0 000 3.636zm6.364 6.364a1.818 1.818 0 100-3.636 1.818 1.818 0 000 3.636z"
              fill="#BFBFBF"/>
    </symbol>
    <symbol fill="none" viewBox="0 0 24 24" id="interest-xs" xmlns="http://www.w3.org/2000/svg">
        <path d="M12 2a10 10 0 1010 10A10.012 10.012 0 0012 2zm0 18.182A8.181 8.181 0 1120.182 12 8.191 8.191 0 0112 20.182z"
              fill="#7DADFF"/>
        <path d="M16.28 7.72a.91.91 0 00-1.286 0L7.72 14.995a.91.91 0 101.285 1.285l7.273-7.273a.91.91 0 000-1.285zm-7.462 2.916a1.818 1.818 0 100-3.636 1.818 1.818 0 000 3.636zM15.182 17a1.818 1.818 0 100-3.636 1.818 1.818 0 000 3.636z"
              fill="#7DADFF"/>
    </symbol>
    <symbol fill="none" viewBox="0 0 24 17" id="laptop-icon" xmlns="http://www.w3.org/2000/svg">
        <path d="M20 15a1.99 1.99 0 001.99-2L22 2a2 2 0 00-2-2H4a2 2 0 00-2 2v11a2 2 0 002 2H0a2 2 0 002 2h20a2 2 0 002-2h-4zM4 2h16v11H4V2zm8 14c-.55 0-1-.45-1-1s.45-1 1-1 1 .45 1 1-.45 1-1 1z"
              fill="#4785EF"/>
    </symbol>
    <symbol fill="none" viewBox="0 0 24 25" id="loans" xmlns="http://www.w3.org/2000/svg">
        <path d="M12 2.4a10 10 0 1010 10 10.012 10.012 0 00-10-10zm0 18.182a8.182 8.182 0 118.182-8.182A8.191 8.191 0 0112 20.582z"
              fill="#BFBFBF"/>
        <path d="M14.313 12.89c-.55-.575-1.1-.797-2.3-1.332-.5-.222-.925-.431-1.126-.77a1.12 1.12 0 01-.162-.601c0-.3.1-.588.3-.784.225-.26.575-.418.938-.418.45 0 .8.262 1.037.588.162.274.238.535.238.81h1.587a2.955 2.955 0 00-.575-1.724 2.722 2.722 0 00-1.5-1.058V6.4h-1.5v1.175a2.74 2.74 0 00-1.3.68c-.5.47-.813 1.227-.813 1.945 0 .548.188 1.11.45 1.475.376.536.876.862 1.338 1.097.637.366 1.412.549 2.012.993.376.26.476.509.476.835 0 .392-.138.666-.413.875-.287.235-.7.314-1.025.314-.487 0-.912-.275-1.188-.706-.175-.235-.262-.6-.262-.848H9c0 .626.175 1.188.5 1.697.375.653 1.012 1.084 1.75 1.267V18.4h1.5v-1.188a2.943 2.943 0 001.012-.366C14.55 16.39 15 15.488 15 14.652c0-.705-.225-1.28-.688-1.762z"
              fill="#BFBFBF"/>
    </symbol>
    <symbol fill="none" viewBox="0 0 24 24" id="loans-xs" xmlns="http://www.w3.org/2000/svg">
        <path d="M12 2a10 10 0 1010 10A10.012 10.012 0 0012 2zm0 18.182A8.181 8.181 0 1120.182 12 8.191 8.191 0 0112 20.182z"
              fill="#7DADFF"/>
        <path d="M14.313 12.49c-.55-.575-1.1-.797-2.3-1.332-.5-.222-.925-.431-1.126-.77a1.12 1.12 0 01-.162-.601c0-.3.1-.588.3-.784.225-.26.575-.418.938-.418.45 0 .8.262 1.037.588.162.274.238.535.238.81h1.587a2.955 2.955 0 00-.575-1.724 2.722 2.722 0 00-1.5-1.058V6h-1.5v1.175a2.74 2.74 0 00-1.3.68c-.5.47-.813 1.227-.813 1.945 0 .548.188 1.11.45 1.475.376.536.876.862 1.338 1.097.637.366 1.412.549 2.012.992.376.262.476.51.476.836 0 .392-.138.666-.413.875-.287.235-.7.314-1.025.314-.487 0-.912-.275-1.188-.706-.175-.235-.262-.6-.262-.848H9c0 .626.175 1.188.5 1.697.375.653 1.012 1.084 1.75 1.267V18h1.5v-1.188a2.94 2.94 0 001.012-.366C14.55 15.99 15 15.088 15 14.252c0-.705-.225-1.28-.688-1.762z"
              fill="#7DADFF"/>
    </symbol>
    <symbol fill="none" viewBox="0 0 60 60" id="ltc-icon" xmlns="http://www.w3.org/2000/svg">
        <path d="M0 18C0 8.059 8.059 0 18 0h24c9.941 0 18 8.059 18 18v24c0 9.941-8.059 18-18 18H18C8.059 60 0 51.941 0 42V18z"
              fill="#4374C1"/>
        <path d="M30.383 30.777l-2.51 8.593H41.3a.669.669 0 01.485.184.687.687 0 01.215.48v.225l-1.167 4.088a.884.884 0 01-.326.482.86.86 0 01-.55.17H19.409l3.444-11.91L19 34.274l.876-2.726 3.852-1.185 4.846-16.71a.895.895 0 01.327-.48.873.873 0 01.548-.173h5.196a.668.668 0 01.485.185.686.686 0 01.215.48v.224L31.26 27.993l3.853-1.186-.818 2.845-3.91 1.125z"
              fill="#fff"/>
    </symbol>
    <symbol fill="none" viewBox="0 0 65 40" id="mc" xmlns="http://www.w3.org/2000/svg">
        <path d="M41.103 4.276H23.605v31.447h17.498V4.276z" fill="#FF5F00"/>
        <path d="M24.716 20.003a19.965 19.965 0 017.638-15.726 19.998 19.998 0 100 31.447 19.965 19.965 0 01-7.638-15.72z"
              fill="#EB001B"/>
        <path d="M64.712 20.003a19.997 19.997 0 01-32.358 15.72 19.997 19.997 0 000-31.446 19.998 19.998 0 0132.358 15.72v.006z"
              fill="#F79E1B"/>
    </symbol>
    <symbol fill="none" viewBox="0 0 40 25" id="mc2" xmlns="http://www.w3.org/2000/svg">
        <g clip-path="url(#cpclip0_949_14592)">
            <path d="M25.49 2.998h-10.5v18.86h10.5V2.998z" fill="#8C609F"/>
            <path d="M15.66 12.428a11.98 11.98 0 014.58-9.43 12 12 0 100 18.86 11.978 11.978 0 01-4.58-9.43z"
                  fill="#E80314"/>
            <path d="M39.65 12.429a12 12 0 01-19.41 9.43 12.001 12.001 0 000-18.86 12 12 0 0119.41 9.43z"
                  fill="#039ADC"/>
        </g>
        <defs>
            <clipPath id="cpclip0_949_14592">
                <path fill="#fff" transform="translate(0 .428)" d="M0 0h40v24H0z"/>
            </clipPath>
        </defs>
    </symbol>
    <symbol fill="none" viewBox="0 0 12 5" id="nav_arr_down" xmlns="http://www.w3.org/2000/svg">
        <path d="M0 0h12L8.121 3.879a3 3 0 01-4.242 0L0 0z" fill="#fff"/>
    </symbol>
    <symbol fill="none" viewBox="0 0 18 18" id="notice-warning" xmlns="http://www.w3.org/2000/svg">
        <path d="M6.349 5.008c1.126-2.128 4.175-2.128 5.302 0l4.018 7.588C16.726 14.594 15.278 17 13.017 17H4.983c-2.261 0-3.71-2.406-2.652-4.404L6.35 5.008z"
              fill="#FBC920"/>
        <path fill="#fff" d="M8 6h2v6H8zm0 7h2v2H8z"/>
    </symbol>
    <symbol fill="none" viewBox="0 0 24 13" id="password-eye" xmlns="http://www.w3.org/2000/svg">
        <path d="M12 0C7.606 0 3.62 2.28.68 5.982a.828.828 0 000 1.031C3.62 10.72 7.606 13 12 13s8.38-2.28 11.32-5.982a.828.828 0 000-1.031C20.38 2.28 16.394 0 12 0zm.315 11.077c-2.917.174-5.326-2.105-5.142-4.876.15-2.284 2.103-4.135 4.512-4.278 2.917-.174 5.326 2.105 5.142 4.876-.155 2.28-2.108 4.131-4.512 4.278zm-.146-2.114c-1.571.093-2.87-1.134-2.766-2.624.08-1.23 1.134-2.226 2.432-2.306 1.572-.094 2.87 1.133 2.767 2.623-.085 1.236-1.139 2.23-2.433 2.307z"
              fill="#D9D9D9"/>
    </symbol>
    <symbol fill="none" viewBox="0 0 60 60" id="pax-icon" xmlns="http://www.w3.org/2000/svg">
        <path d="M0 18C0 8.059 8.059 0 18 0h24c9.941 0 18 8.059 18 18v24c0 9.941-8.059 18-18 18H18C8.059 60 0 51.941 0 42V18z"
              fill="#78B650"/>
        <path d="M19.719 43.59A13.026 13.026 0 0028.745 48a8.205 8.205 0 005.436-2.461 94.556 94.556 0 018.924-6.77l1.743-.718c.718-.307 1.949-1.025 3.077-2.359 1.231-1.64 1.436-3.385 1.436-4a11.283 11.283 0 00-1.846-5.436A34.054 34.054 0 0119.719 43.59z"
              fill="#0293D6"/>
        <path d="M23.616 14.46a8.206 8.206 0 015.95-2.564 5.335 5.335 0 013.897 1.333 17.847 17.847 0 0010.052 3.282c.923.103 2.769.41 4 1.95.923 1.23 1.026 2.563 1.026 3.179a14.257 14.257 0 01-1.026 4.615L23.616 14.46z"
              fill="#EBE638"/>
        <path d="M19.718 43.59c-.923-.103-2.154-.41-3.59-1.026-1.435-.615-3.18-1.333-4.307-3.282C11.103 38.052 11 36.82 11 36a14.154 14.154 0 011.539-6.257 28.922 28.922 0 001.948-7.487L15 20.204c.308-1.026.513-2.051 1.231-3.077l1.128-1.23a9.745 9.745 0 016.257-1.437 32.002 32.002 0 00-3.898 29.13z"
              fill="#BAD147"/>
        <path d="M23.616 14.46c-.103 0 5.538.308 9.026 1.538l2.872 1.231c-1.129-.102-8.309-.41-13.745 5.026-6.872 6.975-4.615 16.514-4.513 17.027A10.462 10.462 0 0115 32.204a24.616 24.616 0 018.616-17.744z"
              fill="#78B650"/>
        <path d="M37.36 39.795a20.514 20.514 0 00-1.846-22.566 14.051 14.051 0 017.795 4.103c1.23 1.026 2.77 2.564 4.205 4.924A30.257 30.257 0 0137.36 39.795z"
              fill="#2F8260"/>
        <path d="M40.643 21.742c-1.641-2.77-4-4-5.026-4.513-.82-.205-8.513-1.436-14.36 4.206-4.718 4.513-5.026 10.359-5.026 11.487a17.54 17.54 0 003.693 10.667c3.049.587 6.182.587 9.231 0 1.539-.307 5.129-.923 8.206-3.59.41-.41 4.923-4.615 5.23-11.282 0-1.128 0-4-1.948-6.975zM36.95 36.615a10.156 10.156 0 01-7.487 3.282c-.616 0-4.718-.103-7.59-3.487-.41-.513-2.462-2.975-2.36-6.667.206-4.924 4.103-7.796 4.924-8.411a9.217 9.217 0 015.026-1.744c.615-.102 2.77-.205 4.923 1.026 4.718 2.564 4.923 8.718 4.923 9.129 0 1.128 0 4.205-2.359 6.872z"
              fill="#085229"/>
    </symbol>
    <symbol fill="none" viewBox="0 0 14 14" id="plus" xmlns="http://www.w3.org/2000/svg">
        <path d="M6 0h2v14H6V0z" fill="#fff"/>
        <path d="M0 8V6h14v2H0z" fill="#fff"/>
    </symbol>
    <symbol fill="none" viewBox="0 0 60 60" id="rub-icon" xmlns="http://www.w3.org/2000/svg">
        <path d="M0 18C0 8.059 8.059 0 18 0h24c9.941 0 18 8.059 18 18v24c0 9.941-8.059 18-18 18H18C8.059 60 0 51.941 0 42V18z"
              fill="#2E93F0"/>
        <path d="M34.273 34.352v3.884h-6.978V43h-5.203v-4.764h-1.74v-3.884h1.74v-2.11h-1.74V28.13h1.74v-10.9h7.418c2.765 0 4.763.235 5.994.704 1.242.457 2.244 1.277 3.006 2.46.75 1.172 1.125 2.526 1.125 4.061 0 1.254-.158 2.32-.475 3.2-.304.866-.726 1.587-1.265 2.161a5.864 5.864 0 01-1.917 1.354 10.9 10.9 0 01-2.408.738c-.867.152-1.775.246-2.724.282-.938.035-1.887.052-2.848.052h-.703v2.11h6.978zm-6.978-6.223h.316c2.496 0 4.055-.106 4.676-.317.633-.21 1.12-.574 1.46-1.09.35-.515.526-1.16.526-1.933 0-.879-.222-1.582-.668-2.11-.445-.538-1.107-.872-1.986-1.001a17.16 17.16 0 00-1.265-.053 70.941 70.941 0 00-2.532-.035h-.527v6.539z"
              fill="#fff"/>
    </symbol>
    <symbol fill="none" viewBox="0 0 76 21" id="sepa" xmlns="http://www.w3.org/2000/svg">
        <path d="M16.882 6.692h-5.196c0-.86-.1-1.44-.3-1.733-.309-.438-1.165-.656-2.567-.655-1.36 0-2.258.126-2.696.377-.439.255-.66.8-.66 1.645 0 .763.196 1.272.584 1.507.34.193.723.3 1.114.313l1.05.076c2.253.143 3.656.244 4.21.305 1.778.18 3.066.657 3.866 1.431a3.796 3.796 0 011.124 2.367c.074.656.11 1.316.106 1.976 0 1.697-.16 2.934-.48 3.711-.579 1.437-1.88 2.347-3.905 2.729-1.286.195-2.587.28-3.887.254-2.913 0-4.942-.175-6.088-.527C1.75 20.036.826 19.162.386 17.847.123 17.103 0 15.88 0 14.176h5.2v.435c0 .912.26 1.498.777 1.76a3 3 0 001.3.284h1.912c.976 0 1.598-.05 1.867-.152a1.508 1.508 0 00.943-.917c.087-.332.127-.675.118-1.018 0-.924-.335-1.487-1.008-1.688-.248-.08-1.408-.19-3.48-.33-1.66-.12-2.815-.236-3.462-.35-1.698-.315-2.83-.975-3.396-1.98C.267 9.372.015 8.081.015 6.348c-.03-1.07.109-2.138.413-3.164a3.468 3.468 0 011.303-1.807C2.605.743 3.729.374 5.092.255A47.4 47.4 0 018.877.112c2.183 0 3.738.126 4.664.377 2.262.614 3.393 2.335 3.393 5.162 0 .232-.015.578-.052 1.041zm22.87 14.291V0h10.414c1.43 0 2.521.118 3.276.354a5.054 5.054 0 012.136 1.229 5.125 5.125 0 011.313 2.1c.304.881.456 2.206.456 3.976 0 2.128-.168 3.656-.504 4.582-.672 1.842-2.045 2.9-4.12 3.177-.251.04-1.282.08-3.116.107l-.928.033h-3.325v5.425h-5.602zm5.602-10.292h3.484c1.105-.039 1.777-.124 2.016-.254.33-.184.552-.55.66-1.103.084-.54.12-1.089.106-1.636a6.798 6.798 0 00-.21-1.973c-.2-.603-.683-.97-1.445-1.102-.152-.02-.504-.03-1.084-.03h-3.527v6.098zm23.919 6.664h-7.474l-1.008 3.628h-5.78L61.25 0h8.433L76 20.983h-5.662l-1.065-3.628zm-1.112-4.088l-2.618-9.095-2.552 9.095h5.17z"
              fill="#004899"/>
        <path d="M32.038 2.953a7.28 7.28 0 013.166.722 7.354 7.354 0 012.548 2.03l1.207-2.61A10.555 10.555 0 0034.574.583a10.47 10.47 0 00-5.039-.178 10.537 10.537 0 00-4.548 2.198 10.682 10.682 0 00-3.025 4.074h-2.349l-1.388 2.996h3.024a10.155 10.155 0 00.012 1.861H19.75l-1.385 3.006h3.678a10.565 10.565 0 003.883 4.62 10.407 10.407 0 005.755 1.713 10.505 10.505 0 005.89-1.782v-3.703a7.357 7.357 0 01-2.733 1.977 7.287 7.287 0 01-6.53-.466 7.387 7.387 0 01-2.432-2.346h7.702l1.389-3.007H24.74a8.017 8.017 0 01-.048-1.873H35.82l1.388-3.006H25.66a7.4 7.4 0 012.697-2.72 7.305 7.305 0 013.68-.994z"
              fill="#FDC300"/>
    </symbol>
    <symbol fill="none" viewBox="0 0 30 30" id="sheild" xmlns="http://www.w3.org/2000/svg">
        <path fill-rule="evenodd" clip-rule="evenodd"
              d="M15 25.869c-4.914-2.693-8.171-7.943-8.171-13.876v-3.53L15 5.043l8.172 3.42v3.53c0 5.791-3.14 11.123-8.171 13.876zM26 6.603L15 2 4 6.603v5.39C4 19.485 8.43 26.084 15 29c6.75-2.997 11-9.712 11-17.007v-5.39z"
              fill="#6691FF"/>
        <path d="M17.655 11.592l-3.196 3.212-1.066-1.072a1.498 1.498 0 00-2.126 0 1.516 1.516 0 000 2.136l2.13 2.14a1.495 1.495 0 002.125 0l4.259-4.28a1.516 1.516 0 000-2.136 1.497 1.497 0 00-2.125 0z"
              fill="#6691FF"/>
    </symbol>
    <symbol fill="none" viewBox="0 0 60 60" id="sol-icon" xmlns="http://www.w3.org/2000/svg">
        <rect width="60" height="60" rx="8" fill="#E6007A"/>
        <rect width="60" height="60" rx="8" fill="url(#cypaint0_linear_1518_15220)"/>
        <path d="M47.812 39.23l-5.944 6.333a1.374 1.374 0 01-1.006.437H12.69a.694.694 0 01-.632-.412.683.683 0 01.126-.741l5.936-6.334a1.374 1.374 0 011.006-.436h28.172a.69.69 0 01.643.407.678.678 0 01-.13.746zm-5.944-12.757a1.389 1.389 0 00-1.006-.436H12.69a.693.693 0 00-.632.412.683.683 0 00.126.741l5.936 6.337a1.389 1.389 0 001.006.436h28.172a.694.694 0 00.63-.413.681.681 0 00-.127-.74l-5.933-6.337zm-29.178-4.55h28.172a1.38 1.38 0 001.006-.436l5.944-6.333A.683.683 0 0047.297 14H19.126a1.383 1.383 0 00-1.006.437l-5.936 6.333a.686.686 0 00.507 1.153z"
              fill="#fff"/>
        <defs>
            <linearGradient id="cypaint0_linear_1518_15220" x1="5.064" y1="61.431" x2="60.508" y2="5.528"
                            gradientUnits="userSpaceOnUse">
                <stop offset=".08" stop-color="#9945FF"/>
                <stop offset=".3" stop-color="#8752F3"/>
                <stop offset=".5" stop-color="#5497D5"/>
                <stop offset=".6" stop-color="#43B4CA"/>
                <stop offset=".72" stop-color="#28E0B9"/>
                <stop offset=".97" stop-color="#19FB9B"/>
            </linearGradient>
        </defs>
    </symbol>
    <symbol fill="none" viewBox="0 0 30 30" id="sw_flag" xmlns="http://www.w3.org/2000/svg">
        <path d="M4.5 5a.5.5 0 01.5-.5h20a.5.5 0 01.5.5v20a.5.5 0 01-.5.5H5a.5.5 0 01-.5-.5V5z" stroke="#6691FF"
              stroke-width="3"/>
        <path d="M13 9h4v12h-4V9z" fill="#6691FF"/>
        <path d="M9 17v-4h12v4H9z" fill="#6691FF"/>
    </symbol>
    <symbol fill="none" viewBox="0 0 40 40" id="swift" xmlns="http://www.w3.org/2000/svg">
        <path fill-rule="evenodd" clip-rule="evenodd"
              d="M39.407 15.05c-.242-.966-.563-1.85-.885-2.736-.16-.322-.241-.563-.402-.805-.402-.885-1.287-2.334-1.85-3.058a4.395 4.395 0 00-.563-.725l-.804-.965c-.402-.483-1.689-1.69-2.252-2.173a15.462 15.462 0 00-1.367-1.047c-2.734-1.85-5.63-2.978-8.927-3.38C21.714.081 21.151 0 20.587 0H18.82c-.322.08-.805.08-1.126.08-1.69.161-3.378.644-4.906 1.208-.724.322-1.528.644-2.09.966-.162.16-.242.16-.403.241-.16.08-.241.16-.402.241-.161.08-.241.161-.402.242-.885.563-1.207.805-2.172 1.529-.482.402-.884.805-1.286 1.207l-.885.886c-.16.16-.16.241-.322.322-.16.241-.321.482-.563.724-.16.241-.321.402-.482.644l-.965 1.448-.644 1.208a25.964 25.964 0 00-.965 2.173c-.16.644-.402 1.207-.563 1.85-.16.645-.321 1.289-.402 2.013a12.36 12.36 0 00-.241 2.414c0 1.45 0 2.012.16 3.542a19.094 19.094 0 002.092 6.358c1.447 2.817 3.619 5.312 6.192 7.082.804.564 2.091 1.368 3.056 1.77 2.331 1.048 5.146 1.852 7.8 1.852 2.252 0 3.378 0 5.55-.563 1.768-.403 3.136-1.047 4.744-1.851.804-.403 2.252-1.369 2.895-1.932 1.126-.966 1.77-1.53 2.735-2.737.402-.482.723-.885 1.045-1.368l.724-1.046c.08-.16.16-.241.241-.402.724-1.208 1.046-2.012 1.528-3.3.241-.564.402-1.207.563-1.851.885-3.3.885-6.6.08-9.9zm-4.102-6.358c.322.483.643.885.885 1.368.321.483.563.966.804 1.45.08.16.08.24.16.402l.322.804c.08.161.08.322.161.403H30.4c-.08-.161-.16-.644-.16-.805-.08-.242-.161-.483-.242-.805l-.482-1.449a14.27 14.27 0 00-1.207-2.495l-.08-.16h6.112c0 .16.885 1.207.965 1.287zM23.161 1.207c1.207.161 2.493.564 3.62.966l1.769.805c.482.241.884.483 1.286.724 1.207.725 1.93 1.288 2.895 2.254.242.16.483.322.644.483h-5.79c-.402-.725-2.172-2.737-2.896-3.38l-.16-.162-.724-.643c-.161-.081-.241-.161-.402-.322-.161-.08-.242-.161-.402-.322l-.805-.564c.322.08.644.161.965.161zm-2.654-.16c.08 0 .724.402.885.563.322.16 1.689 1.287 2.01 1.529l.403.322c.241.241.482.402.724.644l1.85 2.334h-5.872V1.046zm0 6.438h6.595c0 .16.08.16.16.322l.886 1.61c.24.482.402.885.643 1.448.16.403.643 2.012.643 2.334h-8.927V7.485zm-.965-6.439V6.44h-5.87c.321-.564.884-1.047 1.286-1.53l2.172-2.012c.563-.402 1.045-.885 1.608-1.207.08-.16.644-.563.804-.644zm0 6.439v5.634h-8.926c0-.322.321-1.288.402-1.61.16-.563.321-.966.563-1.449.321-.804.563-1.287.965-2.012.08-.08.321-.483.321-.563h6.675zM6.916 6.197l.242-.241c1.93-1.851 4.664-3.3 7.237-4.185.724-.242 1.69-.403 2.494-.564.321-.08.643-.08.965-.08-.322.241-1.046.724-1.528 1.127-.08.08-.161.08-.242.16-.402.322-1.689 1.53-1.93 1.852l-.482.563c-.242.241-1.126 1.368-1.287 1.77h-5.71c.08-.24.16-.321.241-.402zm-3.94 5.312c.08-.08.08-.16.16-.322a2.41 2.41 0 01.322-.644l.724-1.207c.16-.08 1.206-1.61 1.447-1.851.08-.08.161-.08.403-.08h5.71c0 .08-.08.24-.161.321a20.86 20.86 0 00-1.126 2.334c-.161.483-.402.966-.483 1.45-.08.321-.402 1.287-.402 1.609H2.252c.16-.403.482-1.127.724-1.61zM5.63 32.515c0-.08-.885-1.127-.966-1.288L2.976 28.41c-.242-.482-.483-1.207-.724-1.61H9.57c0 .403.241 1.208.402 1.61.563 1.852 1.77 4.105 1.77 4.105H5.628zm10.374 6.117c-2.091-.483-4.021-1.207-5.87-2.334a15.724 15.724 0 01-1.207-.805c-.161-.161-.402-.322-.563-.483-.08-.08-.161-.16-.322-.241-.08-.08-.08-.08-.16-.08l-.644-.645c-.16-.16-.402-.322-.483-.483h5.79c.322.564.966 1.288 1.448 1.852.08.16.242.24.322.321.483.644 2.091 2.012 2.815 2.576l.804.563c-.643 0-1.528-.16-1.93-.241zm3.538.241c-.402-.08-2.01-1.448-2.493-1.77l-.402-.322c-.402-.403-1.045-.886-1.447-1.368l-1.287-1.53c-.08-.16-.16-.241-.322-.402h5.871l.08 5.392zm0-6.358h-6.675c0-.08-.08-.16-.16-.322-.08-.08-.161-.241-.161-.322l-.724-1.287c-.483-.886-1.126-2.817-1.287-3.783h8.927l.08 5.714zm6.836 1.046c-.402.644-1.367 1.69-1.93 2.254-.16.16-.241.241-.322.402L23 37.183c-.402.322-2.17 1.69-2.492 1.77v-5.392h5.87zm-5.87-6.68h8.926c0 .403-.482 1.851-.643 2.334-.08.242-.16.483-.322.725-.241.563-.804 1.69-1.206 2.334-.08.08-.161.16-.161.322h-6.595V26.88zm11.741 7.646l-.563.483c-.16.161-.402.322-.563.483-2.413 1.69-5.066 2.897-7.962 3.38-.321.08-.643.08-.965.08l1.93-1.448c.403-.322 1.85-1.77 2.333-2.415l.884-1.126.161-.161c.08-.08.08-.08.161-.242h5.79c-.24.161-.884.725-1.206.966zm5.308-7.243l-.322.805c-.402.885-1.287 2.414-1.93 3.219l-.965 1.288h-6.112c.965-1.771 1.206-2.093 1.77-4.105l.401-1.61h7.238c.08.08 0 .242-.08.403zm.884-2.737c-.08.242-.08.483-.16.725a2.49 2.49 0 00-.161.644H1.93l-.402-1.369c-.08-.483-.241-.966-.322-1.448-.08-.483-.16-.966-.16-1.53 0-.241-.08-.563-.08-.804v-.805c0-1.69.24-3.622.723-5.232.08-.241.16-.482.16-.643h36.19c.08.16.161.402.161.643.322 1.047.563 2.495.644 3.622v1.61c.16 1.529 0 3.139-.403 4.587z"
              fill="#3C60A8"/>
        <path fill-rule="evenodd" clip-rule="evenodd"
              d="M10.696 24.145c.965 0 .724.16 1.126-.564l.724-1.368c.08-.16.08-.241.16-.322.483-.804 1.046-2.092 1.529-2.897l.08-.08c0 .24.08.563.08.724 0 .322 0 .483.08.724l.323 3.38c0 .403-.161.322.965.322.08-.16 1.367-2.817 1.608-3.138.08-.161.16-.322.241-.564l1.368-2.656.24-.483c.162-.241.564-1.046.725-1.207.16-.16.16 0 .16-.241h-1.608c0 .563.322.241-.402 1.85a2.41 2.41 0 01-.322.645l-1.287 2.495c-.08.16-.24.563-.321.563 0-.644-.322-3.22-.322-4.024 0-.483-.08-.885-.08-1.368h-.724l-2.413 4.426c-.08.161-.482.966-.563.966 0-1.046-.402-3.3-.402-4.507 0-.161 0-.402.08-.564.081-.24.242-.24.242-.482H9.57c0 .322.161.16.322.885l.241 2.093c.08.885.563 4.99.563 5.392zm-5.469-6.52c0 1.61 3.137 1.771 3.137 3.944 0 .564-.08.886-.241 1.208a2.888 2.888 0 01-.563.804 1.917 1.917 0 01-.885.483c-.885.322-2.01.242-2.976 0-.16-.08-.402-.16-.563-.16-.723-.323-.402-.323-.16-1.61.08-.161 0-.242.16-.322 0 .483.242.966.483 1.207.402.483.965.483 1.608.483.724 0 1.287-.483 1.448-1.046.241-1.207-.804-1.69-1.448-2.254C4.504 19.8 3.7 19.235 3.7 18.11c0-.564.242-1.208.563-1.449.322-.322.724-.644 1.207-.805.402-.16.804-.16 1.286-.241.403 0 1.609.16 2.01.402 0 .242-.32 1.288-.32 1.449h-.162c0-.322-.24-.725-.482-.966-.161-.08-.241-.161-.483-.241-.965-.242-2.09.16-2.09 1.368zm20.83-1.367c0 .482-.885 3.46-1.046 4.024-.241.885-.563 2.092-.885 2.978-.08.321-.24.643-.563.724v.16h2.494c0-.482-.402-.08.321-2.253l.483-1.69h1.367c.402.08.724.161.804.564.241 0 .161-.161.322-.725.08-.241.16-.563.241-.805-.241 0-.16.161-.482.242-.322.08-1.69.08-2.091.08l.723-2.575c.161-.724.322-.563 1.609-.563.322 0 .643.16.804.321.483.483.241.564.563.564 0-.161.16-.564.241-.805.08-.161.08-.241.161-.402.08-.161.161-.322 0-.322h-4.986c-.241.241-.08.322-.08.482zm4.986 1.046c.321 0 .16-.322.884-.724.483-.242.885-.161 1.528-.161l-1.688 5.875c-.161.483-.403 1.61-.805 1.69v.16h2.413c0-.482-.322 0 .08-1.448.08-.322.161-.563.242-.885l.482-1.77c.322-1.047.643-2.254.965-3.381.08-.241 0-.161.804-.161.563 0 1.046.402 1.207.885.241 0 .16-.241.321-.644.08-.16.242-.643.242-.804h-6.032c-.16 0-.241.402-.322.724-.16.08-.321.402-.321.644zm-9.57-1.127c0 .483 0 .322-.08.805l-.403 1.449c-.16.643-1.367 4.99-1.689 5.311-.16.242-.241.161-.321.322h2.492c0-.483-.321-.08.081-1.529l.241-.966c.161-.643.402-1.287.563-1.931.241-.886.563-2.093.885-2.978.08-.322.241-.644.563-.724v-.161c-3.297 0-2.332-.08-2.332.402z"
              fill="#3C60A8"/>
    </symbol>
    <symbol fill="none" viewBox="0 0 40 40" id="switzerland" xmlns="http://www.w3.org/2000/svg">
        <rect width="40" height="40" rx="3" fill="#F44848"/>
        <path d="M23.333 8.889h-6.666v7.777H8.889v6.667h7.778v7.778h6.666v-7.778h7.778v-6.667h-7.778V8.89z"
              fill="#fff"/>
    </symbol>
    <symbol fill="none" viewBox="0 0 24 25" id="telegram" xmlns="http://www.w3.org/2000/svg">
        <circle cx="12" cy="12.428" r="12" fill="#5D94F1"/>
        <path d="M9.023 14.482l-.212 2.904c.303 0 .434-.127.591-.28l1.42-1.323 2.944 2.102c.54.293.92.138 1.065-.485l1.932-8.825c.172-.778-.288-1.083-.814-.892L4.594 11.922c-.775.293-.763.714-.131.905l2.903.88 6.743-4.113c.317-.205.605-.092.368.113l-5.454 4.775z"
              fill="#fff"/>
    </symbol>
    <symbol fill="none" viewBox="0 0 40 40" id="times" xmlns="http://www.w3.org/2000/svg">
        <path d="M30.896 10.737l1.12-1.139 1.28 1.301 2.24-2.277-4.8-4.88-2.24 2.278 1.28 1.3-1.44 1.465c-7.681-4.718-17.602-2.278-22.083 5.53-4.48 7.808-2.08 17.568 5.44 22.286 7.522 4.717 17.443 2.277 21.923-5.531 4-6.67 2.88-15.128-2.72-20.333zM20.015 33.998c-6.241 0-11.202-5.043-11.202-11.387s4.96-11.386 11.202-11.386c6.24 0 11.2 5.042 11.201 11.386 0 6.344-4.96 11.387-11.201 11.387z"
              fill="#306BCF"/>
        <path fill="#306BCF"
              d="M19 11h2v3h-2zm8.426 2.662l1.414 1.414-2.121 2.122-1.414-1.415zM12.574 31.198l-1.414-1.415 2.121-2.12 1.414 1.413zM8.5 23.5v-2h3v2zm2.662-8.424l1.414-1.414 2.121 2.121-1.414 1.414zM28.84 29.783l-1.414 1.415-2.122-2.122 1.414-1.414zM19 31h2v3h-2zm9.5-7.5v-2h3v2z"/>
        <path d="M18.65 17L17 18.125v2.824l1.65-1.153V28H22V17h-3.35z" fill="#FB7C20"/>
        <path d="M15.215 0v3.253h3.2V4.88c1.12-.163 2.08-.163 3.2 0V3.253h3.201V0h-9.601z" fill="#4785EF"/>
    </symbol>
    <symbol fill="none" viewBox="0 0 64 64" id="trade" xmlns="http://www.w3.org/2000/svg">
        <path d="M56 18.667H8v32h48v-32zM42.666 8H21.333v10.667h21.333V8z" stroke="#FB7C20" stroke-width="2"
              stroke-linecap="square"/>
    </symbol>
    <symbol fill="none" viewBox="0 0 24 25" id="trading" xmlns="http://www.w3.org/2000/svg">
        <path fill-rule="evenodd" clip-rule="evenodd"
              d="M3.176 6.2A2.825 2.825 0 016 3.375h12A2.825 2.825 0 0120.826 6.2v10h-1.65v-10c0-.649-.526-1.175-1.175-1.175H6c-.65 0-1.175.526-1.175 1.175v10h-1.65v-10z"
              fill="#BFBFBF"/>
        <path fill-rule="evenodd" clip-rule="evenodd"
              d="M13.604 6.345l2.155 5.03a.825.825 0 11-1.516.65l-.845-1.97-2.737 4.831-2.381-4.285a.825.825 0 111.442-.802l.953 1.715 2.929-5.169zM20 19.55H4a1.35 1.35 0 01-1.35-1.35v-.35h18.7v.35A1.35 1.35 0 0120 19.55zM4 21.2a3 3 0 01-3-3v-2h22v2a3 3 0 01-3 3H4z"
              fill="#BFBFBF"/>
    </symbol>
    <symbol fill="none" viewBox="0 0 24 24" id="trading-xs" xmlns="http://www.w3.org/2000/svg">
        <path fill-rule="evenodd" clip-rule="evenodd"
              d="M3.176 6A2.825 2.825 0 016 3.175h12A2.825 2.825 0 0120.826 6v10h-1.65V6c0-.649-.526-1.175-1.175-1.175H6c-.65 0-1.175.526-1.175 1.175v10h-1.65V6z"
              fill="#7DADFF"/>
        <path fill-rule="evenodd" clip-rule="evenodd"
              d="M13.604 6.145l2.155 5.03a.825.825 0 11-1.516.65l-.845-1.97-2.737 4.831-2.381-4.285a.825.825 0 011.442-.802l.953 1.715 2.929-5.169zM20 19.35H4A1.35 1.35 0 012.65 18v-.35h18.7V18A1.35 1.35 0 0120 19.35zM4 21a3 3 0 01-3-3v-2h22v2a3 3 0 01-3 3H4z"
              fill="#7DADFF"/>
    </symbol>
    <symbol fill="none" viewBox="0 0 40 40" id="trustpilot" xmlns="http://www.w3.org/2000/svg">
        <path d="M40 15.286H24.718L20.014 0l-4.732 15.286L0 15.256l12.36 9.459L7.626 40l12.36-9.458L32.344 40 27.64 24.715 40 15.285z"
              fill="#00B67A"/>
        <path d="M28.698 28.17l-1.057-3.455-7.627 5.827 8.684-2.372z" fill="#005128"/>
    </symbol>
    <symbol fill="none" viewBox="0 0 60 60" id="trx-icon" xmlns="http://www.w3.org/2000/svg">
        <rect width="60" height="60" rx="8" fill="#C4342B"/>
        <path fill-rule="evenodd" clip-rule="evenodd"
              d="M14.32 12.413a1.24 1.24 0 011.216-.377l26.19 6.476c.157.04.305.11.436.205l5.329 3.924a1.263 1.263 0 01.293 1.72L29.45 51.453a1.23 1.23 0 01-1.806.269 1.254 1.254 0 01-.39-.558l-13.183-37.49a1.265 1.265 0 01.248-1.26zm4.322 6.766l9.152 26.027L29.3 31.717 18.642 19.18zm13.107 12.973l-1.53 13.723L43.166 26.74l-11.418 5.412h.002zm12.584-8.734l-8.344 3.955 5.594-5.98 2.75 2.025zm-5.27-2.982L18.7 15.4l11.94 14.043 8.425-9.007h-.001z"
              fill="#fff"/>
    </symbol>
    <symbol fill="none" viewBox="0 0 60 60" id="tusd-icon" xmlns="http://www.w3.org/2000/svg">
        <path d="M0 18C0 8.059 8.059 0 18 0h24c9.941 0 18 8.059 18 18v24c0 9.941-8.059 18-18 18H18C8.059 60 0 51.941 0 42V18z"
              fill="#0062FF"/>
        <path d="M39.535 39.276c0 .946-.675 1.63-1.542 1.63l-.906-.001a.143.143 0 01-.143-.143v-2.965c0-.08.064-.151.143-.151h.898c.874 0 1.55.684 1.55 1.63z"
              fill="#fff"/>
        <path fill-rule="evenodd" clip-rule="evenodd"
              d="M42.6 45H17.4c-1.32 0-2.4-1.08-2.4-2.4V17.4c0-1.32 1.08-2.4 2.4-2.4h25.2c1.32 0 2.4 1.08 2.4 2.4v25.2c0 1.32-1.08 2.4-2.4 2.4zm1.6-11.4H15.8c-.22 0-.4-.18-.4-.4V17.4c0-1.1.9-2 2-2h25.2c1.1 0 2 .9 2 2v15.8c0 .22-.18.4-.4.4zm-10.523 4.739c-.127 0-.167-.048-.215-.143-.167-.39-.533-.636-1.09-.636-.5 0-.921.175-.921.509 0 .366.39.517 1.248.62 1.304.151 2.05.549 2.05 1.582 0 1.161-1.017 1.773-2.32 1.773-1.13 0-2.1-.549-2.25-1.701-.016-.111.04-.151.15-.151h.876c.11 0 .175.048.207.135.119.382.525.676 1.113.676.517 0 .97-.191.97-.596 0-.485-.477-.572-1.431-.692-1.097-.143-1.86-.461-1.86-1.471s.867-1.733 2.226-1.733c1.224 0 2.075.66 2.25 1.646.024.111-.008.183-.127.183l-.876-.001zm-12.966 3.49c0 .079.064.151.143.151h.962c.079 0 .143-.072.143-.151v-4.031c0-.08.072-.151.15-.151h1.416c.079 0 .15-.064.15-.143v-.779a.156.156 0 00-.15-.151h-4.38a.157.157 0 00-.151.151v.779c0 .079.07.143.15.143h1.424c.079 0 .143.072.143.151v4.031zm7.48-5.255c-.08 0-.143.072-.143.151v2.79c0 .803-.413 1.375-1.13 1.375-.715 0-1.128-.572-1.128-1.375v-2.79a.156.156 0 00-.151-.151h-.954c-.08 0-.143.072-.143.151v2.751c0 1.63.914 2.576 2.369 2.576 1.463 0 2.385-.946 2.385-2.576v-2.751a.156.156 0 00-.151-.151h-.954zm7.497 5.255c0 .079.064.151.143.151h2.162c1.622 0 2.854-1.097 2.854-2.687 0-1.614-1.248-2.719-2.854-2.719H35.83c-.08 0-.143.072-.143.151v5.104z"
              fill="#fff"/>
        <path d="M31.473 30.356h-2.6a.3.3 0 01-.3-.3v-8.1H24.1a.3.3 0 01-.3-.3v-2.6a.3.3 0 01.3-.3h11.8a.3.3 0 01.3.3v2.6a.3.3 0 01-.3.3h-4.127v8.1a.3.3 0 01-.3.3z"
              fill="#fff"/>
    </symbol>
    <symbol fill="none" viewBox="0 0 24 25" id="twitter" xmlns="http://www.w3.org/2000/svg">
        <circle cx="12" cy="12.428" r="12" fill="#5D94F1"/>
        <path d="M19 8.73c-.52.22-1.075.367-1.654.438a2.779 2.779 0 001.263-1.534 5.857 5.857 0 01-1.82.672 2.923 2.923 0 00-2.097-.878c-1.589 0-2.868 1.247-2.868 2.776 0 .22.02.431.067.633a8.219 8.219 0 01-5.916-2.903 2.724 2.724 0 00-.393 1.403c0 .96.512 1.813 1.275 2.306a2.91 2.91 0 01-1.297-.342v.03c0 1.35.995 2.47 2.3 2.728a2.956 2.956 0 01-.753.091c-.184 0-.37-.01-.543-.047.372 1.1 1.427 1.907 2.681 1.934a5.893 5.893 0 01-3.558 1.183A5.54 5.54 0 015 17.182a8.282 8.282 0 004.403 1.246c5.281 0 8.169-4.231 8.169-7.898 0-.123-.004-.241-.01-.359A5.627 5.627 0 0019 8.73z"
              fill="#fff"/>
    </symbol>
    <symbol fill="none" viewBox="0 0 60 60" id="usd-icon" xmlns="http://www.w3.org/2000/svg">
        <rect width="60" height="60" rx="8" fill="#677F76"/>
        <path d="M41 36.54c0-5.955-3.448-7.996-10.343-8.847-4.926-.68-5.91-2.041-5.91-4.423s1.641-3.913 4.925-3.913c2.955 0 4.597 1.02 5.418 3.573.164.51.656.85 1.149.85h2.627c.656 0 1.149-.51 1.149-1.19v-.17c-.657-3.744-3.612-6.636-7.388-6.976v-4.083c0-.68-.493-1.19-1.314-1.361h-2.462c-.657 0-1.15.51-1.314 1.361v3.913c-4.925.68-8.044 4.083-8.044 8.336 0 5.614 3.283 7.826 10.179 8.676 4.597.851 6.074 1.872 6.074 4.594 0 2.722-2.298 4.593-5.418 4.593-4.268 0-5.746-1.871-6.239-4.423-.164-.68-.656-1.021-1.149-1.021h-2.79c-.657 0-1.149.51-1.149 1.191v.17c.657 4.253 3.284 7.315 8.701 8.166v4.083c0 .68.493 1.19 1.314 1.361h2.462c.657 0 1.15-.51 1.314-1.36v-4.084C37.717 44.706 41 41.133 41 36.54z"
              fill="#fff"/>
    </symbol>
    <symbol fill="none" viewBox="0 0 60 60" id="usdc-icon" xmlns="http://www.w3.org/2000/svg">
        <path d="M0 18C0 8.059 8.059 0 18 0h24c9.941 0 18 8.059 18 18v24c0 9.941-8.059 18-18 18H18C8.059 60 0 51.941 0 42V18z"
              fill="#2774C9"/>
        <path d="M36.217 33.838c0-3.338-1.978-4.483-5.934-4.96-2.826-.38-3.391-1.144-3.391-2.48 0-1.335.942-2.193 2.825-2.193 1.696 0 2.638.572 3.109 2.003a.709.709 0 00.66.477h1.506c.377 0 .66-.286.66-.668v-.095c-.377-2.098-2.073-3.72-4.24-3.91v-2.29c0-.381-.282-.667-.753-.763h-1.412c-.377 0-.66.287-.754.764v2.193c-2.826.382-4.615 2.29-4.615 4.674 0 3.147 1.884 4.387 5.84 4.864 2.637.477 3.485 1.049 3.485 2.575 0 1.526-1.32 2.575-3.109 2.575-2.449 0-3.297-1.05-3.58-2.48-.093-.381-.376-.572-.658-.572h-1.602a.648.648 0 00-.659.668v.095c.377 2.384 1.884 4.101 4.992 4.578v2.29c0 .38.283.667.754.762h1.412c.377 0 .66-.286.754-.763v-2.289c2.826-.477 4.71-2.48 4.71-5.055z"
              fill="#fff"/>
        <path d="M25.196 43.853c-7.346-2.67-11.114-10.968-8.382-18.313 1.413-4.005 4.52-7.057 8.382-8.488.377-.19.566-.477.566-.954v-1.335c0-.382-.189-.668-.566-.763-.094 0-.282 0-.377.095C15.873 16.956 10.975 26.59 13.8 35.65c1.696 5.341 5.746 9.443 11.02 11.16.377.19.754 0 .848-.382.095-.095.095-.19.095-.382v-1.335c0-.286-.283-.667-.566-.858zm9.985-29.758c-.377-.19-.754 0-.848.382-.094.095-.094.19-.094.381v1.336c0 .381.282.762.565.953 7.346 2.67 11.114 10.969 8.382 18.313-1.413 4.005-4.52 7.057-8.382 8.488-.377.19-.566.477-.566.954v1.335c0 .382.189.668.566.763.094 0 .282 0 .377-.095C44.127 44.044 49.026 34.41 46.2 25.35c-1.696-5.437-5.84-9.538-11.02-11.255z"
              fill="#fff"/>
    </symbol>
    <symbol fill="none" viewBox="0 0 60 60" id="usdt-icon" xmlns="http://www.w3.org/2000/svg">
        <path d="M0 18C0 8.059 8.059 0 18 0h24c9.941 0 18 8.059 18 18v24c0 9.941-8.059 18-18 18H18C8.059 60 0 51.941 0 42V18z"
              fill="#50AF95"/>
        <path d="M30.027 31.235c1.549 0 2.243-.042 2.377-.052H32.4c4.75-.211 8.294-1.038 8.294-2.026 0-.988-3.545-1.815-8.294-2.026v3.23c-.133.012-.873.073-2.351.073-1.232 0-2.123-.052-2.434-.075v-3.23c-4.76.212-8.312 1.038-8.312 2.028s3.552 1.817 8.312 2.026c.307.015 1.18.052 2.413.052zm2.377-4.44v.002-.002z"
              fill="#fff"/>
        <path fill-rule="evenodd" clip-rule="evenodd"
              d="M11.028 29.691l6.93-14.529a.28.28 0 01.257-.162h23.572a.281.281 0 01.256.163l6.928 14.53a.282.282 0 01-.06.328l-18.713 17.9a.286.286 0 01-.396 0L11.09 30.02a.282.282 0 01-.06-.329zm21.376-5.786v2.89c5.377.249 9.417 1.313 9.417 2.588 0 1.275-4.044 2.339-9.418 2.586v9.268h-4.79v-9.265c-5.386-.248-9.436-1.312-9.436-2.588s4.05-2.342 9.437-2.589v-2.89h-6.627v-4.409h18.045v4.41h-6.628z"
              fill="#fff"/>
    </symbol>
    <symbol fill="none" viewBox="0 0 60 60" id="ust-icon" xmlns="http://www.w3.org/2000/svg">
        <rect width="60" height="60" rx="8" fill="#5493F7"/>
        <path fill-rule="evenodd" clip-rule="evenodd"
              d="M27.464 40.674c.928 3.542 4.262 6.246 5.944 6.135.059-.004 6.385-1.22 9.848-7.184 2.695-4.641 1.777-9.122-1.888-9.22-1.319.1-15.675 3.518-13.904 10.269zM30.648 14a16.41 16.41 0 00-6.703 1.426 9.8 9.8 0 00-1.046.514c-.232.124-.465.247-.689.38l.054.018a7.541 7.541 0 00-1.743 1.654c-4.74 6.277 11.149 10.84 19.643 10.855 3.91 2.812 5.006-7.918 1.188-10.896A16.386 16.386 0 0030.648 14z"
              fill="#0E3CA5"/>
        <path fill-rule="evenodd" clip-rule="evenodd"
              d="M24.676 17.68c-2.148 3.156-9.305 5.38-10.482 5.033l-.006-.013.147-.284a16.968 16.968 0 015.103-5.82c.44-.317.896-.612 1.367-.887 1-.567 2.027-.601 2.365-.615 3.186.059 1.522 2.56 1.505 2.586"
              fill="#fff"/>
        <mask id="doa" style="mask-type:alpha" maskUnits="userSpaceOnUse" x="12" y="24" width="11" height="23">
            <path d="M12 24.938h10.938v21.874H12V24.938z" fill="#fff"/>
        </mask>
        <g mask="url(#doa)">
            <path fill-rule="evenodd" clip-rule="evenodd"
                  d="M22.874 41.329c.16 1.037-.004 5.134-.22 5.48-.185.01-.572.035-1.689-.584a17.786 17.786 0 01-5.538-4.879 17.466 17.466 0 01-2.522-4.809A17.243 17.243 0 0112 31a17.225 17.225 0 011.091-6.062h.003c1.281 1.68 2.762 3.2 4.02 4.897 1.2 1.614 2.85 4.247 3.184 4.81 2.085 3.492 2.417 5.647 2.576 6.684z"
                  fill="#fff"/>
        </g>
        <path fill-rule="evenodd" clip-rule="evenodd"
              d="M47 31.193c0 2.24-.427 4.382-1.2 6.346-2.028 2.189-15.708-3.197-15.842-3.256-1.871-.822-7.566-3.325-8.08-7.256-.739-5.655 10.699-9.596 15.725-9.746.602.007 2.437.028 3.506.9A17.26 17.26 0 0147 31.192v.002zM35.038 45.181c.818-2.895 7.97-5.863 9.548-6.023.195-.02.278.117.192.275-1.646 2.994-4.084 5.46-7.034 7.058-1.492.724-3.133.197-2.706-1.31z"
              fill="#fff"/>
    </symbol>
    <symbol fill="none" viewBox="0 0 66 21" id="visa" xmlns="http://www.w3.org/2000/svg">
        <path fill-rule="evenodd" clip-rule="evenodd"
              d="M34.163 6.714c-.037 2.925 2.593 4.557 4.574 5.528 2.035.996 2.719 1.634 2.711 2.525-.015 1.363-1.624 1.964-3.129 1.988-2.626.04-4.152-.713-5.366-1.283l-.946 4.45c1.218.564 3.473 1.056 5.811 1.078 5.489 0 9.08-2.724 9.1-6.948.02-5.36-7.375-5.657-7.325-8.053.018-.726.707-1.502 2.218-1.699.748-.1 2.813-.176 5.153.908l.919-4.306C46.624.442 45.006 0 42.993 0c-5.167 0-8.8 2.761-8.83 6.714zM56.71.37a2.382 2.382 0 00-2.224 1.49l-7.84 18.823h5.484l1.092-3.033h6.703l.633 3.033h4.834L61.173.37H56.71zm.767 5.487l1.583 7.628h-4.335l2.752-7.628zM27.513.371l-4.324 20.313h5.227L32.737.37h-5.224zm-7.732 0l-5.44 13.825L12.14 2.441C11.882 1.129 10.862.37 9.73.37H.836L.712.96c1.826.398 3.9 1.04 5.157 1.728.769.42.988.787 1.24 1.785l4.169 16.21H16.8L25.27.37h-5.49z"
              fill="#1A1F71"/>
    </symbol>
    <symbol fill="none" viewBox="0 0 24 24" id="wallets" xmlns="http://www.w3.org/2000/svg">
        <path d="M21.181 11.266V7.5a.895.895 0 00-.266-.636.914.914 0 00-.643-.264H5.727a.914.914 0 01-.643-.264.896.896 0 010-1.272.914.914 0 01.643-.264h14.545a.914.914 0 00.643-.264.895.895 0 000-1.272.914.914 0 00-.643-.264H5.727a2.74 2.74 0 00-1.928.79A2.686 2.686 0 003 5.7v12.6c0 .716.287 1.403.799 1.91.511.505 1.205.79 1.928.79h14.545a.914.914 0 00.643-.264.895.895 0 00.266-.636v-3.766a2.709 2.709 0 001.318-.98 2.666 2.666 0 000-3.108 2.709 2.709 0 00-1.318-.98zM19.363 19.2H5.727a.914.914 0 01-.643-.264.896.896 0 01-.266-.636V8.234c.291.107.599.163.91.166h13.635v2.7h-2.727c-.723 0-1.417.284-1.929.79a2.686 2.686 0 00-.798 1.91c0 .716.287 1.403.798 1.91.512.505 1.205.79 1.929.79h2.727v2.7zm.909-4.5h-3.636a.914.914 0 01-.643-.264.895.895 0 010-1.272.914.914 0 01.643-.264h3.636c.241 0 .472.095.643.264a.895.895 0 010 1.272.914.914 0 01-.643.264z"
              fill="#BFBFBF"/>
    </symbol>
    <symbol fill="none" viewBox="0 0 24 25" id="wallets-xs" xmlns="http://www.w3.org/2000/svg">
        <path d="M21.181 11.766V8a.895.895 0 00-.266-.636.914.914 0 00-.643-.264H5.727a.914.914 0 01-.643-.264.896.896 0 010-1.272.914.914 0 01.643-.264h14.545a.914.914 0 00.643-.264.895.895 0 000-1.272.914.914 0 00-.643-.264H5.727a2.74 2.74 0 00-1.928.79A2.686 2.686 0 003 6.2v12.6c0 .716.287 1.403.799 1.91.511.505 1.205.79 1.928.79h14.545a.914.914 0 00.643-.264.895.895 0 00.266-.636v-3.766a2.709 2.709 0 001.318-.98 2.666 2.666 0 000-3.108 2.709 2.709 0 00-1.318-.98zM19.363 19.7H5.727a.914.914 0 01-.643-.264.896.896 0 01-.266-.636V8.734c.291.107.599.163.91.166h13.635v2.7h-2.727c-.723 0-1.417.284-1.929.79a2.686 2.686 0 00-.798 1.91c0 .716.287 1.403.798 1.91.512.505 1.205.79 1.929.79h2.727v2.7zm.909-4.5h-3.636a.914.914 0 01-.643-.264.895.895 0 010-1.272.914.914 0 01.643-.264h3.636c.241 0 .472.095.643.264a.895.895 0 010 1.272.914.914 0 01-.643.264z"
              fill="#7DADFF"/>
    </symbol>
    <symbol fill="none" viewBox="0 0 60 60" id="wbtc-icon" xmlns="http://www.w3.org/2000/svg">
        <path d="M0 18C0 8.059 8.059 0 18 0h24c9.941 0 18 8.059 18 18v24c0 9.941-8.059 18-18 18H18C8.059 60 0 51.941 0 42V18z"
              fill="#F0962D"/>
        <path d="M41.985 18.975l-1.043 1.043a14.77 14.77 0 010 19.936l1.043 1.043a16.263 16.263 0 000-22.046v.024zm-21.942.09a14.771 14.771 0 0119.935 0l1.044-1.043a16.263 16.263 0 00-22.047 0l1.068 1.043zm-.978 20.899a14.77 14.77 0 010-19.925l-1.043-1.043a16.263 16.263 0 000 22.046l1.043-1.078zm20.899.964a14.77 14.77 0 01-19.935 0l-1.044 1.043a16.263 16.263 0 0022.047 0l-1.068-1.043z"
              fill="#fff"/>
        <path d="M29.997 49a19 19 0 11.007-38 19 19 0 01-.008 38zm0-36.518a17.508 17.508 0 10.027 35.016 17.508 17.508 0 00-.027-35.016z"
              fill="#fff"/>
        <path d="M36.587 26.519c-.208-2.178-2.087-2.908-4.462-3.13V20.39H30.29v2.943h-1.47V20.39h-1.822v3.02h-3.725v1.964s1.356-.024 1.335 0a.95.95 0 011.044.807v8.264a.644.644 0 01-.223.449.637.637 0 01-.473.16c.024.02-1.335 0-1.335 0l-.348 2.194h3.69v3.068H28.8v-3.023h1.468v3.009h1.84v-3.033c3.102-.188 5.265-.953 5.537-3.857.219-2.337-.88-3.38-2.637-3.802 1.068-.525 1.729-1.498 1.58-3.091zm-2.573 6.531c0 2.282-3.91 2.02-5.155 2.02v-4.047c1.245.003 5.155-.355 5.155 2.027zm-.853-5.704c0 2.087-3.262 1.833-4.298 1.833V25.5c1.036 0 4.298-.326 4.298 1.847z"
              fill="#fff"/>
    </symbol>
    <symbol fill="none" viewBox="0 0 40 40" id="withdrawal" xmlns="http://www.w3.org/2000/svg">
        <path d="M30.896 10.736l1.12-1.139 1.28 1.302 2.24-2.278-4.8-4.88-2.24 2.278 1.28 1.301-1.44 1.464c-7.681-4.717-17.602-2.277-22.083 5.53-4.48 7.808-2.08 17.568 5.44 22.286 7.522 4.717 17.443 2.277 21.923-5.53 4-6.67 2.88-15.129-2.72-20.334zM20.015 33.997c-6.241 0-11.202-5.043-11.202-11.386 0-6.344 4.96-11.387 11.202-11.387 6.24 0 11.2 5.043 11.201 11.386 0 6.345-4.96 11.387-11.201 11.387z"
              fill="#306BCF"/>
        <path fill="#306BCF"
              d="M19 11h2v3h-2zm8.425 2.661l1.414 1.414-2.121 2.122-1.414-1.415zM12.576 31.197l-1.415-1.415 2.122-2.12 1.414 1.413zM8.5 23.5v-2h3v2zm2.66-8.425l1.415-1.414 2.121 2.121-1.414 1.415zm17.68 14.708l-1.415 1.414-2.121-2.121 1.414-1.414zM19 31h2v3h-2zm9.5-7.5v-2h3v2z"/>
        <path d="M18.65 17L17 18.125v2.824l1.65-1.153V28H22V17h-3.35z" fill="#FB7C20"/>
        <path d="M15.214 0v3.253h3.2V4.88c1.12-.163 2.08-.163 3.2 0V3.253h3.201V0h-9.601z" fill="#4785EF"/>
    </symbol>
    <symbol fill="none" viewBox="0 0 60 60" id="xmr-icon" xmlns="http://www.w3.org/2000/svg">
        <path d="M0 18C0 8.059 8.059 0 18 0h24c9.941 0 18 8.059 18 18v24c0 9.941-8.059 18-18 18H18C8.059 60 0 51.941 0 42V18z"
              fill="#F26822"/>
        <path d="M46.715 29.858c0 9.31-7.547 16.858-16.857 16.858C20.547 46.716 13 39.168 13 29.858S20.547 13 29.858 13c9.31 0 16.857 7.547 16.857 16.858z"
              fill="#F26822"/>
        <path d="M29.858 13c-9.308 0-16.868 7.559-16.856 16.858.002 1.86.299 3.65.856 5.324H18.9V21l10.957 10.956L40.814 21v14.182h5.044c.558-1.674.853-3.464.857-5.324.015-9.309-7.549-16.856-16.857-16.856V13z"
              fill="#fff"/>
        <path d="M22.557 29.694v8.923l-7.106.001c2.96 4.854 8.307 8.102 14.407 8.102s11.447-3.248 14.407-8.103h-7.107v-8.923l-7.3 7.3-7.301-7.3z"
              fill="#fff"/>
    </symbol>
    <symbol fill="none" viewBox="0 0 60 60" id="xrp-icon" xmlns="http://www.w3.org/2000/svg">
        <rect width="60" height="60" rx="8" fill="#777"/>
        <path d="M43.434 14h5.496L37.495 25.867c-4.14 4.296-10.85 4.296-14.99 0L11.072 14h5.496l8.687 9.015c2.621 2.72 6.871 2.72 9.493 0L43.434 14zM16.496 47H11l11.505-11.94c4.14-4.296 10.85-4.296 14.99 0L49 47h-5.496l-8.757-9.089a6.543 6.543 0 00-9.494 0L16.496 47z"
              fill="#fff"/>
    </symbol>
    <symbol fill="none" viewBox="0 0 30 30" id="yellow-arrow" xmlns="http://www.w3.org/2000/svg">
        <path fill="#FBC920" d="M0 0h30v30H0z"/>
        <path fill-rule="evenodd" clip-rule="evenodd"
              d="M15.843 8.429l6.364 6.364a1 1 0 010 1.414l-6.364 6.364a1 1 0 01-1.414-1.414l4.657-4.657H8.5a1 1 0 110-2h10.586l-4.657-4.657a1 1 0 011.414-1.414z"
              fill="#fff"/>
    </symbol>
    <symbol fill="none" viewBox="0 0 24 25" id="youtube" xmlns="http://www.w3.org/2000/svg">
        <circle cx="12" cy="12.428" r="12" fill="#5D94F1"/>
        <path d="M19.197 11.011a5.297 5.297 0 00-.563-2.563 1.802 1.802 0 00-1.062-.62 48.191 48.191 0 00-5.171-.193c-1.72-.03-3.44.033-5.153.186a1.77 1.77 0 00-.902.46c-.556.515-.617 1.396-.68 2.14a30.106 30.106 0 000 4.022c.019.42.08.835.186 1.241.075.314.225.604.439.844.251.25.572.42.92.485a27.78 27.78 0 004.016.204c2.162.031 4.059 0 6.301-.173.357-.061.687-.23.946-.485.173-.173.302-.386.377-.62.22-.681.329-1.394.32-2.11.026-.348.026-2.445.026-2.818zm-8.192 3.19V10.36l3.657 1.93c-1.026.57-2.379 1.216-3.657 1.911z"
              fill="#fff"/>
    </symbol>
</svg>
