<svg width="60" height="60" viewBox="0 0 60 60" fill="none" xmlns="http://www.w3.org/2000/svg">
<path d="M0 16C0 7.16344 7.16344 0 16 0H44C52.8366 0 60 7.16344 60 16V44C60 52.8366 52.8366 60 44 60H16C7.16344 60 0 52.8366 0 44V16Z" fill="#F09730"/>
<path d="M42.9528 25.1547C43.5598 21.0958 40.4697 18.914 36.2441 17.4586L37.6149 11.9604L34.2681 11.1265L32.9336 16.4798C32.0537 16.2604 31.1502 16.0536 30.2521 15.8486L31.5962 10.4599L28.2514 9.62598L26.8799 15.1223C26.1518 14.9565 25.4366 14.7927 24.7428 14.62L24.7467 14.6028L20.1313 13.4502L19.241 17.0249C19.241 17.0249 21.7241 17.5941 21.6717 17.6291C23.027 17.9674 23.2721 18.8645 23.2314 19.5757L21.6699 25.8393C21.7633 25.863 21.8843 25.8973 22.0179 25.951C21.9062 25.9232 21.7874 25.893 21.6641 25.8634L19.4755 34.6379C19.3098 35.0497 18.8894 35.6676 17.9419 35.433C17.9754 35.4816 15.5093 34.8259 15.5093 34.8259L13.8477 38.657L18.2031 39.7428C19.0133 39.946 19.8073 40.1585 20.5893 40.3585L19.2043 45.9196L22.5473 46.7536L23.9188 41.2515C24.8321 41.4994 25.7184 41.7281 26.586 41.9436L25.2191 47.4198L28.5661 48.2538L29.951 42.7031C35.6581 43.7832 39.9494 43.3477 41.7557 38.1856C43.2111 34.0295 41.6832 31.6323 38.6807 30.069C40.8676 29.5647 42.5148 28.1264 42.954 25.1552L42.9529 25.1544L42.9528 25.1547ZM35.306 35.8775C34.2716 40.0336 27.2741 37.787 25.0053 37.2236L26.8432 29.856C29.1118 30.4224 36.3869 31.5431 35.3061 35.8775H35.306ZM36.341 25.0945C35.3975 28.8749 29.5733 26.9543 27.684 26.4833L29.3503 19.8014C31.2396 20.2723 37.3239 21.1513 36.3413 25.0945H36.341Z" fill="white"/>
</svg>
