<svg width="60" height="60" viewBox="0 0 60 60" fill="none" xmlns="http://www.w3.org/2000/svg">
<path d="M0 18C0 8.05888 8.05888 0 18 0H42C51.9411 0 60 8.05888 60 18V42C60 51.9411 51.9411 60 42 60H18C8.05888 60 0 51.9411 0 42V18Z" fill="#78B650"/>
<path d="M19.7188 43.59C20.8564 44.886 22.2401 45.9433 23.7895 46.7004C25.3389 47.4575 27.0233 47.8994 28.7448 48.0005C30.8016 47.8913 32.7421 47.0126 34.181 45.5388C37.0191 43.108 39.9988 40.8475 43.1045 38.7693L44.8482 38.0513C45.5661 37.7436 46.797 37.0256 47.9252 35.6922C49.1561 34.0511 49.3612 32.3074 49.3612 31.692C49.2248 29.7511 48.5888 27.8784 47.515 26.2559C44.7127 31.2491 40.6966 35.4551 35.8382 38.4849C30.9797 41.5147 25.4356 43.2706 19.7188 43.59Z" fill="#0293D6"/>
<path d="M23.6162 14.4599C24.3819 13.6512 25.3042 13.0067 26.327 12.5659C27.3497 12.1251 28.4515 11.897 29.5652 11.8957C30.2708 11.8485 30.9788 11.942 31.648 12.1709C32.3171 12.3998 32.934 12.7595 33.4628 13.2291C36.4049 15.3134 39.9094 16.4577 43.5146 16.5113C44.4377 16.6139 46.284 16.9216 47.5148 18.4601C48.4379 19.691 48.5405 21.0243 48.5405 21.6398C48.4579 23.2247 48.1112 24.7846 47.5148 26.2554L23.6162 14.4599Z" fill="#EBE638"/>
<path d="M19.7184 43.5899C18.7952 43.4874 17.5644 43.1797 16.1285 42.5643C14.6925 41.9488 12.9488 41.2309 11.8206 39.282C11.1026 38.0512 11 36.8204 11 35.9998C11.025 33.8237 11.5515 31.6827 12.5385 29.7431C13.5205 27.3458 14.176 24.8274 14.4873 22.2556L15.0002 20.2042C15.3079 19.1785 15.513 18.1528 16.231 17.1271L17.3593 15.8963C19.2228 14.7247 21.4281 14.2186 23.616 14.4603C20.6864 18.6512 18.8036 23.4831 18.1255 28.5513C17.4473 33.6194 17.9936 38.7763 19.7184 43.5899Z" fill="#BAD147"/>
<path d="M23.6156 14.46C23.513 14.46 29.1543 14.7677 32.6417 15.9985L35.5136 17.2293C34.3853 17.1268 27.2055 16.819 21.7693 22.2552C14.8972 29.2299 17.1537 38.7688 17.2563 39.2817C15.6638 37.278 14.8609 34.7601 14.9998 32.2044C15.1348 28.8125 15.9699 25.4851 17.4526 22.4315C18.9353 19.3778 21.0336 16.6638 23.6156 14.46Z" fill="#78B650"/>
<path d="M37.3599 39.7947C39.3004 36.2673 40.16 32.2468 39.8317 28.2343C39.5034 24.2218 38.0017 20.3946 35.5137 17.2295C38.4847 17.7262 41.2174 19.1645 43.3089 21.3323C44.5397 22.3579 46.0783 23.8965 47.5142 26.2556C45.4862 31.6426 41.9636 36.3394 37.3599 39.7947Z" fill="#2F8260"/>
<path d="M40.6429 21.7422C39.0018 18.9729 36.6427 17.742 35.617 17.2292C34.7964 17.0241 27.1038 15.7932 21.2573 21.4345C16.5392 25.9476 16.2314 31.794 16.2314 32.9223C16.2532 36.7877 17.5512 40.5378 19.9239 43.5894C22.973 44.1765 26.1061 44.1765 29.1551 43.5894C30.6937 43.2817 34.2836 42.6663 37.3607 39.9995C37.7709 39.5892 42.284 35.3839 42.5917 28.7169C42.5917 27.5887 42.5917 24.7167 40.6429 21.7422ZM36.9504 36.6147C35.9979 37.6508 34.8405 38.4776 33.5515 39.0427C32.2626 39.6077 30.8702 39.8986 29.4628 39.8969C28.8474 39.8969 24.7447 39.7944 21.8727 36.4096C21.4625 35.8968 19.4111 33.4351 19.5137 29.7426C19.7188 24.8193 23.6164 21.9474 24.437 21.332C25.1549 20.8191 26.8986 19.6908 29.4628 19.5883C30.0783 19.4857 32.2322 19.3831 34.3862 20.614C39.1043 23.1782 39.3095 29.3323 39.3095 29.7426C39.3095 30.8709 39.3095 33.9479 36.9504 36.6147Z" fill="#085229"/>
</svg>
