<svg width="60" height="60" viewBox="0 0 60 60" fill="none" xmlns="http://www.w3.org/2000/svg">
<rect width="60" height="60" rx="8" fill="#677F76"/>
<path d="M41 36.5393C41 30.5851 37.5522 28.5436 30.6567 27.6932C25.7313 27.0125 24.7462 25.6517 24.7462 23.2697C24.7462 20.8877 26.3881 19.357 29.6716 19.357C32.6268 19.357 34.2687 20.3777 35.0895 22.9296C35.2538 23.4399 35.7464 23.78 36.2389 23.78H38.8655C39.5224 23.78 40.0149 23.2697 40.0149 22.5894V22.4192C39.3581 18.6763 36.4028 15.7843 32.6268 15.4442V11.3613C32.6268 10.6806 32.1343 10.1703 31.3135 10H28.8508C28.194 10 27.7014 10.5104 27.5371 11.3613V15.274C22.6117 15.9546 19.4925 19.357 19.4925 23.6102C19.4925 29.2243 22.776 31.4356 29.6716 32.2865C34.2687 33.137 35.7464 34.1577 35.7464 36.8799C35.7464 39.602 33.4476 41.4732 30.3284 41.4732C26.0595 41.4732 24.5819 39.6016 24.0893 37.0497C23.9254 36.3695 23.4329 36.029 22.9403 36.029H20.149C19.4925 36.029 19 36.5393 19 37.22V37.3902C19.6565 41.6431 22.2835 44.7053 27.7014 45.5562V49.6391C27.7014 50.3194 28.194 50.8297 29.0147 51H31.4774C32.1343 51 32.6268 50.4896 32.7911 49.6391V45.5562C37.7165 44.7053 41 41.1327 41 36.5393Z" fill="white"/>
</svg>
