<svg width="60" height="60" viewBox="0 0 60 60" fill="none" xmlns="http://www.w3.org/2000/svg">
<rect width="60" height="60" rx="8" fill="#5493F7"/>
<path fill-rule="evenodd" clip-rule="evenodd" d="M27.4637 40.6736C28.3924 44.2163 31.7256 46.9197 33.4082 46.809C33.4669 46.805 39.7931 45.5894 43.2557 39.6249C45.9511 34.984 45.0331 30.5032 41.3676 30.4058C40.0493 30.5046 25.693 33.9232 27.4637 40.6736ZM30.6475 14C28.2603 14 25.9946 14.5124 23.945 15.4264C23.5864 15.5767 23.2371 15.7483 22.8989 15.9401C22.6667 16.0642 22.4345 16.187 22.2104 16.3204L22.2637 16.3378C21.5846 16.8088 21.0001 17.3572 20.5211 17.9924C15.7801 24.2692 31.6696 28.8313 40.164 28.8473C44.0737 31.6588 45.1705 20.9293 41.3516 17.951C38.3721 15.3941 34.5736 13.9921 30.6475 14Z" fill="#0E3CA5"/>
<path fill-rule="evenodd" clip-rule="evenodd" d="M24.6762 17.6801C22.5279 20.8359 15.3705 23.0602 14.1936 22.7133L14.1882 22.7L14.335 22.4157C15.5647 20.1084 17.311 18.1164 19.4376 16.5953C19.8779 16.2791 20.3342 15.9842 20.8053 15.7093C21.8047 15.1422 22.8321 15.1075 23.1697 15.0942C26.3562 15.1529 24.6922 17.6548 24.6749 17.6801" fill="white"/>
<mask id="mask0_1518_15205" style="mask-type:alpha" maskUnits="userSpaceOnUse" x="12" y="24" width="11" height="23">
<path d="M12 24.9377H22.9377V46.8117H12V24.9377Z" fill="white"/>
</mask>
<g mask="url(#mask0_1518_15205)">
<path fill-rule="evenodd" clip-rule="evenodd" d="M22.8736 41.3288C23.0338 42.3656 22.8696 46.4634 22.6535 46.809C22.4693 46.8197 22.0824 46.8437 20.9655 46.2245C18.7984 45.0036 16.9115 43.3417 15.4266 41.3462C14.3404 39.8845 13.4895 38.2619 12.9047 36.5372C12.3028 34.7531 11.9972 32.8825 12 30.9996C11.9967 28.9298 12.3664 26.8763 13.0915 24.9377H13.0942C14.3752 26.6176 15.8563 28.1374 17.1146 29.8347C18.3142 31.4493 19.9634 34.082 20.2983 34.6451C22.3826 38.137 22.7148 40.292 22.8736 41.3288Z" fill="white"/>
</g>
<path fill-rule="evenodd" clip-rule="evenodd" d="M47 31.1931C47 33.4335 46.573 35.5751 45.8004 37.5393C43.7722 39.7276 30.0924 34.3422 29.9577 34.2834C28.0869 33.4615 22.3919 30.9582 21.8782 27.0273C21.139 21.3723 32.577 17.4306 37.6035 17.2812C38.2053 17.2878 40.04 17.3092 41.1088 18.1819C42.9622 19.8045 44.4468 21.805 45.4629 24.049C46.479 26.293 47.0031 28.7284 47 31.1918V31.1931ZM35.0375 45.1811C35.8555 42.2855 43.0076 39.3179 44.5861 39.1578C44.781 39.1378 44.8637 39.2752 44.7783 39.4327C43.1317 42.427 40.6939 44.8929 37.7436 46.4914C36.2518 47.2146 34.6106 46.6876 35.0375 45.1811Z" fill="white"/>
</svg>
